CenturySchL-Ital.ufo
<glyph name="exclam" format="1">
  <advance width="333"/>
  <unicode hex="0021"/>
  <outline>
    <contour>
      <point x="140" y="182" type="line"/>
      <point x="185" y="344"/>
      <point x="218" y="437"/>
      <point x="266" y="543" type="curve" smooth="yes"/>
      <point x="315" y="647"/>
      <point x="316" y="649"/>
      <point x="316" y="679" type="curve" smooth="yes"/>
      <point x="316" y="713"/>
      <point x="292" y="737"/>
      <point x="257" y="737" type="curve" smooth="yes"/>
      <point x="216" y="737"/>
      <point x="188" y="696"/>
      <point x="183" y="626" type="curve" smooth="yes"/>
      <point x="174" y="494"/>
      <point x="153" y="376"/>
      <point x="104" y="192" type="curve"/>
    </contour>
    <contour>
      <point x="92" y="109" type="curve" smooth="yes"/>
      <point x="58" y="109"/>
      <point x="30" y="81"/>
      <point x="30" y="47" type="curve" smooth="yes"/>
      <point x="30" y="13"/>
      <point x="58" y="-15"/>
      <point x="91" y="-15" type="curve" smooth="yes"/>
      <point x="126" y="-15"/>
      <point x="154" y="12"/>
      <point x="154" y="47" type="curve" smooth="yes"/>
      <point x="154" y="81"/>
      <point x="126" y="109"/>
    </contour>
  </outline>
</glyph>
<glyph name="quotedbl" format="1">
  <advance width="400"/>
  <unicode hex="0022"/>
  <outline>
    <contour>
      <point x="100" y="520" type="line"/>
      <point x="120" y="510" type="line"/>
      <point x="230" y="657" type="line" smooth="yes"/>
      <point x="239" y="670"/>
      <point x="243" y="680"/>
      <point x="243" y="689" type="curve" smooth="yes"/>
      <point x="243" y="712"/>
      <point x="222" y="732"/>
      <point x="198" y="732" type="curve" smooth="yes"/>
      <point x="176" y="732"/>
      <point x="164" y="721"/>
      <point x="156" y="695" type="curve" smooth="yes"/>
    </contour>
    <contour>
      <point x="252" y="520" type="line"/>
      <point x="272" y="510" type="line"/>
      <point x="382" y="657" type="line" smooth="yes"/>
      <point x="391" y="669"/>
      <point x="395" y="680"/>
      <point x="395" y="689" type="curve" smooth="yes"/>
      <point x="395" y="712"/>
      <point x="374" y="732"/>
      <point x="350" y="732" type="curve" smooth="yes"/>
      <point x="328" y="732"/>
      <point x="316" y="721"/>
      <point x="308" y="695" type="curve" smooth="yes"/>
    </contour>
  </outline>
</glyph>
<glyph name="numbersign" format="1">
  <advance width="556"/>
  <unicode hex="0023"/>
  <outline>
    <contour>
      <point x="134" y="220" type="line"/>
      <point x="102" y="0" type="line"/>
      <point x="167" y="0" type="line"/>
      <point x="199" y="220" type="line"/>
      <point x="322" y="220" type="line"/>
      <point x="290" y="0" type="line"/>
      <point x="355" y="0" type="line"/>
      <point x="387" y="220" type="line"/>
      <point x="497" y="220" type="line"/>
      <point x="497" y="276" type="line"/>
      <point x="395" y="276" type="line"/>
      <point x="416" y="424" type="line"/>
      <point x="524" y="424" type="line"/>
      <point x="524" y="480" type="line"/>
      <point x="424" y="480" type="line"/>
      <point x="454" y="686" type="line"/>
      <point x="389" y="686" type="line"/>
      <point x="359" y="480" type="line"/>
      <point x="236" y="480" type="line"/>
      <point x="266" y="686" type="line"/>
      <point x="201" y="686" type="line"/>
      <point x="171" y="480" type="line"/>
      <point x="60" y="480" type="line"/>
      <point x="60" y="424" type="line"/>
      <point x="163" y="424" type="line"/>
      <point x="142" y="276" type="line"/>
      <point x="33" y="276" type="line"/>
      <point x="33" y="220" type="line"/>
    </contour>
    <contour>
      <point x="228" y="424" type="line"/>
      <point x="351" y="424" type="line"/>
      <point x="330" y="276" type="line"/>
      <point x="207" y="276" type="line"/>
    </contour>
  </outline>
</glyph>
<glyph name="dollar" format="1">
  <advance width="556"/>
  <unicode hex="0024"/>
  <outline>
    <contour>
      <point x="381" y="647" type="line"/>
      <point x="427" y="637"/>
      <point x="462" y="613"/>
      <point x="462" y="591" type="curve" smooth="yes"/>
      <point x="462" y="582"/>
      <point x="458" y="577"/>
      <point x="445" y="570" type="curve" smooth="yes"/>
      <point x="421" y="558"/>
      <point x="411" y="543"/>
      <point x="411" y="518" type="curve" smooth="yes"/>
      <point x="411" y="487"/>
      <point x="436" y="464"/>
      <point x="469" y="464" type="curve" smooth="yes"/>
      <point x="510" y="464"/>
      <point x="536" y="493"/>
      <point x="536" y="541" type="curve" smooth="yes"/>
      <point x="536" y="615"/>
      <point x="480" y="673"/>
      <point x="392" y="689" type="curve"/>
      <point x="420" y="792" type="line"/>
      <point x="377" y="792" type="line"/>
      <point x="350" y="693" type="line"/>
      <point x="343" y="693" type="line" smooth="yes"/>
      <point x="209" y="693"/>
      <point x="103" y="601"/>
      <point x="103" y="485" type="curve" smooth="yes"/>
      <point x="103" y="407"/>
      <point x="150" y="344"/>
      <point x="234" y="309" type="curve"/>
      <point x="240" y="307" type="line"/>
      <point x="246" y="304" type="line"/>
      <point x="172" y="30" type="line"/>
      <point x="119" y="40"/>
      <point x="73" y="72"/>
      <point x="73" y="100" type="curve" smooth="yes"/>
      <point x="73" y="110"/>
      <point x="77" y="114"/>
      <point x="93" y="118" type="curve" smooth="yes"/>
      <point x="125" y="127"/>
      <point x="142" y="147"/>
      <point x="142" y="175" type="curve" smooth="yes"/>
      <point x="142" y="210"/>
      <point x="116" y="234"/>
      <point x="80" y="234" type="curve" smooth="yes"/>
      <point x="35" y="234"/>
      <point x="3" y="197"/>
      <point x="3" y="143" type="curve" smooth="yes"/>
      <point x="3" y="67"/>
      <point x="67" y="5"/>
      <point x="162" y="-11" type="curve"/>
      <point x="128" y="-135" type="line"/>
      <point x="171" y="-135" type="line"/>
      <point x="204" y="-14" type="line"/>
      <point x="211" y="-14" type="line" smooth="yes"/>
      <point x="269" y="-13"/>
      <point x="304" y="-5"/>
      <point x="345" y="14" type="curve" smooth="yes"/>
      <point x="426" y="53"/>
      <point x="473" y="121"/>
      <point x="473" y="199" type="curve" smooth="yes"/>
      <point x="473" y="264"/>
      <point x="442" y="315"/>
      <point x="377" y="357" type="curve" smooth="yes"/>
      <point x="356" y="370"/>
      <point x="353" y="371"/>
      <point x="311" y="388" type="curve"/>
    </contour>
    <contour>
      <point x="273" y="404" type="line"/>
      <point x="268" y="406" type="line" smooth="yes"/>
      <point x="216" y="426"/>
      <point x="183" y="471"/>
      <point x="183" y="522" type="curve" smooth="yes"/>
      <point x="183" y="601"/>
      <point x="242" y="650"/>
      <point x="339" y="651" type="curve"/>
    </contour>
    <contour>
      <point x="285" y="288" type="line"/>
      <point x="289" y="287"/>
      <point x="294" y="285"/>
      <point x="298" y="283" type="curve"/>
      <point x="327" y="271"/>
      <point x="340" y="263"/>
      <point x="353" y="248" type="curve" smooth="yes"/>
      <point x="372" y="227"/>
      <point x="385" y="192"/>
      <point x="385" y="163" type="curve" smooth="yes"/>
      <point x="385" y="106"/>
      <point x="344" y="55"/>
      <point x="282" y="36" type="curve" smooth="yes"/>
      <point x="261" y="30"/>
      <point x="242" y="27"/>
      <point x="215" y="26" type="curve"/>
    </contour>
  </outline>
</glyph>
<glyph name="percent" format="1">
  <advance width="833"/>
  <unicode hex="0025"/>
  <outline>
    <contour>
      <point x="651" y="722" type="line"/>
      <point x="605" y="722" type="line"/>
      <point x="565" y="668"/>
      <point x="507" y="639"/>
      <point x="443" y="639" type="curve" smooth="yes"/>
      <point x="418" y="639"/>
      <point x="400" y="644"/>
      <point x="370" y="661" type="curve"/>
      <point x="344" y="695"/>
      <point x="319" y="708"/>
      <point x="279" y="708" type="curve" smooth="yes"/>
      <point x="236" y="708"/>
      <point x="191" y="689"/>
      <point x="152" y="656" type="curve" smooth="yes"/>
      <point x="92" y="604"/>
      <point x="46" y="512"/>
      <point x="46" y="445" type="curve" smooth="yes"/>
      <point x="46" y="373"/>
      <point x="100" y="321"/>
      <point x="174" y="321" type="curve" smooth="yes"/>
      <point x="230" y="321"/>
      <point x="276" y="345"/>
      <point x="320" y="397" type="curve" smooth="yes"/>
      <point x="363" y="449"/>
      <point x="391" y="520"/>
      <point x="391" y="581" type="curve" smooth="yes"/>
      <point x="391" y="592"/>
      <point x="390" y="600"/>
      <point x="387" y="617" type="curve"/>
      <point x="414" y="608"/>
      <point x="431" y="605"/>
      <point x="452" y="605" type="curve" smooth="yes"/>
      <point x="486" y="605"/>
      <point x="510" y="613"/>
      <point x="549" y="635" type="curve"/>
      <point x="187" y="0" type="line"/>
      <point x="237" y="0" type="line"/>
    </contour>
    <contour>
      <point x="287" y="673" type="curve"/>
      <point x="307" y="650"/>
      <point x="322" y="641"/>
      <point x="351" y="630" type="curve"/>
      <point x="355" y="613"/>
      <point x="357" y="602"/>
      <point x="357" y="587" type="curve" smooth="yes"/>
      <point x="357" y="475"/>
      <point x="270" y="357"/>
      <point x="189" y="357" type="curve" smooth="yes"/>
      <point x="154" y="357"/>
      <point x="130" y="383"/>
      <point x="130" y="419" type="curve" smooth="yes"/>
      <point x="130" y="456"/>
      <point x="146" y="497"/>
      <point x="192" y="578" type="curve" smooth="yes"/>
      <point x="231" y="646"/>
      <point x="244" y="658"/>
    </contour>
    <contour>
      <point x="675" y="401" type="curve" smooth="yes"/>
      <point x="616" y="401"/>
      <point x="560" y="370"/>
      <point x="514" y="314" type="curve" smooth="yes"/>
      <point x="472" y="261"/>
      <point x="445" y="192"/>
      <point x="445" y="136" type="curve" smooth="yes"/>
      <point x="445" y="66"/>
      <point x="500" y="15"/>
      <point x="575" y="15" type="curve" smooth="yes"/>
      <point x="627" y="15"/>
      <point x="679" y="42"/>
      <point x="716" y="89" type="curve" smooth="yes"/>
      <point x="762" y="146"/>
      <point x="792" y="223"/>
      <point x="792" y="282" type="curve" smooth="yes"/>
      <point x="792" y="351"/>
      <point x="743" y="401"/>
    </contour>
    <contour>
      <point x="692" y="364" type="curve" smooth="yes"/>
      <point x="728" y="364"/>
      <point x="757" y="327"/>
      <point x="757" y="280" type="curve" smooth="yes"/>
      <point x="757" y="170"/>
      <point x="668" y="51"/>
      <point x="586" y="51" type="curve" smooth="yes"/>
      <point x="553" y="51"/>
      <point x="527" y="78"/>
      <point x="527" y="111" type="curve" smooth="yes"/>
      <point x="527" y="151"/>
      <point x="549" y="203"/>
      <point x="601" y="290" type="curve" smooth="yes"/>
      <point x="633" y="341"/>
      <point x="660" y="364"/>
    </contour>
  </outline>
</glyph>
<glyph name="ampersand" format="1">
  <advance width="852"/>
  <unicode hex="0026"/>
  <outline>
    <contour>
      <point x="773" y="397" type="line"/>
      <point x="513" y="397" type="line"/>
      <point x="507" y="354" type="line"/>
      <point x="514" y="354" type="line" smooth="yes"/>
      <point x="559" y="354"/>
      <point x="588" y="335"/>
      <point x="588" y="305" type="curve" smooth="yes"/>
      <point x="588" y="270"/>
      <point x="546" y="209"/>
      <point x="478" y="146" type="curve"/>
      <point x="439" y="199"/>
      <point x="400" y="298"/>
      <point x="372" y="416" type="curve"/>
      <point x="442" y="436"/>
      <point x="475" y="449"/>
      <point x="506" y="468" type="curve" smooth="yes"/>
      <point x="565" y="504"/>
      <point x="594" y="549"/>
      <point x="594" y="606" type="curve" smooth="yes"/>
      <point x="594" y="684"/>
      <point x="532" y="737"/>
      <point x="442" y="737" type="curve" smooth="yes"/>
      <point x="329" y="737"/>
      <point x="255" y="650"/>
      <point x="255" y="517" type="curve" smooth="yes"/>
      <point x="255" y="490"/>
      <point x="257" y="469"/>
      <point x="263" y="424" type="curve"/>
      <point x="190" y="393"/>
      <point x="149" y="371"/>
      <point x="117" y="346" type="curve" smooth="yes"/>
      <point x="56" y="296"/>
      <point x="24" y="235"/>
      <point x="24" y="170" type="curve" smooth="yes"/>
      <point x="24" y="59"/>
      <point x="103" y="-15"/>
      <point x="222" y="-15" type="curve" smooth="yes"/>
      <point x="288" y="-15"/>
      <point x="350" y="3"/>
      <point x="422" y="43" type="curve"/>
      <point x="462" y="1"/>
      <point x="499" y="-15"/>
      <point x="552" y="-15" type="curve" smooth="yes"/>
      <point x="629" y="-15"/>
      <point x="692" y="29"/>
      <point x="753" y="125" type="curve"/>
      <point x="719" y="146" type="line"/>
      <point x="671" y="77"/>
      <point x="643" y="56"/>
      <point x="598" y="56" type="curve" smooth="yes"/>
      <point x="565" y="56"/>
      <point x="540" y="70"/>
      <point x="507" y="108" type="curve"/>
      <point x="546" y="144"/>
      <point x="571" y="174"/>
      <point x="607" y="224" type="curve" smooth="yes"/>
      <point x="678" y="328"/>
      <point x="702" y="347"/>
      <point x="768" y="354" type="curve"/>
    </contour>
    <contour>
      <point x="364" y="459" type="curve"/>
      <point x="356" y="512"/>
      <point x="354" y="534"/>
      <point x="354" y="565" type="curve" smooth="yes"/>
      <point x="354" y="642"/>
      <point x="389" y="691"/>
      <point x="444" y="691" type="curve" smooth="yes"/>
      <point x="489" y="691"/>
      <point x="523" y="656"/>
      <point x="523" y="609" type="curve" smooth="yes"/>
      <point x="523" y="549"/>
      <point x="464" y="490"/>
      <point x="377" y="464" type="curve"/>
      <point x="370" y="461"/>
      <point x="370" y="461"/>
    </contour>
    <contour>
      <point x="271" y="379" type="curve"/>
      <point x="299" y="260"/>
      <point x="335" y="171"/>
      <point x="392" y="80" type="curve"/>
      <point x="349" y="53"/>
      <point x="313" y="41"/>
      <point x="274" y="41" type="curve" smooth="yes"/>
      <point x="233" y="41"/>
      <point x="199" y="57"/>
      <point x="176" y="86" type="curve" smooth="yes"/>
      <point x="153" y="117"/>
      <point x="139" y="158"/>
      <point x="139" y="196" type="curve" smooth="yes"/>
      <point x="139" y="243"/>
      <point x="161" y="295"/>
      <point x="195" y="329" type="curve" smooth="yes"/>
      <point x="213" y="347"/>
      <point x="231" y="359"/>
    </contour>
  </outline>
</glyph>
<glyph name="quotesingle" format="1">
  <advance width="278"/>
  <unicode hex="0027"/>
  <outline>
    <contour>
      <point x="114" y="520" type="line"/>
      <point x="134" y="510" type="line"/>
      <point x="248" y="657" type="line" smooth="yes"/>
      <point x="257" y="669"/>
      <point x="262" y="681"/>
      <point x="262" y="691" type="curve" smooth="yes"/>
      <point x="262" y="712"/>
      <point x="240" y="732"/>
      <point x="215" y="732" type="curve" smooth="yes"/>
      <point x="193" y="732"/>
      <point x="180" y="721"/>
      <point x="172" y="695" type="curve" smooth="yes"/>
    </contour>
  </outline>
</glyph>
<glyph name="parenleft" format="1">
  <advance width="333"/>
  <unicode hex="0028"/>
  <outline>
    <contour>
      <point x="389" y="736" type="line"/>
      <point x="187" y="661"/>
      <point x="40" y="440"/>
      <point x="40" y="213" type="curve" smooth="yes"/>
      <point x="40" y="85"/>
      <point x="78" y="-26"/>
      <point x="156" y="-123" type="curve"/>
      <point x="177" y="-108" type="line"/>
      <point x="133" y="-22"/>
      <point x="119" y="34"/>
      <point x="119" y="122" type="curve" smooth="yes"/>
      <point x="119" y="274"/>
      <point x="163" y="444"/>
      <point x="232" y="563" type="curve" smooth="yes"/>
      <point x="271" y="629"/>
      <point x="315" y="669"/>
      <point x="399" y="713" type="curve"/>
    </contour>
  </outline>
</glyph>
<glyph name="parenright" format="1">
  <advance width="333"/>
  <unicode hex="0029"/>
  <outline>
    <contour>
      <point x="-83" y="-123" type="line"/>
      <point x="118" y="-47"/>
      <point x="265" y="174"/>
      <point x="265" y="400" type="curve" smooth="yes"/>
      <point x="265" y="529"/>
      <point x="227" y="640"/>
      <point x="150" y="736" type="curve"/>
      <point x="129" y="721" type="line"/>
      <point x="172" y="635"/>
      <point x="186" y="579"/>
      <point x="186" y="492" type="curve" smooth="yes"/>
      <point x="186" y="339"/>
      <point x="143" y="170"/>
      <point x="73" y="50" type="curve" smooth="yes"/>
      <point x="35" y="-16"/>
      <point x="-9" y="-55"/>
      <point x="-93" y="-100" type="curve"/>
    </contour>
  </outline>
</glyph>
<glyph name="asterisk" format="1">
  <advance width="500"/>
  <unicode hex="002A"/>
  <outline>
    <contour>
      <point x="222" y="501" type="line"/>
      <point x="190" y="492" type="line" smooth="yes"/>
      <point x="174" y="488"/>
      <point x="160" y="486"/>
      <point x="147" y="486" type="curve" smooth="yes"/>
      <point x="137" y="486"/>
      <point x="121" y="488"/>
      <point x="98" y="492" type="curve" smooth="yes"/>
      <point x="90" y="493"/>
      <point x="84" y="494"/>
      <point x="79" y="494" type="curve" smooth="yes"/>
      <point x="55" y="494"/>
      <point x="34" y="473"/>
      <point x="34" y="450" type="curve" smooth="yes"/>
      <point x="34" y="427"/>
      <point x="54" y="409"/>
      <point x="78" y="409" type="curve" smooth="yes"/>
      <point x="91" y="409"/>
      <point x="99" y="413"/>
      <point x="115" y="426" type="curve" smooth="yes"/>
      <point x="152" y="455"/>
      <point x="165" y="463"/>
      <point x="195" y="472" type="curve"/>
      <point x="228" y="480" type="line"/>
      <point x="219" y="448" type="line" smooth="yes"/>
      <point x="209" y="412"/>
      <point x="205" y="405"/>
      <point x="174" y="367" type="curve" smooth="yes"/>
      <point x="161" y="352"/>
      <point x="157" y="343"/>
      <point x="157" y="330" type="curve" smooth="yes"/>
      <point x="157" y="306"/>
      <point x="175" y="286"/>
      <point x="197" y="286" type="curve" smooth="yes"/>
      <point x="221" y="286"/>
      <point x="241" y="307"/>
      <point x="241" y="331" type="curve" smooth="yes"/>
      <point x="241" y="336"/>
      <point x="240" y="342"/>
      <point x="239" y="350" type="curve" smooth="yes"/>
      <point x="236" y="373"/>
      <point x="234" y="390"/>
      <point x="234" y="401" type="curve" smooth="yes"/>
      <point x="234" y="414"/>
      <point x="236" y="428"/>
      <point x="240" y="442" type="curve" smooth="yes"/>
      <point x="249" y="475" type="line"/>
      <point x="272" y="451" type="line" smooth="yes"/>
      <point x="299" y="423"/>
      <point x="303" y="416"/>
      <point x="319" y="371" type="curve" smooth="yes"/>
      <point x="329" y="344"/>
      <point x="344" y="332"/>
      <point x="366" y="332" type="curve" smooth="yes"/>
      <point x="390" y="332"/>
      <point x="407" y="349"/>
      <point x="407" y="373" type="curve" smooth="yes"/>
      <point x="407" y="395"/>
      <point x="395" y="409"/>
      <point x="367" y="420" type="curve" smooth="yes"/>
      <point x="324" y="436"/>
      <point x="310" y="444"/>
      <point x="288" y="466" type="curve" smooth="yes"/>
      <point x="264" y="490" type="line"/>
      <point x="296" y="499" type="line"/>
      <point x="314" y="503"/>
      <point x="330" y="506"/>
      <point x="341" y="506" type="curve" smooth="yes"/>
      <point x="351" y="506"/>
      <point x="360" y="505"/>
      <point x="388" y="499" type="curve"/>
      <point x="396" y="498"/>
      <point x="402" y="497"/>
      <point x="407" y="497" type="curve" smooth="yes"/>
      <point x="430" y="497"/>
      <point x="452" y="518"/>
      <point x="452" y="541" type="curve" smooth="yes"/>
      <point x="452" y="564"/>
      <point x="432" y="582"/>
      <point x="408" y="582" type="curve" smooth="yes"/>
      <point x="395" y="582"/>
      <point x="387" y="578"/>
      <point x="371" y="565" type="curve" smooth="yes"/>
      <point x="335" y="536"/>
      <point x="322" y="528"/>
      <point x="291" y="519" type="curve" smooth="yes"/>
      <point x="258" y="511" type="line"/>
      <point x="267" y="543" type="line" smooth="yes"/>
      <point x="277" y="581"/>
      <point x="281" y="588"/>
      <point x="312" y="624" type="curve" smooth="yes"/>
      <point x="325" y="639"/>
      <point x="329" y="648"/>
      <point x="329" y="661" type="curve" smooth="yes"/>
      <point x="329" y="685"/>
      <point x="311" y="705"/>
      <point x="289" y="705" type="curve" smooth="yes"/>
      <point x="266" y="705"/>
      <point x="245" y="684"/>
      <point x="245" y="661" type="curve" smooth="yes"/>
      <point x="245" y="656"/>
      <point x="246" y="649"/>
      <point x="247" y="641" type="curve" smooth="yes"/>
      <point x="250" y="621"/>
      <point x="252" y="601"/>
      <point x="252" y="591" type="curve" smooth="yes"/>
      <point x="252" y="578"/>
      <point x="250" y="563"/>
      <point x="246" y="549" type="curve" smooth="yes"/>
      <point x="237" y="516" type="line"/>
      <point x="214" y="540" type="line" smooth="yes"/>
      <point x="188" y="566"/>
      <point x="184" y="573"/>
      <point x="167" y="620" type="curve" smooth="yes"/>
      <point x="157" y="647"/>
      <point x="142" y="659"/>
      <point x="120" y="659" type="curve" smooth="yes"/>
      <point x="96" y="659"/>
      <point x="79" y="641"/>
      <point x="79" y="618" type="curve" smooth="yes"/>
      <point x="79" y="596"/>
      <point x="91" y="582"/>
      <point x="118" y="571" type="curve" smooth="yes"/>
      <point x="163" y="555"/>
      <point x="175" y="547"/>
      <point x="199" y="525" type="curve"/>
    </contour>
  </outline>
</glyph>
<glyph name="plus" format="1">
  <advance width="606"/>
  <unicode hex="002B"/>
  <outline>
    <contour>
      <point x="249" y="213" type="line"/>
      <point x="249" y="2" type="line"/>
      <point x="329" y="2" type="line"/>
      <point x="329" y="213" type="line"/>
      <point x="540" y="213" type="line"/>
      <point x="540" y="293" type="line"/>
      <point x="329" y="293" type="line"/>
      <point x="329" y="505" type="line"/>
      <point x="249" y="505" type="line"/>
      <point x="249" y="293" type="line"/>
      <point x="37" y="293" type="line"/>
      <point x="37" y="213" type="line"/>
    </contour>
  </outline>
</glyph>
<glyph name="comma" format="1">
  <advance width="278"/>
  <unicode hex="002C"/>
  <outline>
    <contour>
      <point x="-26" y="-167" type="line"/>
      <point x="82" y="-125"/>
      <point x="151" y="-48"/>
      <point x="151" y="29" type="curve" smooth="yes"/>
      <point x="151" y="75"/>
      <point x="122" y="109"/>
      <point x="82" y="109" type="curve" smooth="yes"/>
      <point x="45" y="109"/>
      <point x="15" y="82"/>
      <point x="15" y="47" type="curve" smooth="yes"/>
      <point x="15" y="15"/>
      <point x="37" y="-6"/>
      <point x="71" y="-6" type="curve" smooth="yes"/>
      <point x="75" y="-6"/>
      <point x="81" y="-6"/>
      <point x="88" y="-5" type="curve"/>
      <point x="79" y="-56"/>
      <point x="35" y="-102"/>
      <point x="-39" y="-136" type="curve"/>
    </contour>
  </outline>
</glyph>
<glyph name="hyphen" format="1">
  <advance width="333"/>
  <unicode hex="002D"/>
  <outline>
    <contour>
      <point x="54" y="278" type="line"/>
      <point x="32" y="195" type="line"/>
      <point x="237" y="195" type="line"/>
      <point x="259" y="278" type="line"/>
    </contour>
  </outline>
</glyph>
<glyph name="period" format="1">
  <advance width="278"/>
  <unicode hex="002E"/>
  <outline>
    <contour>
      <point x="79" y="109" type="curve" smooth="yes"/>
      <point x="45" y="109"/>
      <point x="17" y="81"/>
      <point x="17" y="47" type="curve" smooth="yes"/>
      <point x="17" y="13"/>
      <point x="45" y="-15"/>
      <point x="78" y="-15" type="curve" smooth="yes"/>
      <point x="113" y="-15"/>
      <point x="141" y="12"/>
      <point x="141" y="47" type="curve" smooth="yes"/>
      <point x="141" y="81"/>
      <point x="113" y="109"/>
    </contour>
  </outline>
</glyph>
<glyph name="slash" format="1">
  <advance width="606"/>
  <unicode hex="002F"/>
  <outline>
    <contour>
      <point x="408" y="722" type="line"/>
      <point x="140" y="-108" type="line"/>
      <point x="198" y="-108" type="line"/>
      <point x="466" y="722" type="line"/>
    </contour>
  </outline>
</glyph>
<glyph name="zero" format="1">
  <advance width="556"/>
  <unicode hex="0030"/>
  <outline>
    <contour>
      <point x="351" y="704" type="curve" smooth="yes"/>
      <point x="285" y="704"/>
      <point x="223" y="674"/>
      <point x="168" y="615" type="curve" smooth="yes"/>
      <point x="85" y="526"/>
      <point x="29" y="372"/>
      <point x="29" y="232" type="curve" smooth="yes"/>
      <point x="29" y="87"/>
      <point x="101" y="-15"/>
      <point x="203" y="-15" type="curve" smooth="yes"/>
      <point x="374" y="-15"/>
      <point x="527" y="207"/>
      <point x="527" y="454" type="curve" smooth="yes"/>
      <point x="527" y="603"/>
      <point x="456" y="704"/>
    </contour>
    <contour>
      <point x="349" y="664" type="curve" smooth="yes"/>
      <point x="402" y="664"/>
      <point x="430" y="618"/>
      <point x="430" y="531" type="curve" smooth="yes"/>
      <point x="430" y="435"/>
      <point x="404" y="306"/>
      <point x="364" y="204" type="curve" smooth="yes"/>
      <point x="316" y="80"/>
      <point x="268" y="25"/>
      <point x="208" y="25" type="curve" smooth="yes"/>
      <point x="155" y="25"/>
      <point x="124" y="73"/>
      <point x="124" y="158" type="curve" smooth="yes"/>
      <point x="124" y="287"/>
      <point x="170" y="462"/>
      <point x="234" y="578" type="curve" smooth="yes"/>
      <point x="265" y="634"/>
      <point x="305" y="664"/>
    </contour>
  </outline>
</glyph>
<glyph name="one" format="1">
  <advance width="556"/>
  <unicode hex="0031"/>
  <outline>
    <contour>
      <point x="459" y="708" type="line"/>
      <point x="430" y="708" type="line"/>
      <point x="376" y="667"/>
      <point x="269" y="632"/>
      <point x="197" y="632" type="curve"/>
      <point x="185" y="588" type="line"/>
      <point x="254" y="588" type="line" smooth="yes"/>
      <point x="315" y="588"/>
      <point x="322" y="586"/>
      <point x="322" y="568" type="curve" smooth="yes"/>
      <point x="322" y="559"/>
      <point x="322" y="559"/>
      <point x="312" y="523" type="curve" smooth="yes"/>
      <point x="205" y="123" type="line" smooth="yes"/>
      <point x="191" y="70"/>
      <point x="190" y="69"/>
      <point x="182" y="61" type="curve" smooth="yes"/>
      <point x="171" y="51"/>
      <point x="148" y="47"/>
      <point x="98" y="47" type="curve" smooth="yes"/>
      <point x="55" y="47" type="line"/>
      <point x="50" y="0" type="line"/>
      <point x="420" y="0" type="line"/>
      <point x="426" y="47" type="line"/>
      <point x="372" y="47" type="line" smooth="yes"/>
      <point x="307" y="47"/>
      <point x="293" y="52"/>
      <point x="293" y="74" type="curve" smooth="yes"/>
      <point x="293" y="82"/>
      <point x="293" y="82"/>
      <point x="302" y="123" type="curve" smooth="yes"/>
    </contour>
  </outline>
</glyph>
<glyph name="two" format="1">
  <advance width="556"/>
  <unicode hex="0032"/>
  <outline>
    <contour>
      <point x="435" y="207" type="line"/>
      <point x="409" y="161" type="line" smooth="yes"/>
      <point x="372" y="96"/>
      <point x="359" y="85"/>
      <point x="310" y="85" type="curve" smooth="yes"/>
      <point x="78" y="85" type="line"/>
      <point x="103" y="117"/>
      <point x="145" y="152"/>
      <point x="226" y="210" type="curve" smooth="yes"/>
      <point x="363" y="304"/>
      <point x="369" y="309"/>
      <point x="395" y="329" type="curve" smooth="yes"/>
      <point x="475" y="391"/>
      <point x="508" y="450"/>
      <point x="508" y="529" type="curve" smooth="yes"/>
      <point x="508" y="633"/>
      <point x="430" y="704"/>
      <point x="315" y="704" type="curve" smooth="yes"/>
      <point x="187" y="704"/>
      <point x="76" y="610"/>
      <point x="76" y="501" type="curve" smooth="yes"/>
      <point x="76" y="445"/>
      <point x="106" y="409"/>
      <point x="153" y="409" type="curve" smooth="yes"/>
      <point x="190" y="409"/>
      <point x="218" y="437"/>
      <point x="218" y="473" type="curve" smooth="yes"/>
      <point x="218" y="499"/>
      <point x="205" y="516"/>
      <point x="172" y="534" type="curve" smooth="yes"/>
      <point x="149" y="546"/>
      <point x="144" y="551"/>
      <point x="144" y="563" type="curve" smooth="yes"/>
      <point x="144" y="606"/>
      <point x="219" y="654"/>
      <point x="286" y="654" type="curve" smooth="yes"/>
      <point x="356" y="654"/>
      <point x="403" y="607"/>
      <point x="403" y="537" type="curve" smooth="yes"/>
      <point x="403" y="462"/>
      <point x="370" y="407"/>
      <point x="280" y="329" type="curve" smooth="yes"/>
      <point x="14" y="99"/>
      <point x="-26" y="56"/>
      <point x="-35" y="0" type="curve"/>
      <point x="394" y="0" type="line"/>
      <point x="471" y="193" type="line"/>
    </contour>
  </outline>
</glyph>
<glyph name="three" format="1">
  <advance width="556"/>
  <unicode hex="0033"/>
  <outline>
    <contour>
      <point x="340" y="364" type="curve"/>
      <point x="351" y="368"/>
      <point x="364" y="372"/>
      <point x="374" y="375" type="curve"/>
      <point x="457" y="405"/>
      <point x="506" y="467"/>
      <point x="506" y="545" type="curve" smooth="yes"/>
      <point x="506" y="639"/>
      <point x="429" y="704"/>
      <point x="318" y="704" type="curve" smooth="yes"/>
      <point x="209" y="704"/>
      <point x="117" y="635"/>
      <point x="117" y="554" type="curve" smooth="yes"/>
      <point x="117" y="513"/>
      <point x="143" y="485"/>
      <point x="180" y="485" type="curve" smooth="yes"/>
      <point x="213" y="485"/>
      <point x="237" y="509"/>
      <point x="237" y="542" type="curve" smooth="yes"/>
      <point x="237" y="559"/>
      <point x="231" y="571"/>
      <point x="216" y="587" type="curve" smooth="yes"/>
      <point x="206" y="597"/>
      <point x="202" y="603"/>
      <point x="202" y="610" type="curve" smooth="yes"/>
      <point x="202" y="634"/>
      <point x="252" y="659"/>
      <point x="299" y="659" type="curve" smooth="yes"/>
      <point x="366" y="659"/>
      <point x="406" y="622"/>
      <point x="406" y="560" type="curve" smooth="yes"/>
      <point x="406" y="472"/>
      <point x="342" y="387"/>
      <point x="276" y="387" type="curve" smooth="yes"/>
      <point x="273" y="387"/>
      <point x="265" y="388"/>
      <point x="253" y="389" type="curve" smooth="yes"/>
      <point x="223" y="391"/>
      <point x="222" y="391"/>
      <point x="218" y="391" type="curve" smooth="yes"/>
      <point x="197" y="391"/>
      <point x="184" y="381"/>
      <point x="184" y="363" type="curve" smooth="yes"/>
      <point x="184" y="347"/>
      <point x="195" y="337"/>
      <point x="213" y="337" type="curve" smooth="yes"/>
      <point x="218" y="337"/>
      <point x="225" y="338"/>
      <point x="233" y="339" type="curve"/>
      <point x="247" y="342"/>
      <point x="261" y="343"/>
      <point x="271" y="343" type="curve" smooth="yes"/>
      <point x="318" y="343"/>
      <point x="350" y="301"/>
      <point x="350" y="239" type="curve" smooth="yes"/>
      <point x="350" y="192"/>
      <point x="338" y="146"/>
      <point x="317" y="108" type="curve" smooth="yes"/>
      <point x="287" y="54"/>
      <point x="241" y="27"/>
      <point x="176" y="27" type="curve" smooth="yes"/>
      <point x="121" y="27"/>
      <point x="72" y="55"/>
      <point x="72" y="87" type="curve" smooth="yes"/>
      <point x="72" y="98"/>
      <point x="76" y="102"/>
      <point x="92" y="109" type="curve" smooth="yes"/>
      <point x="121" y="122"/>
      <point x="133" y="140"/>
      <point x="133" y="167" type="curve" smooth="yes"/>
      <point x="133" y="201"/>
      <point x="104" y="229"/>
      <point x="69" y="229" type="curve" smooth="yes"/>
      <point x="26" y="229"/>
      <point x="-2" y="195"/>
      <point x="-2" y="143" type="curve" smooth="yes"/>
      <point x="-2" y="46"/>
      <point x="72" y="-15"/>
      <point x="192" y="-15" type="curve" smooth="yes"/>
      <point x="343" y="-15"/>
      <point x="458" y="86"/>
      <point x="458" y="220" type="curve" smooth="yes"/>
      <point x="458" y="256"/>
      <point x="447" y="287"/>
      <point x="426" y="312" type="curve" smooth="yes"/>
      <point x="404" y="338"/>
      <point x="384" y="350"/>
    </contour>
  </outline>
</glyph>
<glyph name="four" format="1">
  <advance width="556"/>
  <unicode hex="0034"/>
  <outline>
    <contour>
      <point x="512" y="708" type="line"/>
      <point x="458" y="708" type="line"/>
      <point x="-8" y="226" type="line"/>
      <point x="-8" y="184" type="line"/>
      <point x="274" y="184" type="line"/>
      <point x="258" y="123" type="line" smooth="yes"/>
      <point x="243" y="70"/>
      <point x="243" y="68"/>
      <point x="235" y="61" type="curve" smooth="yes"/>
      <point x="224" y="51"/>
      <point x="200" y="47"/>
      <point x="151" y="47" type="curve" smooth="yes"/>
      <point x="133" y="47" type="line"/>
      <point x="127" y="0" type="line"/>
      <point x="438" y="0" type="line"/>
      <point x="443" y="47" type="line"/>
      <point x="425" y="47" type="line" smooth="yes"/>
      <point x="359" y="47"/>
      <point x="345" y="52"/>
      <point x="345" y="74" type="curve" smooth="yes"/>
      <point x="345" y="82"/>
      <point x="348" y="98"/>
      <point x="355" y="123" type="curve" smooth="yes"/>
      <point x="372" y="184" type="line"/>
      <point x="486" y="184" type="line"/>
      <point x="500" y="238" type="line"/>
      <point x="386" y="238" type="line"/>
    </contour>
    <contour>
      <point x="289" y="238" type="line"/>
      <point x="65" y="238" type="line"/>
      <point x="374" y="556" type="line"/>
    </contour>
  </outline>
</glyph>
<glyph name="five" format="1">
  <advance width="556"/>
  <unicode hex="0035"/>
  <outline>
    <contour>
      <point x="112" y="383" type="line"/>
      <point x="81" y="363"/>
      <point x="72" y="352"/>
      <point x="72" y="333" type="curve" smooth="yes"/>
      <point x="72" y="314"/>
      <point x="88" y="299"/>
      <point x="108" y="299" type="curve" smooth="yes"/>
      <point x="134" y="299"/>
      <point x="149" y="318"/>
      <point x="152" y="355" type="curve"/>
      <point x="183" y="379"/>
      <point x="216" y="391"/>
      <point x="255" y="391" type="curve" smooth="yes"/>
      <point x="329" y="391"/>
      <point x="371" y="345"/>
      <point x="371" y="262" type="curve" smooth="yes"/>
      <point x="371" y="132"/>
      <point x="287" y="26"/>
      <point x="184" y="26" type="curve" smooth="yes"/>
      <point x="126" y="26"/>
      <point x="77" y="54"/>
      <point x="77" y="87" type="curve" smooth="yes"/>
      <point x="77" y="93"/>
      <point x="78" y="95"/>
      <point x="83" y="98" type="curve"/>
      <point x="109" y="110"/>
      <point x="109" y="110"/>
      <point x="115" y="115" type="curve"/>
      <point x="132" y="127"/>
      <point x="141" y="145"/>
      <point x="141" y="166" type="curve" smooth="yes"/>
      <point x="141" y="198"/>
      <point x="116" y="222"/>
      <point x="81" y="222" type="curve" smooth="yes"/>
      <point x="37" y="222"/>
      <point x="4" y="185"/>
      <point x="4" y="137" type="curve" smooth="yes"/>
      <point x="4" y="49"/>
      <point x="81" y="-15"/>
      <point x="187" y="-15" type="curve" smooth="yes"/>
      <point x="348" y="-15"/>
      <point x="480" y="115"/>
      <point x="480" y="274" type="curve" smooth="yes"/>
      <point x="480" y="374"/>
      <point x="403" y="446"/>
      <point x="294" y="446" type="curve" smooth="yes"/>
      <point x="250" y="446"/>
      <point x="218" y="437"/>
      <point x="168" y="413" type="curve"/>
      <point x="224" y="602" type="line"/>
      <point x="278" y="591"/>
      <point x="320" y="586"/>
      <point x="355" y="586" type="curve" smooth="yes"/>
      <point x="421" y="586"/>
      <point x="480" y="607"/>
      <point x="512" y="642" type="curve" smooth="yes"/>
      <point x="530" y="662"/>
      <point x="540" y="679"/>
      <point x="540" y="692" type="curve" smooth="yes"/>
      <point x="540" y="698"/>
      <point x="536" y="704"/>
      <point x="532" y="704" type="curve" smooth="yes"/>
      <point x="531" y="704"/>
      <point x="528" y="703"/>
      <point x="522" y="700" type="curve"/>
      <point x="482" y="683"/>
      <point x="448" y="675"/>
      <point x="408" y="675" type="curve" smooth="yes"/>
      <point x="349" y="675"/>
      <point x="275" y="685"/>
      <point x="203" y="704" type="curve"/>
    </contour>
  </outline>
</glyph>
<glyph name="six" format="1">
  <advance width="556"/>
  <unicode hex="0036"/>
  <outline>
    <contour>
      <point x="158" y="335" type="curve"/>
      <point x="177" y="430"/>
      <point x="193" y="474"/>
      <point x="233" y="545" type="curve" smooth="yes"/>
      <point x="277" y="623"/>
      <point x="332" y="664"/>
      <point x="392" y="664" type="curve" smooth="yes"/>
      <point x="422" y="664"/>
      <point x="442" y="652"/>
      <point x="442" y="633" type="curve" smooth="yes"/>
      <point x="442" y="626"/>
      <point x="440" y="622"/>
      <point x="433" y="609" type="curve" smooth="yes"/>
      <point x="424" y="592"/>
      <point x="420" y="580"/>
      <point x="420" y="565" type="curve" smooth="yes"/>
      <point x="420" y="533"/>
      <point x="444" y="511"/>
      <point x="478" y="511" type="curve" smooth="yes"/>
      <point x="519" y="511"/>
      <point x="547" y="541"/>
      <point x="547" y="586" type="curve" smooth="yes"/>
      <point x="547" y="654"/>
      <point x="483" y="704"/>
      <point x="394" y="704" type="curve" smooth="yes"/>
      <point x="300" y="704"/>
      <point x="216" y="654"/>
      <point x="148" y="558" type="curve" smooth="yes"/>
      <point x="79" y="459"/>
      <point x="36" y="332"/>
      <point x="36" y="221" type="curve" smooth="yes"/>
      <point x="36" y="74"/>
      <point x="109" y="-15"/>
      <point x="231" y="-15" type="curve" smooth="yes"/>
      <point x="306" y="-15"/>
      <point x="373" y="15"/>
      <point x="421" y="68" type="curve" smooth="yes"/>
      <point x="465" y="118"/>
      <point x="492" y="190"/>
      <point x="492" y="256" type="curve" smooth="yes"/>
      <point x="492" y="358"/>
      <point x="423" y="429"/>
      <point x="323" y="429" type="curve" smooth="yes"/>
      <point x="253" y="429"/>
      <point x="199" y="398"/>
    </contour>
    <contour>
      <point x="290" y="371" type="curve" smooth="yes"/>
      <point x="352" y="371"/>
      <point x="387" y="327"/>
      <point x="387" y="250" type="curve" smooth="yes"/>
      <point x="387" y="123"/>
      <point x="319" y="26"/>
      <point x="231" y="26" type="curve" smooth="yes"/>
      <point x="167" y="26"/>
      <point x="129" y="73"/>
      <point x="129" y="153" type="curve" smooth="yes"/>
      <point x="129" y="277"/>
      <point x="198" y="371"/>
    </contour>
  </outline>
</glyph>
<glyph name="seven" format="1">
  <advance width="556"/>
  <unicode hex="0037"/>
  <outline>
    <contour>
      <point x="561" y="704" type="line"/>
      <point x="509" y="698"/>
      <point x="442" y="694"/>
      <point x="387" y="694" type="curve" smooth="yes"/>
      <point x="360" y="694"/>
      <point x="328" y="695"/>
      <point x="292" y="697" type="curve" smooth="yes"/>
      <point x="191" y="703" type="line"/>
      <point x="166" y="704" type="line"/>
      <point x="69" y="493" type="line"/>
      <point x="106" y="481" type="line"/>
      <point x="130" y="521" type="line" smooth="yes"/>
      <point x="178" y="600"/>
      <point x="196" y="609"/>
      <point x="301" y="609" type="curve" smooth="yes"/>
      <point x="470" y="609" type="line"/>
      <point x="361" y="453" type="line" smooth="yes"/>
      <point x="233" y="273"/>
      <point x="233" y="273"/>
      <point x="184" y="193" type="curve" smooth="yes"/>
      <point x="140" y="122"/>
      <point x="122" y="78"/>
      <point x="122" y="43" type="curve" smooth="yes"/>
      <point x="122" y="7"/>
      <point x="144" y="-15"/>
      <point x="180" y="-15" type="curve" smooth="yes"/>
      <point x="216" y="-15"/>
      <point x="235" y="3"/>
      <point x="248" y="50" type="curve" smooth="yes"/>
      <point x="298" y="238"/>
      <point x="328" y="303"/>
      <point x="467" y="528" type="curve" smooth="yes"/>
      <point x="561" y="674" type="line"/>
    </contour>
  </outline>
</glyph>
<glyph name="eight" format="1">
  <advance width="556"/>
  <unicode hex="0038"/>
  <outline>
    <contour>
      <point x="376" y="370" type="curve"/>
      <point x="422" y="392"/>
      <point x="443" y="404"/>
      <point x="461" y="418" type="curve" smooth="yes"/>
      <point x="504" y="451"/>
      <point x="527" y="497"/>
      <point x="527" y="548" type="curve" smooth="yes"/>
      <point x="527" y="639"/>
      <point x="450" y="704"/>
      <point x="343" y="704" type="curve" smooth="yes"/>
      <point x="214" y="704"/>
      <point x="114" y="610"/>
      <point x="114" y="490" type="curve" smooth="yes"/>
      <point x="114" y="429"/>
      <point x="135" y="390"/>
      <point x="189" y="351" type="curve"/>
      <point x="71" y="306"/>
      <point x="8" y="233"/>
      <point x="8" y="142" type="curve" smooth="yes"/>
      <point x="8" y="46"/>
      <point x="88" y="-15"/>
      <point x="216" y="-15" type="curve" smooth="yes"/>
      <point x="369" y="-15"/>
      <point x="480" y="79"/>
      <point x="480" y="209" type="curve" smooth="yes"/>
      <point x="480" y="246"/>
      <point x="468" y="281"/>
      <point x="446" y="311" type="curve" smooth="yes"/>
      <point x="431" y="331"/>
      <point x="413" y="346"/>
    </contour>
    <contour>
      <point x="333" y="393" type="curve"/>
      <point x="232" y="442"/>
      <point x="194" y="481"/>
      <point x="194" y="538" type="curve" smooth="yes"/>
      <point x="194" y="606"/>
      <point x="257" y="661"/>
      <point x="335" y="661" type="curve" smooth="yes"/>
      <point x="403" y="661"/>
      <point x="452" y="616"/>
      <point x="452" y="554" type="curve" smooth="yes"/>
      <point x="452" y="491"/>
      <point x="410" y="428"/>
      <point x="349" y="400" type="curve"/>
      <point x="345" y="399"/>
      <point x="338" y="396"/>
    </contour>
    <contour>
      <point x="227" y="324" type="curve"/>
      <point x="274" y="302"/>
      <point x="291" y="294"/>
      <point x="316" y="279" type="curve" smooth="yes"/>
      <point x="366" y="249"/>
      <point x="393" y="208"/>
      <point x="393" y="164" type="curve" smooth="yes"/>
      <point x="393" y="88"/>
      <point x="321" y="29"/>
      <point x="227" y="29" type="curve" smooth="yes"/>
      <point x="142" y="29"/>
      <point x="89" y="77"/>
      <point x="89" y="154" type="curve" smooth="yes"/>
      <point x="89" y="222"/>
      <point x="134" y="284"/>
      <point x="208" y="316" type="curve"/>
      <point x="210" y="317"/>
      <point x="216" y="319"/>
    </contour>
  </outline>
</glyph>
<glyph name="nine" format="1">
  <advance width="556"/>
  <unicode hex="0039"/>
  <outline>
    <contour>
      <point x="393" y="342" type="curve"/>
      <point x="376" y="264"/>
      <point x="359" y="215"/>
      <point x="329" y="159" type="curve" smooth="yes"/>
      <point x="281" y="69"/>
      <point x="228" y="27"/>
      <point x="160" y="27" type="curve" smooth="yes"/>
      <point x="129" y="27"/>
      <point x="110" y="39"/>
      <point x="110" y="57" type="curve" smooth="yes"/>
      <point x="110" y="63"/>
      <point x="112" y="67"/>
      <point x="120" y="79" type="curve"/>
      <point x="130" y="92"/>
      <point x="135" y="105"/>
      <point x="135" y="118" type="curve" smooth="yes"/>
      <point x="135" y="151"/>
      <point x="109" y="176"/>
      <point x="75" y="176" type="curve" smooth="yes"/>
      <point x="35" y="176"/>
      <point x="7" y="145"/>
      <point x="7" y="102" type="curve" smooth="yes"/>
      <point x="7" y="34"/>
      <point x="71" y="-15"/>
      <point x="160" y="-15" type="curve" smooth="yes"/>
      <point x="240" y="-15"/>
      <point x="313" y="21"/>
      <point x="375" y="90" type="curve" smooth="yes"/>
      <point x="462" y="186"/>
      <point x="519" y="332"/>
      <point x="519" y="454" type="curve" smooth="yes"/>
      <point x="519" y="610"/>
      <point x="444" y="704"/>
      <point x="320" y="704" type="curve" smooth="yes"/>
      <point x="247" y="704"/>
      <point x="177" y="671"/>
      <point x="131" y="614" type="curve" smooth="yes"/>
      <point x="86" y="559"/>
      <point x="60" y="489"/>
      <point x="60" y="424" type="curve" smooth="yes"/>
      <point x="60" y="329"/>
      <point x="134" y="257"/>
      <point x="230" y="257" type="curve" smooth="yes"/>
      <point x="296" y="257"/>
      <point x="347" y="284"/>
    </contour>
    <contour>
      <point x="319" y="662" type="curve" smooth="yes"/>
      <point x="383" y="662"/>
      <point x="424" y="611"/>
      <point x="424" y="531" type="curve" smooth="yes"/>
      <point x="424" y="407"/>
      <point x="356" y="316"/>
      <point x="264" y="316" type="curve" smooth="yes"/>
      <point x="201" y="316"/>
      <point x="166" y="359"/>
      <point x="166" y="434" type="curve" smooth="yes"/>
      <point x="166" y="493"/>
      <point x="180" y="546"/>
      <point x="208" y="591" type="curve" smooth="yes"/>
      <point x="237" y="639"/>
      <point x="273" y="662"/>
    </contour>
  </outline>
</glyph>
<glyph name="colon" format="1">
  <advance width="278"/>
  <unicode hex="003A"/>
  <outline>
    <contour>
      <point x="104" y="109" type="curve" smooth="yes"/>
      <point x="70" y="109"/>
      <point x="42" y="81"/>
      <point x="42" y="47" type="curve" smooth="yes"/>
      <point x="42" y="13"/>
      <point x="70" y="-15"/>
      <point x="103" y="-15" type="curve" smooth="yes"/>
      <point x="138" y="-15"/>
      <point x="166" y="12"/>
      <point x="166" y="47" type="curve" smooth="yes"/>
      <point x="166" y="81"/>
      <point x="138" y="109"/>
    </contour>
    <contour>
      <point x="192" y="463" type="curve" smooth="yes"/>
      <point x="158" y="463"/>
      <point x="130" y="435"/>
      <point x="130" y="401" type="curve" smooth="yes"/>
      <point x="130" y="367"/>
      <point x="158" y="339"/>
      <point x="191" y="339" type="curve" smooth="yes"/>
      <point x="226" y="339"/>
      <point x="254" y="366"/>
      <point x="254" y="401" type="curve" smooth="yes"/>
      <point x="254" y="435"/>
      <point x="226" y="463"/>
    </contour>
  </outline>
</glyph>
<glyph name="semicolon" format="1">
  <advance width="278"/>
  <unicode hex="003B"/>
  <outline>
    <contour>
      <point x="-1" y="-167" type="line"/>
      <point x="108" y="-124"/>
      <point x="176" y="-48"/>
      <point x="176" y="29" type="curve" smooth="yes"/>
      <point x="176" y="75"/>
      <point x="147" y="109"/>
      <point x="107" y="109" type="curve" smooth="yes"/>
      <point x="70" y="109"/>
      <point x="40" y="82"/>
      <point x="40" y="47" type="curve" smooth="yes"/>
      <point x="40" y="15"/>
      <point x="62" y="-6"/>
      <point x="96" y="-6" type="curve" smooth="yes"/>
      <point x="100" y="-6"/>
      <point x="106" y="-6"/>
      <point x="113" y="-5" type="curve"/>
      <point x="104" y="-57"/>
      <point x="61" y="-101"/>
      <point x="-14" y="-135" type="curve"/>
    </contour>
    <contour>
      <point x="199" y="463" type="curve" smooth="yes"/>
      <point x="165" y="463"/>
      <point x="137" y="435"/>
      <point x="137" y="401" type="curve" smooth="yes"/>
      <point x="137" y="367"/>
      <point x="165" y="339"/>
      <point x="198" y="339" type="curve" smooth="yes"/>
      <point x="233" y="339"/>
      <point x="261" y="366"/>
      <point x="261" y="401" type="curve" smooth="yes"/>
      <point x="261" y="435"/>
      <point x="233" y="463"/>
    </contour>
  </outline>
</glyph>
<glyph name="less" format="1">
  <advance width="606"/>
  <unicode hex="003C"/>
  <outline>
    <contour>
      <point x="543" y="438" type="line"/>
      <point x="543" y="523" type="line"/>
      <point x="34" y="291" type="line"/>
      <point x="34" y="215" type="line"/>
      <point x="543" y="-17" type="line"/>
      <point x="543" y="68" type="line"/>
      <point x="145" y="253" type="line"/>
    </contour>
  </outline>
</glyph>
<glyph name="equal" format="1">
  <advance width="606"/>
  <unicode hex="003D"/>
  <outline>
    <contour>
      <point x="540" y="192" type="line"/>
      <point x="36" y="192" type="line"/>
      <point x="36" y="112" type="line"/>
      <point x="540" y="112" type="line"/>
    </contour>
    <contour>
      <point x="540" y="394" type="line"/>
      <point x="36" y="394" type="line"/>
      <point x="36" y="314" type="line"/>
      <point x="540" y="314" type="line"/>
    </contour>
  </outline>
</glyph>
<glyph name="greater" format="1">
  <advance width="606"/>
  <unicode hex="003E"/>
  <outline>
    <contour>
      <point x="53" y="438" type="line"/>
      <point x="451" y="253" type="line"/>
      <point x="53" y="68" type="line"/>
      <point x="53" y="-17" type="line"/>
      <point x="562" y="215" type="line"/>
      <point x="562" y="291" type="line"/>
      <point x="53" y="523" type="line"/>
    </contour>
  </outline>
</glyph>
<glyph name="question" format="1">
  <advance width="444"/>
  <unicode hex="003F"/>
  <outline>
    <contour>
      <point x="290" y="310" type="line"/>
      <point x="282" y="285"/>
      <point x="279" y="277"/>
      <point x="272" y="267" type="curve" smooth="yes"/>
      <point x="259" y="249"/>
      <point x="236" y="237"/>
      <point x="212" y="237" type="curve" smooth="yes"/>
      <point x="184" y="237"/>
      <point x="167" y="256"/>
      <point x="167" y="286" type="curve" smooth="yes"/>
      <point x="167" y="317"/>
      <point x="186" y="343"/>
      <point x="234" y="374" type="curve" smooth="yes"/>
      <point x="307" y="421"/>
      <point x="307" y="421"/>
      <point x="334" y="445" type="curve" smooth="yes"/>
      <point x="392" y="494"/>
      <point x="417" y="540"/>
      <point x="417" y="598" type="curve" smooth="yes"/>
      <point x="417" y="680"/>
      <point x="361" y="737"/>
      <point x="281" y="737" type="curve" smooth="yes"/>
      <point x="183" y="737"/>
      <point x="113" y="659"/>
      <point x="113" y="550" type="curve" smooth="yes"/>
      <point x="113" y="544"/>
      <point x="113" y="537"/>
      <point x="114" y="526" type="curve"/>
      <point x="152" y="526" type="line"/>
      <point x="152" y="577"/>
      <point x="156" y="602"/>
      <point x="168" y="626" type="curve" smooth="yes"/>
      <point x="191" y="670"/>
      <point x="232" y="696"/>
      <point x="279" y="696" type="curve" smooth="yes"/>
      <point x="321" y="696"/>
      <point x="354" y="667"/>
      <point x="354" y="629" type="curve" smooth="yes"/>
      <point x="354" y="591"/>
      <point x="333" y="561"/>
      <point x="276" y="517" type="curve" smooth="yes"/>
      <point x="159" y="427"/>
      <point x="117" y="370"/>
      <point x="117" y="299" type="curve" smooth="yes"/>
      <point x="117" y="239"/>
      <point x="155" y="199"/>
      <point x="211" y="199" type="curve" smooth="yes"/>
      <point x="268" y="199"/>
      <point x="314" y="241"/>
      <point x="326" y="304" type="curve"/>
    </contour>
    <contour>
      <point x="164" y="109" type="curve" smooth="yes"/>
      <point x="130" y="109"/>
      <point x="102" y="81"/>
      <point x="102" y="47" type="curve" smooth="yes"/>
      <point x="102" y="13"/>
      <point x="130" y="-15"/>
      <point x="163" y="-15" type="curve" smooth="yes"/>
      <point x="198" y="-15"/>
      <point x="226" y="12"/>
      <point x="226" y="47" type="curve" smooth="yes"/>
      <point x="226" y="81"/>
      <point x="198" y="109"/>
    </contour>
  </outline>
</glyph>
<glyph name="at" format="1">
  <advance width="747"/>
  <unicode hex="0040"/>
  <outline>
    <contour>
      <point x="641" y="188" type="line"/>
      <point x="585" y="89"/>
      <point x="502" y="37"/>
      <point x="401" y="37" type="curve" smooth="yes"/>
      <point x="217" y="37"/>
      <point x="84" y="173"/>
      <point x="84" y="361" type="curve" smooth="yes"/>
      <point x="84" y="549"/>
      <point x="216" y="685"/>
      <point x="399" y="685" type="curve" smooth="yes"/>
      <point x="473" y="685"/>
      <point x="535" y="662"/>
      <point x="587" y="616" type="curve" smooth="yes"/>
      <point x="643" y="567"/>
      <point x="676" y="496"/>
      <point x="676" y="429" type="curve" smooth="yes"/>
      <point x="676" y="373"/>
      <point x="652" y="306"/>
      <point x="616" y="260" type="curve" smooth="yes"/>
      <point x="582" y="219"/>
      <point x="541" y="191"/>
      <point x="513" y="191" type="curve" smooth="yes"/>
      <point x="497" y="191"/>
      <point x="486" y="201"/>
      <point x="486" y="215" type="curve" smooth="yes"/>
      <point x="486" y="223"/>
      <point x="487" y="233"/>
      <point x="490" y="245" type="curve" smooth="yes"/>
      <point x="563" y="534" type="line"/>
      <point x="475" y="534" type="line"/>
      <point x="459" y="478" type="line"/>
      <point x="447" y="519"/>
      <point x="419" y="543"/>
      <point x="381" y="543" type="curve" smooth="yes"/>
      <point x="337" y="543"/>
      <point x="283" y="514"/>
      <point x="244" y="471" type="curve" smooth="yes"/>
      <point x="203" y="424"/>
      <point x="180" y="363"/>
      <point x="180" y="302" type="curve" smooth="yes"/>
      <point x="180" y="260"/>
      <point x="191" y="224"/>
      <point x="213" y="198" type="curve" smooth="yes"/>
      <point x="236" y="171"/>
      <point x="272" y="153"/>
      <point x="305" y="153" type="curve" smooth="yes"/>
      <point x="345" y="153"/>
      <point x="374" y="174"/>
      <point x="413" y="232" type="curve"/>
      <point x="412" y="224"/>
      <point x="412" y="219"/>
      <point x="412" y="212" type="curve" smooth="yes"/>
      <point x="412" y="173"/>
      <point x="440" y="147"/>
      <point x="481" y="147" type="curve" smooth="yes"/>
      <point x="521" y="147"/>
      <point x="567" y="165"/>
      <point x="610" y="198" type="curve" smooth="yes"/>
      <point x="683" y="253"/>
      <point x="728" y="343"/>
      <point x="728" y="435" type="curve" smooth="yes"/>
      <point x="728" y="601"/>
      <point x="578" y="736"/>
      <point x="393" y="736" type="curve" smooth="yes"/>
      <point x="299" y="736"/>
      <point x="203" y="697"/>
      <point x="137" y="632" type="curve" smooth="yes"/>
      <point x="67" y="563"/>
      <point x="28" y="464"/>
      <point x="28" y="356" type="curve" smooth="yes"/>
      <point x="28" y="147"/>
      <point x="187" y="-14"/>
      <point x="393" y="-14" type="curve" smooth="yes"/>
      <point x="475" y="-14"/>
      <point x="550" y="14"/>
      <point x="610" y="66" type="curve" smooth="yes"/>
      <point x="653" y="105"/>
      <point x="683" y="144"/>
      <point x="702" y="188" type="curve"/>
    </contour>
    <contour>
      <point x="395" y="502" type="curve" smooth="yes"/>
      <point x="423" y="502"/>
      <point x="440" y="474"/>
      <point x="440" y="430" type="curve" smooth="yes"/>
      <point x="440" y="391"/>
      <point x="425" y="327"/>
      <point x="404" y="280" type="curve" smooth="yes"/>
      <point x="380" y="225"/>
      <point x="349" y="193"/>
      <point x="318" y="193" type="curve" smooth="yes"/>
      <point x="288" y="193"/>
      <point x="270" y="222"/>
      <point x="270" y="271" type="curve" smooth="yes"/>
      <point x="270" y="327"/>
      <point x="295" y="403"/>
      <point x="332" y="460" type="curve" smooth="yes"/>
      <point x="349" y="487"/>
      <point x="372" y="502"/>
    </contour>
  </outline>
</glyph>
<glyph name="D" format="1">
  <advance width="778"/>
  <unicode hex="0044"/>
  <outline>
    <contour>
      <point x="-38" y="0" type="line"/>
      <point x="264" y="0" type="line" smooth="yes"/>
      <point x="405" y="0"/>
      <point x="490" y="22"/>
      <point x="560" y="77" type="curve" smooth="yes"/>
      <point x="667" y="162"/>
      <point x="735" y="301"/>
      <point x="735" y="435" type="curve" smooth="yes"/>
      <point x="735" y="537"/>
      <point x="698" y="620"/>
      <point x="631" y="670" type="curve" smooth="yes"/>
      <point x="581" y="708"/>
      <point x="518" y="722"/>
      <point x="406" y="722" type="curve" smooth="yes"/>
      <point x="116" y="722" type="line"/>
      <point x="110" y="675" type="line"/>
      <point x="136" y="675" type="line" smooth="yes"/>
      <point x="201" y="675"/>
      <point x="215" y="670"/>
      <point x="215" y="648" type="curve" smooth="yes"/>
      <point x="215" y="640"/>
      <point x="211" y="619"/>
      <point x="206" y="599" type="curve" smooth="yes"/>
      <point x="78" y="123" type="line" smooth="yes"/>
      <point x="64" y="69"/>
      <point x="63" y="69"/>
      <point x="55" y="61" type="curve" smooth="yes"/>
      <point x="44" y="51"/>
      <point x="21" y="47"/>
      <point x="-28" y="47" type="curve" smooth="yes"/>
      <point x="-33" y="47" type="line"/>
    </contour>
    <contour>
      <point x="227" y="47" type="line" smooth="yes"/>
      <point x="196" y="47"/>
      <point x="181" y="56"/>
      <point x="181" y="76" type="curve" smooth="yes"/>
      <point x="181" y="84"/>
      <point x="183" y="98"/>
      <point x="187" y="110" type="curve"/>
      <point x="320" y="610" type="line" smooth="yes"/>
      <point x="336" y="669"/>
      <point x="343" y="675"/>
      <point x="396" y="675" type="curve" smooth="yes"/>
      <point x="426" y="675" type="line" smooth="yes"/>
      <point x="486" y="675"/>
      <point x="537" y="659"/>
      <point x="566" y="631" type="curve" smooth="yes"/>
      <point x="595" y="602"/>
      <point x="614" y="547"/>
      <point x="614" y="489" type="curve" smooth="yes"/>
      <point x="614" y="352"/>
      <point x="546" y="176"/>
      <point x="465" y="104" type="curve" smooth="yes"/>
      <point x="420" y="65"/>
      <point x="356" y="47"/>
      <point x="259" y="47" type="curve" smooth="yes"/>
    </contour>
  </outline>
</glyph>
<glyph name="F" format="1">
  <advance width="667"/>
  <unicode hex="0046"/>
  <outline>
    <contour>
      <point x="698" y="722" type="line"/>
      <point x="120" y="722" type="line"/>
      <point x="114" y="675" type="line"/>
      <point x="140" y="675" type="line" smooth="yes"/>
      <point x="205" y="675"/>
      <point x="219" y="670"/>
      <point x="219" y="648" type="curve" smooth="yes"/>
      <point x="219" y="640"/>
      <point x="215" y="619"/>
      <point x="210" y="599" type="curve" smooth="yes"/>
      <point x="82" y="123" type="line" smooth="yes"/>
      <point x="68" y="70"/>
      <point x="67" y="69"/>
      <point x="59" y="61" type="curve" smooth="yes"/>
      <point x="48" y="51"/>
      <point x="25" y="47"/>
      <point x="-24" y="47" type="curve" smooth="yes"/>
      <point x="-29" y="47" type="line"/>
      <point x="-34" y="0" type="line"/>
      <point x="284" y="0" type="line"/>
      <point x="289" y="47" type="line"/>
      <point x="263" y="47" type="line" smooth="yes"/>
      <point x="198" y="47"/>
      <point x="184" y="52"/>
      <point x="184" y="74" type="curve" smooth="yes"/>
      <point x="184" y="82"/>
      <point x="184" y="82"/>
      <point x="194" y="123" type="curve" smooth="yes"/>
      <point x="256" y="354" type="line"/>
      <point x="278" y="354" type="line" smooth="yes"/>
      <point x="352" y="354"/>
      <point x="389" y="324"/>
      <point x="389" y="263" type="curve" smooth="yes"/>
      <point x="389" y="241"/>
      <point x="387" y="226"/>
      <point x="380" y="194" type="curve"/>
      <point x="425" y="186" type="line"/>
      <point x="514" y="520" type="line"/>
      <point x="469" y="526" type="line"/>
      <point x="440" y="438"/>
      <point x="388" y="401"/>
      <point x="291" y="401" type="curve" smooth="yes"/>
      <point x="268" y="401" type="line"/>
      <point x="323" y="606" type="line" smooth="yes"/>
      <point x="340" y="670"/>
      <point x="348" y="675"/>
      <point x="423" y="675" type="curve" smooth="yes"/>
      <point x="475" y="675" type="line" smooth="yes"/>
      <point x="518" y="675"/>
      <point x="552" y="664"/>
      <point x="577" y="642" type="curve" smooth="yes"/>
      <point x="605" y="617"/>
      <point x="614" y="585"/>
      <point x="614" y="516" type="curve" smooth="yes"/>
      <point x="614" y="481" type="line"/>
      <point x="659" y="481" type="line"/>
    </contour>
  </outline>
</glyph>
<glyph name="I" format="1">
  <advance width="407"/>
  <unicode hex="0049"/>
  <outline>
    <contour>
      <point x="283" y="47" type="line"/>
      <point x="261" y="47" type="line" smooth="yes"/>
      <point x="195" y="47"/>
      <point x="181" y="52"/>
      <point x="181" y="75" type="curve" smooth="yes"/>
      <point x="181" y="84"/>
      <point x="182" y="89"/>
      <point x="191" y="123" type="curve" smooth="yes"/>
      <point x="319" y="599" type="line" smooth="yes"/>
      <point x="333" y="651"/>
      <point x="333" y="652"/>
      <point x="342" y="661" type="curve" smooth="yes"/>
      <point x="354" y="672"/>
      <point x="368" y="674"/>
      <point x="426" y="675" type="curve"/>
      <point x="431" y="722" type="line"/>
      <point x="121" y="722" type="line"/>
      <point x="115" y="675" type="line"/>
      <point x="137" y="675" type="line" smooth="yes"/>
      <point x="203" y="675"/>
      <point x="217" y="670"/>
      <point x="217" y="648" type="curve" smooth="yes"/>
      <point x="217" y="640"/>
      <point x="214" y="626"/>
      <point x="207" y="599" type="curve" smooth="yes"/>
      <point x="79" y="123" type="line" smooth="yes"/>
      <point x="66" y="73"/>
      <point x="65" y="70"/>
      <point x="56" y="61" type="curve" smooth="yes"/>
      <point x="44" y="50"/>
      <point x="31" y="48"/>
      <point x="-28" y="47" type="curve"/>
      <point x="-33" y="0" type="line"/>
      <point x="277" y="0" type="line"/>
    </contour>
  </outline>
</glyph>
<glyph name="L" format="1">
  <advance width="667"/>
  <unicode hex="004C"/>
  <outline>
    <contour>
      <point x="589" y="253" type="line"/>
      <point x="501" y="92"/>
      <point x="437" y="47"/>
      <point x="295" y="47" type="curve" smooth="yes"/>
      <point x="253" y="47" type="line" smooth="yes"/>
      <point x="201" y="47"/>
      <point x="183" y="55"/>
      <point x="183" y="79" type="curve" smooth="yes"/>
      <point x="183" y="92"/>
      <point x="184" y="97"/>
      <point x="194" y="134" type="curve" smooth="yes"/>
      <point x="319" y="599" type="line" smooth="yes"/>
      <point x="333" y="653"/>
      <point x="333" y="653"/>
      <point x="342" y="661" type="curve"/>
      <point x="352" y="671"/>
      <point x="376" y="675"/>
      <point x="425" y="675" type="curve" smooth="yes"/>
      <point x="447" y="675" type="line"/>
      <point x="453" y="722" type="line"/>
      <point x="117" y="722" type="line"/>
      <point x="111" y="675" type="line"/>
      <point x="137" y="675" type="line" smooth="yes"/>
      <point x="202" y="675"/>
      <point x="216" y="670"/>
      <point x="216" y="648" type="curve" smooth="yes"/>
      <point x="216" y="640"/>
      <point x="212" y="619"/>
      <point x="207" y="599" type="curve" smooth="yes"/>
      <point x="79" y="123" type="line" smooth="yes"/>
      <point x="65" y="70"/>
      <point x="64" y="69"/>
      <point x="56" y="61" type="curve" smooth="yes"/>
      <point x="45" y="51"/>
      <point x="22" y="47"/>
      <point x="-27" y="47" type="curve" smooth="yes"/>
      <point x="-32" y="47" type="line"/>
      <point x="-37" y="0" type="line"/>
      <point x="552" y="0" type="line"/>
      <point x="630" y="245" type="line"/>
    </contour>
  </outline>
</glyph>
<glyph name="M" format="1">
  <advance width="944"/>
  <unicode hex="004D"/>
  <outline>
    <contour>
      <point x="363" y="722" type="line"/>
      <point x="121" y="722" type="line"/>
      <point x="116" y="675" type="line"/>
      <point x="142" y="675" type="line" smooth="yes"/>
      <point x="207" y="675"/>
      <point x="221" y="670"/>
      <point x="221" y="648" type="curve" smooth="yes"/>
      <point x="221" y="640"/>
      <point x="217" y="622"/>
      <point x="211" y="599" type="curve" smooth="yes"/>
      <point x="109" y="217" type="line" smooth="yes"/>
      <point x="71" y="75"/>
      <point x="51" y="49"/>
      <point x="-21" y="47" type="curve"/>
      <point x="-26" y="0" type="line"/>
      <point x="224" y="0" type="line"/>
      <point x="229" y="47" type="line"/>
      <point x="169" y="47"/>
      <point x="140" y="65"/>
      <point x="140" y="102" type="curve" smooth="yes"/>
      <point x="140" y="124"/>
      <point x="141" y="128"/>
      <point x="163" y="217" type="curve" smooth="yes"/>
      <point x="266" y="602" type="line"/>
      <point x="328" y="0" type="line"/>
      <point x="364" y="0" type="line"/>
      <point x="750" y="616" type="line"/>
      <point x="618" y="123" type="line" smooth="yes"/>
      <point x="603" y="69"/>
      <point x="603" y="69"/>
      <point x="595" y="61" type="curve" smooth="yes"/>
      <point x="584" y="51"/>
      <point x="560" y="47"/>
      <point x="511" y="47" type="curve" smooth="yes"/>
      <point x="507" y="47" type="line"/>
      <point x="502" y="0" type="line"/>
      <point x="819" y="0" type="line"/>
      <point x="825" y="47" type="line"/>
      <point x="799" y="47" type="line" smooth="yes"/>
      <point x="734" y="47"/>
      <point x="720" y="52"/>
      <point x="720" y="74" type="curve" smooth="yes"/>
      <point x="720" y="81"/>
      <point x="724" y="103"/>
      <point x="730" y="123" type="curve" smooth="yes"/>
      <point x="857" y="599" type="line" smooth="yes"/>
      <point x="872" y="654"/>
      <point x="872" y="654"/>
      <point x="880" y="661" type="curve" smooth="yes"/>
      <point x="891" y="671"/>
      <point x="914" y="675"/>
      <point x="964" y="675" type="curve" smooth="yes"/>
      <point x="968" y="675" type="line"/>
      <point x="973" y="722" type="line"/>
      <point x="757" y="722" type="line"/>
      <point x="416" y="182" type="line"/>
    </contour>
  </outline>
</glyph>
<glyph name="P" format="1">
  <advance width="667"/>
  <unicode hex="0050"/>
  <outline>
    <contour>
      <point x="247" y="318" type="line"/>
      <point x="265" y="318" type="line" smooth="yes"/>
      <point x="451" y="318"/>
      <point x="486" y="323"/>
      <point x="554" y="359" type="curve" smooth="yes"/>
      <point x="624" y="397"/>
      <point x="663" y="462"/>
      <point x="663" y="541" type="curve" smooth="yes"/>
      <point x="663" y="603"/>
      <point x="637" y="653"/>
      <point x="589" y="686" type="curve" smooth="yes"/>
      <point x="552" y="711"/>
      <point x="499" y="722"/>
      <point x="416" y="722" type="curve" smooth="yes"/>
      <point x="121" y="722" type="line"/>
      <point x="115" y="675" type="line"/>
      <point x="141" y="675" type="line" smooth="yes"/>
      <point x="206" y="675"/>
      <point x="220" y="670"/>
      <point x="220" y="648" type="curve" smooth="yes"/>
      <point x="220" y="640"/>
      <point x="216" y="619"/>
      <point x="211" y="599" type="curve" smooth="yes"/>
      <point x="83" y="123" type="line" smooth="yes"/>
      <point x="69" y="69"/>
      <point x="68" y="69"/>
      <point x="60" y="61" type="curve" smooth="yes"/>
      <point x="49" y="51"/>
      <point x="26" y="47"/>
      <point x="-23" y="47" type="curve" smooth="yes"/>
      <point x="-28" y="47" type="line"/>
      <point x="-33" y="0" type="line"/>
      <point x="285" y="0" type="line"/>
      <point x="290" y="47" type="line"/>
      <point x="264" y="47" type="line" smooth="yes"/>
      <point x="199" y="47"/>
      <point x="185" y="52"/>
      <point x="185" y="74" type="curve" smooth="yes"/>
      <point x="185" y="82"/>
      <point x="185" y="82"/>
      <point x="195" y="123" type="curve" smooth="yes"/>
    </contour>
    <contour>
      <point x="260" y="365" type="line"/>
      <point x="330" y="627" type="line" smooth="yes"/>
      <point x="340" y="665"/>
      <point x="353" y="675"/>
      <point x="394" y="675" type="curve" smooth="yes"/>
      <point x="406" y="675" type="line" smooth="yes"/>
      <point x="511" y="675"/>
      <point x="551" y="641"/>
      <point x="551" y="552" type="curve" smooth="yes"/>
      <point x="551" y="503"/>
      <point x="535" y="456"/>
      <point x="508" y="422" type="curve" smooth="yes"/>
      <point x="482" y="390"/>
      <point x="446" y="372"/>
      <point x="391" y="367" type="curve"/>
      <point x="377" y="365"/>
      <point x="377" y="365"/>
      <point x="279" y="365" type="curve" smooth="yes"/>
    </contour>
  </outline>
</glyph>
<glyph name="Q" format="1">
  <advance width="778"/>
  <unicode hex="0051"/>
  <outline>
    <contour>
      <point x="498" y="27" type="line"/>
      <point x="569" y="78"/>
      <point x="609" y="116"/>
      <point x="644" y="167" type="curve" smooth="yes"/>
      <point x="704" y="254"/>
      <point x="735" y="350"/>
      <point x="735" y="447" type="curve" smooth="yes"/>
      <point x="735" y="542"/>
      <point x="708" y="611"/>
      <point x="651" y="663" type="curve" smooth="yes"/>
      <point x="599" y="711"/>
      <point x="529" y="737"/>
      <point x="452" y="737" type="curve" smooth="yes"/>
      <point x="234" y="737"/>
      <point x="40" y="520"/>
      <point x="40" y="278" type="curve" smooth="yes"/>
      <point x="40" y="96"/>
      <point x="147" y="-15"/>
      <point x="323" y="-15" type="curve" smooth="yes"/>
      <point x="347" y="-15"/>
      <point x="364" y="-13"/>
      <point x="389" y="-8" type="curve"/>
      <point x="386" y="-25"/>
      <point x="385" y="-42"/>
      <point x="385" y="-51" type="curve" smooth="yes"/>
      <point x="385" y="-131"/>
      <point x="433" y="-188"/>
      <point x="500" y="-188" type="curve" smooth="yes"/>
      <point x="537" y="-188"/>
      <point x="578" y="-169"/>
      <point x="605" y="-139" type="curve" smooth="yes"/>
      <point x="623" y="-119"/>
      <point x="639" y="-95"/>
      <point x="658" y="-60" type="curve"/>
      <point x="623" y="-38" type="line"/>
      <point x="601" y="-84"/>
      <point x="574" y="-111"/>
      <point x="548" y="-111" type="curve" smooth="yes"/>
      <point x="539" y="-111"/>
      <point x="530" y="-107"/>
      <point x="524" y="-102" type="curve"/>
      <point x="504" y="-82"/>
      <point x="499" y="-61"/>
      <point x="498" y="5" type="curve" smooth="yes"/>
    </contour>
    <contour>
      <point x="485" y="116" type="curve"/>
      <point x="475" y="213"/>
      <point x="420" y="267"/>
      <point x="333" y="267" type="curve" smooth="yes"/>
      <point x="247" y="267"/>
      <point x="186" y="207"/>
      <point x="186" y="123" type="curve" smooth="yes"/>
      <point x="186" y="106"/>
      <point x="188" y="95"/>
      <point x="195" y="72" type="curve"/>
      <point x="167" y="107"/>
      <point x="157" y="141"/>
      <point x="157" y="200" type="curve" smooth="yes"/>
      <point x="157" y="319"/>
      <point x="198" y="464"/>
      <point x="260" y="564" type="curve" smooth="yes"/>
      <point x="311" y="646"/>
      <point x="382" y="693"/>
      <point x="455" y="693" type="curve" smooth="yes"/>
      <point x="506" y="693"/>
      <point x="555" y="672"/>
      <point x="580" y="640" type="curve" smooth="yes"/>
      <point x="603" y="612"/>
      <point x="615" y="564"/>
      <point x="615" y="505" type="curve" smooth="yes"/>
      <point x="615" y="375"/>
      <point x="565" y="226"/>
    </contour>
    <contour>
      <point x="396" y="45" type="curve"/>
      <point x="366" y="33"/>
      <point x="346" y="29"/>
      <point x="321" y="29" type="curve" smooth="yes"/>
      <point x="259" y="29"/>
      <point x="223" y="62"/>
      <point x="223" y="118" type="curve" smooth="yes"/>
      <point x="223" y="175"/>
      <point x="264" y="218"/>
      <point x="318" y="218" type="curve" smooth="yes"/>
      <point x="371" y="218"/>
      <point x="405" y="178"/>
      <point x="405" y="117" type="curve" smooth="yes"/>
      <point x="405" y="94"/>
      <point x="404" y="89"/>
    </contour>
  </outline>
</glyph>
<glyph name="R" format="1">
  <advance width="741"/>
  <unicode hex="0052"/>
  <outline>
    <contour>
      <point x="248" y="350" type="line"/>
      <point x="317" y="350" type="line" smooth="yes"/>
      <point x="401" y="350"/>
      <point x="433" y="325"/>
      <point x="433" y="260" type="curve" smooth="yes"/>
      <point x="433" y="248"/>
      <point x="432" y="227"/>
      <point x="430" y="206" type="curve" smooth="yes"/>
      <point x="424" y="130"/>
      <point x="424" y="125"/>
      <point x="424" y="106" type="curve" smooth="yes"/>
      <point x="424" y="34"/>
      <point x="467" y="-15"/>
      <point x="530" y="-15" type="curve" smooth="yes"/>
      <point x="594" y="-15"/>
      <point x="634" y="26"/>
      <point x="673" y="132" type="curve"/>
      <point x="637" y="147" type="line"/>
      <point x="612" y="76"/>
      <point x="595" y="54"/>
      <point x="567" y="54" type="curve" smooth="yes"/>
      <point x="546" y="54"/>
      <point x="537" y="73"/>
      <point x="537" y="115" type="curve" smooth="yes"/>
      <point x="538" y="166" type="line"/>
      <point x="539" y="179"/>
      <point x="539" y="191"/>
      <point x="539" y="202" type="curve" smooth="yes"/>
      <point x="539" y="289"/>
      <point x="509" y="337"/>
      <point x="436" y="364" type="curve"/>
      <point x="514" y="373"/>
      <point x="553" y="382"/>
      <point x="589" y="400" type="curve" smooth="yes"/>
      <point x="651" y="432"/>
      <point x="691" y="493"/>
      <point x="691" y="558" type="curve" smooth="yes"/>
      <point x="691" y="617"/>
      <point x="660" y="666"/>
      <point x="605" y="694" type="curve" smooth="yes"/>
      <point x="566" y="714"/>
      <point x="517" y="722"/>
      <point x="433" y="722" type="curve" smooth="yes"/>
      <point x="113" y="722" type="line"/>
      <point x="107" y="675" type="line"/>
      <point x="133" y="675" type="line" smooth="yes"/>
      <point x="198" y="675"/>
      <point x="212" y="670"/>
      <point x="212" y="648" type="curve" smooth="yes"/>
      <point x="212" y="640"/>
      <point x="208" y="619"/>
      <point x="203" y="599" type="curve" smooth="yes"/>
      <point x="75" y="123" type="line" smooth="yes"/>
      <point x="61" y="70"/>
      <point x="60" y="69"/>
      <point x="52" y="61" type="curve" smooth="yes"/>
      <point x="41" y="51"/>
      <point x="18" y="47"/>
      <point x="-31" y="47" type="curve" smooth="yes"/>
      <point x="-36" y="47" type="line"/>
      <point x="-41" y="0" type="line"/>
      <point x="277" y="0" type="line"/>
      <point x="282" y="47" type="line"/>
      <point x="256" y="47" type="line" smooth="yes"/>
      <point x="191" y="47"/>
      <point x="177" y="52"/>
      <point x="177" y="74" type="curve" smooth="yes"/>
      <point x="177" y="82"/>
      <point x="177" y="82"/>
      <point x="187" y="123" type="curve" smooth="yes"/>
    </contour>
    <contour>
      <point x="260" y="397" type="line"/>
      <point x="319" y="615" type="line" smooth="yes"/>
      <point x="333" y="666"/>
      <point x="343" y="675"/>
      <point x="390" y="675" type="curve" smooth="yes"/>
      <point x="439" y="675" type="line" smooth="yes"/>
      <point x="523" y="675"/>
      <point x="571" y="635"/>
      <point x="571" y="565" type="curve" smooth="yes"/>
      <point x="571" y="504"/>
      <point x="543" y="456"/>
      <point x="489" y="424" type="curve" smooth="yes"/>
      <point x="452" y="402"/>
      <point x="422" y="397"/>
      <point x="338" y="397" type="curve" smooth="yes"/>
    </contour>
  </outline>
</glyph>
<glyph name="V" format="1">
  <advance width="704"/>
  <unicode hex="0056"/>
  <outline>
    <contour>
      <point x="334" y="155" type="line"/>
      <point x="247" y="591" type="line" smooth="yes"/>
      <point x="242" y="614"/>
      <point x="239" y="634"/>
      <point x="239" y="643" type="curve" smooth="yes"/>
      <point x="239" y="669"/>
      <point x="250" y="675"/>
      <point x="299" y="675" type="curve" smooth="yes"/>
      <point x="333" y="675" type="line"/>
      <point x="338" y="722" type="line"/>
      <point x="43" y="722" type="line"/>
      <point x="36" y="675" type="line"/>
      <point x="64" y="675" type="line" smooth="yes"/>
      <point x="112" y="675"/>
      <point x="126" y="657"/>
      <point x="142" y="577" type="curve" smooth="yes"/>
      <point x="259" y="-15" type="line"/>
      <point x="296" y="-15" type="line"/>
      <point x="593" y="513" type="line" smooth="yes"/>
      <point x="671" y="645"/>
      <point x="696" y="668"/>
      <point x="767" y="675" type="curve"/>
      <point x="772" y="722" type="line"/>
      <point x="500" y="722" type="line"/>
      <point x="495" y="675" type="line"/>
      <point x="513" y="675" type="line" smooth="yes"/>
      <point x="566" y="675"/>
      <point x="588" y="663"/>
      <point x="588" y="634" type="curve" smooth="yes"/>
      <point x="588" y="617"/>
      <point x="580" y="596"/>
      <point x="557" y="556" type="curve" smooth="yes"/>
    </contour>
  </outline>
</glyph>
<glyph name="W" format="1">
  <advance width="926"/>
  <unicode hex="0057"/>
  <outline>
    <contour>
      <point x="630" y="196" type="line"/>
      <point x="576" y="621" type="line" smooth="yes"/>
      <point x="575" y="631"/>
      <point x="574" y="639"/>
      <point x="574" y="648" type="curve" smooth="yes"/>
      <point x="574" y="669"/>
      <point x="586" y="675"/>
      <point x="635" y="675" type="curve" smooth="yes"/>
      <point x="654" y="675" type="line"/>
      <point x="659" y="722" type="line"/>
      <point x="381" y="722" type="line"/>
      <point x="376" y="675" type="line"/>
      <point x="389" y="675" type="line" smooth="yes"/>
      <point x="452" y="675"/>
      <point x="458" y="672"/>
      <point x="464" y="629" type="curve" smooth="yes"/>
      <point x="471" y="579" type="line"/>
      <point x="303" y="196" type="line"/>
      <point x="249" y="599" type="line" smooth="yes"/>
      <point x="244" y="634"/>
      <point x="244" y="639"/>
      <point x="244" y="645" type="curve" smooth="yes"/>
      <point x="244" y="667"/>
      <point x="259" y="675"/>
      <point x="301" y="675" type="curve" smooth="yes"/>
      <point x="319" y="675" type="line"/>
      <point x="325" y="722" type="line"/>
      <point x="58" y="722" type="line"/>
      <point x="53" y="675" type="line"/>
      <point x="79" y="675" type="line" smooth="yes"/>
      <point x="101" y="675"/>
      <point x="118" y="670"/>
      <point x="127" y="659" type="curve"/>
      <point x="134" y="652"/>
      <point x="141" y="624"/>
      <point x="146" y="587" type="curve" smooth="yes"/>
      <point x="225" y="-15" type="line"/>
      <point x="260" y="-15" type="line"/>
      <point x="487" y="490" type="line"/>
      <point x="557" y="-15" type="line"/>
      <point x="595" y="-15" type="line"/>
      <point x="833" y="532" type="line" smooth="yes"/>
      <point x="880" y="638"/>
      <point x="900" y="660"/>
      <point x="968" y="675" type="curve"/>
      <point x="973" y="722" type="line"/>
      <point x="740" y="722" type="line"/>
      <point x="735" y="675" type="line"/>
      <point x="752" y="675" type="line" smooth="yes"/>
      <point x="795" y="675"/>
      <point x="816" y="665"/>
      <point x="816" y="644" type="curve" smooth="yes"/>
      <point x="816" y="631"/>
      <point x="809" y="610"/>
      <point x="793" y="572" type="curve" smooth="yes"/>
    </contour>
  </outline>
</glyph>
<glyph name="bracketleft" format="1">
  <advance width="333"/>
  <unicode hex="005B"/>
  <outline>
    <contour>
      <point x="61" y="-76" type="line"/>
      <point x="266" y="689" type="line"/>
      <point x="401" y="689" type="line"/>
      <point x="410" y="722" type="line"/>
      <point x="190" y="722" type="line"/>
      <point x="-33" y="-108" type="line"/>
      <point x="198" y="-108" type="line"/>
      <point x="207" y="-76" type="line"/>
    </contour>
  </outline>
</glyph>
<glyph name="bracketright" format="1">
  <advance width="333"/>
  <unicode hex="005D"/>
  <outline>
    <contour>
      <point x="265" y="690" type="line"/>
      <point x="60" y="-75" type="line"/>
      <point x="-74" y="-75" type="line"/>
      <point x="-83" y="-108" type="line"/>
      <point x="136" y="-108" type="line"/>
      <point x="359" y="722" type="line"/>
      <point x="128" y="722" type="line"/>
      <point x="119" y="690" type="line"/>
    </contour>
  </outline>
</glyph>
<glyph name="underscore" format="1">
  <advance width="500"/>
  <unicode hex="005F"/>
  <outline>
    <contour>
      <point x="0" y="-81" type="line"/>
      <point x="0" y="-123" type="line"/>
      <point x="500" y="-123" type="line"/>
      <point x="500" y="-81" type="line"/>
    </contour>
  </outline>
</glyph>
<glyph name="grave" format="1">
  <advance width="333"/>
  <unicode hex="0060"/>
  <outline>
    <contour>
      <point x="263" y="519" type="line"/>
      <point x="150" y="663" type="line" smooth="yes"/>
      <point x="132" y="687"/>
      <point x="126" y="691"/>
      <point x="112" y="691" type="curve" smooth="yes"/>
      <point x="92" y="691"/>
      <point x="73" y="672"/>
      <point x="73" y="652" type="curve" smooth="yes"/>
      <point x="73" y="643"/>
      <point x="79" y="633"/>
      <point x="88" y="626" type="curve" smooth="yes"/>
      <point x="222" y="519" type="line"/>
    </contour>
  </outline>
</glyph>
<glyph name="b" format="1">
  <advance width="556"/>
  <unicode hex="0062"/>
  <outline>
    <contour>
      <point x="290" y="737" type="line"/>
      <point x="98" y="722" type="line"/>
      <point x="94" y="686" type="line"/>
      <point x="118" y="686" type="line" smooth="yes"/>
      <point x="159" y="686"/>
      <point x="175" y="677"/>
      <point x="175" y="654" type="curve" smooth="yes"/>
      <point x="175" y="646"/>
      <point x="172" y="633"/>
      <point x="166" y="611" type="curve" smooth="yes"/>
      <point x="46" y="207" type="line" smooth="yes"/>
      <point x="37" y="176"/>
      <point x="32" y="148"/>
      <point x="32" y="128" type="curve" smooth="yes"/>
      <point x="32" y="41"/>
      <point x="96" y="-15"/>
      <point x="195" y="-15" type="curve" smooth="yes"/>
      <point x="273" y="-15"/>
      <point x="332" y="9"/>
      <point x="387" y="62" type="curve" smooth="yes"/>
      <point x="452" y="125"/>
      <point x="488" y="209"/>
      <point x="488" y="300" type="curve" smooth="yes"/>
      <point x="488" y="403"/>
      <point x="430" y="470"/>
      <point x="341" y="470" type="curve" smooth="yes"/>
      <point x="283" y="470"/>
      <point x="240" y="445"/>
      <point x="184" y="379" type="curve"/>
    </contour>
    <contour>
      <point x="308" y="409" type="curve" smooth="yes"/>
      <point x="359" y="409"/>
      <point x="389" y="370"/>
      <point x="389" y="305" type="curve" smooth="yes"/>
      <point x="389" y="241"/>
      <point x="369" y="172"/>
      <point x="335" y="115" type="curve" smooth="yes"/>
      <point x="297" y="52"/>
      <point x="255" y="23"/>
      <point x="203" y="23" type="curve" smooth="yes"/>
      <point x="149" y="23"/>
      <point x="117" y="59"/>
      <point x="117" y="120" type="curve" smooth="yes"/>
      <point x="117" y="181"/>
      <point x="141" y="260"/>
      <point x="176" y="318" type="curve" smooth="yes"/>
      <point x="214" y="378"/>
      <point x="258" y="409"/>
    </contour>
  </outline>
</glyph>
<glyph name="c" format="1">
  <advance width="444"/>
  <unicode hex="0063"/>
  <outline>
    <contour>
      <point x="341" y="132" type="line"/>
      <point x="291" y="67"/>
      <point x="238" y="33"/>
      <point x="190" y="33" type="curve" smooth="yes"/>
      <point x="131" y="33"/>
      <point x="97" y="77"/>
      <point x="97" y="152" type="curve" smooth="yes"/>
      <point x="97" y="223"/>
      <point x="120" y="302"/>
      <point x="159" y="358" type="curve" smooth="yes"/>
      <point x="194" y="408"/>
      <point x="230" y="432"/>
      <point x="274" y="432" type="curve" smooth="yes"/>
      <point x="306" y="432"/>
      <point x="338" y="416"/>
      <point x="338" y="399" type="curve" smooth="yes"/>
      <point x="338" y="393"/>
      <point x="333" y="388"/>
      <point x="322" y="384" type="curve"/>
      <point x="295" y="372"/>
      <point x="285" y="360"/>
      <point x="285" y="336" type="curve" smooth="yes"/>
      <point x="285" y="307"/>
      <point x="307" y="287"/>
      <point x="338" y="287" type="curve" smooth="yes"/>
      <point x="374" y="287"/>
      <point x="401" y="319"/>
      <point x="401" y="362" type="curve" smooth="yes"/>
      <point x="401" y="422"/>
      <point x="343" y="470"/>
      <point x="271" y="470" type="curve" smooth="yes"/>
      <point x="131" y="470"/>
      <point x="5" y="326"/>
      <point x="5" y="166" type="curve" smooth="yes"/>
      <point x="5" y="56"/>
      <point x="73" y="-15"/>
      <point x="177" y="-15" type="curve" smooth="yes"/>
      <point x="252" y="-15"/>
      <point x="317" y="27"/>
      <point x="370" y="110" type="curve"/>
    </contour>
  </outline>
</glyph>
<glyph name="e" format="1">
  <advance width="444"/>
  <unicode hex="0065"/>
  <outline>
    <contour>
      <point x="339" y="116" type="line"/>
      <point x="280" y="55"/>
      <point x="236" y="32"/>
      <point x="184" y="32" type="curve" smooth="yes"/>
      <point x="124" y="32"/>
      <point x="87" y="72"/>
      <point x="87" y="136" type="curve" smooth="yes"/>
      <point x="87" y="143"/>
      <point x="88" y="157"/>
      <point x="89" y="170" type="curve"/>
      <point x="206" y="198"/>
      <point x="226" y="204"/>
      <point x="271" y="224" type="curve" smooth="yes"/>
      <point x="348" y="258"/>
      <point x="391" y="309"/>
      <point x="391" y="367" type="curve" smooth="yes"/>
      <point x="391" y="428"/>
      <point x="342" y="470"/>
      <point x="272" y="470" type="curve" smooth="yes"/>
      <point x="126" y="470"/>
      <point x="-6" y="321"/>
      <point x="-6" y="158" type="curve" smooth="yes"/>
      <point x="-6" y="50"/>
      <point x="59" y="-15"/>
      <point x="167" y="-15" type="curve" smooth="yes"/>
      <point x="244" y="-15"/>
      <point x="309" y="19"/>
      <point x="363" y="89" type="curve"/>
    </contour>
    <contour>
      <point x="94" y="209" type="curve"/>
      <point x="117" y="344"/>
      <point x="178" y="430"/>
      <point x="252" y="430" type="curve" smooth="yes"/>
      <point x="285" y="430"/>
      <point x="307" y="407"/>
      <point x="307" y="373" type="curve" smooth="yes"/>
      <point x="307" y="318"/>
      <point x="268" y="271"/>
      <point x="196" y="239" type="curve" smooth="yes"/>
      <point x="167" y="226"/>
      <point x="150" y="221"/>
    </contour>
  </outline>
</glyph>
<glyph name="o" format="1">
  <advance width="500"/>
  <unicode hex="006F"/>
  <outline>
    <contour>
      <point x="273" y="470" type="curve" smooth="yes"/>
      <point x="208" y="470"/>
      <point x="143" y="440"/>
      <point x="89" y="384" type="curve" smooth="yes"/>
      <point x="34" y="327"/>
      <point x="5" y="255"/>
      <point x="5" y="172" type="curve" smooth="yes"/>
      <point x="5" y="58"/>
      <point x="74" y="-15"/>
      <point x="183" y="-15" type="curve" smooth="yes"/>
      <point x="255" y="-15"/>
      <point x="317" y="13"/>
      <point x="365" y="67" type="curve" smooth="yes"/>
      <point x="418" y="127"/>
      <point x="450" y="207"/>
      <point x="450" y="281" type="curve" smooth="yes"/>
      <point x="450" y="385"/>
      <point x="370" y="470"/>
    </contour>
    <contour>
      <point x="268" y="432" type="curve" smooth="yes"/>
      <point x="323" y="432"/>
      <point x="355" y="386"/>
      <point x="355" y="309" type="curve" smooth="yes"/>
      <point x="355" y="257"/>
      <point x="335" y="177"/>
      <point x="308" y="122" type="curve" smooth="yes"/>
      <point x="274" y="53"/>
      <point x="237" y="23"/>
      <point x="184" y="23" type="curve" smooth="yes"/>
      <point x="126" y="23"/>
      <point x="95" y="60"/>
      <point x="95" y="128" type="curve" smooth="yes"/>
      <point x="95" y="211"/>
      <point x="129" y="323"/>
      <point x="170" y="378" type="curve" smooth="yes"/>
      <point x="198" y="414"/>
      <point x="230" y="432"/>
    </contour>
  </outline>
</glyph>
<glyph name="p" format="1">
  <advance width="574"/>
  <unicode hex="0070"/>
  <outline>
    <contour>
      <point x="234" y="470" type="line"/>
      <point x="52" y="455" type="line"/>
      <point x="48" y="419" type="line"/>
      <point x="72" y="419" type="line" smooth="yes"/>
      <point x="113" y="419"/>
      <point x="129" y="410"/>
      <point x="129" y="388" type="curve" smooth="yes"/>
      <point x="129" y="378"/>
      <point x="126" y="363"/>
      <point x="120" y="344" type="curve" smooth="yes"/>
      <point x="-8" y="-90" type="line" smooth="yes"/>
      <point x="-28" y="-162"/>
      <point x="-29" y="-163"/>
      <point x="-97" y="-166" type="curve"/>
      <point x="-101" y="-202" type="line"/>
      <point x="139" y="-202" type="line"/>
      <point x="143" y="-166" type="line"/>
      <point x="131" y="-166" type="line" smooth="yes"/>
      <point x="83" y="-166"/>
      <point x="67" y="-160"/>
      <point x="67" y="-140" type="curve" smooth="yes"/>
      <point x="67" y="-132"/>
      <point x="71" y="-115"/>
      <point x="78" y="-90" type="curve" smooth="yes"/>
      <point x="127" y="73" type="line"/>
      <point x="154" y="4"/>
      <point x="180" y="-15"/>
      <point x="246" y="-15" type="curve" smooth="yes"/>
      <point x="316" y="-15"/>
      <point x="378" y="16"/>
      <point x="426" y="78" type="curve" smooth="yes"/>
      <point x="477" y="142"/>
      <point x="506" y="225"/>
      <point x="506" y="307" type="curve" smooth="yes"/>
      <point x="506" y="356"/>
      <point x="496" y="389"/>
      <point x="473" y="418" type="curve" smooth="yes"/>
      <point x="447" y="450"/>
      <point x="407" y="470"/>
      <point x="368" y="470" type="curve" smooth="yes"/>
      <point x="317" y="470"/>
      <point x="264" y="440"/>
      <point x="219" y="385" type="curve"/>
    </contour>
    <contour>
      <point x="337" y="417" type="curve" smooth="yes"/>
      <point x="382" y="417"/>
      <point x="412" y="382"/>
      <point x="412" y="329" type="curve" smooth="yes"/>
      <point x="412" y="274"/>
      <point x="395" y="206"/>
      <point x="365" y="144" type="curve" smooth="yes"/>
      <point x="330" y="69"/>
      <point x="290" y="35"/>
      <point x="237" y="35" type="curve" smooth="yes"/>
      <point x="188" y="35"/>
      <point x="153" y="74"/>
      <point x="153" y="127" type="curve" smooth="yes"/>
      <point x="153" y="185"/>
      <point x="184" y="281"/>
      <point x="222" y="339" type="curve" smooth="yes"/>
      <point x="255" y="389"/>
      <point x="297" y="417"/>
    </contour>
  </outline>
</glyph>
<glyph name="q" format="1">
  <advance width="556"/>
  <unicode hex="0071"/>
  <outline>
    <contour>
      <point x="499" y="470" type="line"/>
      <point x="460" y="470" type="line"/>
      <point x="399" y="401" type="line"/>
      <point x="366" y="446"/>
      <point x="323" y="470"/>
      <point x="271" y="470" type="curve" smooth="yes"/>
      <point x="130" y="470"/>
      <point x="0" y="314"/>
      <point x="0" y="145" type="curve" smooth="yes"/>
      <point x="0" y="99"/>
      <point x="16" y="54"/>
      <point x="42" y="29" type="curve" smooth="yes"/>
      <point x="67" y="3"/>
      <point x="112" y="-14"/>
      <point x="151" y="-14" type="curve" smooth="yes"/>
      <point x="202" y="-14"/>
      <point x="244" y="7"/>
      <point x="289" y="55" type="curve"/>
      <point x="246" y="-90" type="line" smooth="yes"/>
      <point x="226" y="-163"/>
      <point x="225" y="-164"/>
      <point x="148" y="-166" type="curve"/>
      <point x="144" y="-202" type="line"/>
      <point x="390" y="-202" type="line"/>
      <point x="394" y="-166" type="line"/>
      <point x="386" y="-166" type="line" smooth="yes"/>
      <point x="338" y="-166"/>
      <point x="322" y="-160"/>
      <point x="322" y="-140" type="curve" smooth="yes"/>
      <point x="322" y="-132"/>
      <point x="327" y="-111"/>
      <point x="333" y="-90" type="curve" smooth="yes"/>
    </contour>
    <contour>
      <point x="276" y="431" type="curve" smooth="yes"/>
      <point x="323" y="431"/>
      <point x="356" y="392"/>
      <point x="356" y="336" type="curve" smooth="yes"/>
      <point x="356" y="287"/>
      <point x="336" y="205"/>
      <point x="312" y="153" type="curve" smooth="yes"/>
      <point x="277" y="77"/>
      <point x="226" y="34"/>
      <point x="173" y="34" type="curve" smooth="yes"/>
      <point x="127" y="34"/>
      <point x="95" y="76"/>
      <point x="95" y="138" type="curve" smooth="yes"/>
      <point x="95" y="192"/>
      <point x="114" y="268"/>
      <point x="141" y="319" type="curve" smooth="yes"/>
      <point x="178" y="390"/>
      <point x="228" y="431"/>
    </contour>
  </outline>
</glyph>
<glyph name="r" format="1">
  <advance width="444"/>
  <unicode hex="0072"/>
  <outline>
    <contour>
      <point x="224" y="470" type="line"/>
      <point x="43" y="455" type="line"/>
      <point x="39" y="419" type="line"/>
      <point x="63" y="419" type="line" smooth="yes"/>
      <point x="103" y="419"/>
      <point x="121" y="410"/>
      <point x="121" y="391" type="curve" smooth="yes"/>
      <point x="121" y="384"/>
      <point x="116" y="362"/>
      <point x="111" y="344" type="curve" smooth="yes"/>
      <point x="9" y="0" type="line"/>
      <point x="96" y="0" type="line"/>
      <point x="143" y="158" type="line" smooth="yes"/>
      <point x="180" y="283"/>
      <point x="263" y="409"/>
      <point x="309" y="409" type="curve" smooth="yes"/>
      <point x="321" y="409"/>
      <point x="327" y="401"/>
      <point x="327" y="386" type="curve" smooth="yes"/>
      <point x="327" y="363"/>
      <point x="327" y="360"/>
      <point x="331" y="354" type="curve"/>
      <point x="339" y="340"/>
      <point x="355" y="332"/>
      <point x="374" y="332" type="curve" smooth="yes"/>
      <point x="408" y="332"/>
      <point x="433" y="359"/>
      <point x="433" y="396" type="curve" smooth="yes"/>
      <point x="433" y="439"/>
      <point x="400" y="470"/>
      <point x="354" y="470" type="curve" smooth="yes"/>
      <point x="298" y="470"/>
      <point x="254" y="436"/>
      <point x="201" y="354" type="curve"/>
    </contour>
  </outline>
</glyph>
<glyph name="t" format="1">
  <advance width="352"/>
  <unicode hex="0074"/>
  <outline>
    <contour>
      <point x="269" y="621" type="line"/>
      <point x="182" y="621" type="line"/>
      <point x="133" y="455" type="line"/>
      <point x="39" y="455" type="line"/>
      <point x="25" y="408" type="line"/>
      <point x="119" y="408" type="line"/>
      <point x="44" y="156" type="line" smooth="yes"/>
      <point x="30" y="106"/>
      <point x="25" y="83"/>
      <point x="25" y="61" type="curve" smooth="yes"/>
      <point x="25" y="19"/>
      <point x="57" y="-15"/>
      <point x="97" y="-15" type="curve" smooth="yes"/>
      <point x="144" y="-15"/>
      <point x="200" y="16"/>
      <point x="235" y="63" type="curve" smooth="yes"/>
      <point x="249" y="82"/>
      <point x="259" y="98"/>
      <point x="285" y="140" type="curve"/>
      <point x="255" y="160" type="line"/>
      <point x="193" y="66"/>
      <point x="164" y="38"/>
      <point x="131" y="38" type="curve" smooth="yes"/>
      <point x="117" y="38"/>
      <point x="108" y="49"/>
      <point x="108" y="66" type="curve" smooth="yes"/>
      <point x="108" y="74"/>
      <point x="109" y="81"/>
      <point x="111" y="89" type="curve" smooth="yes"/>
      <point x="206" y="408" type="line"/>
      <point x="315" y="408" type="line"/>
      <point x="329" y="455" type="line"/>
      <point x="220" y="455" type="line"/>
    </contour>
  </outline>
</glyph>
<glyph name="v" format="1">
  <advance width="519"/>
  <unicode hex="0076"/>
  <outline>
    <contour>
      <point x="222" y="470" type="line"/>
      <point x="37" y="455" type="line"/>
      <point x="34" y="419" type="line"/>
      <point x="51" y="419" type="line" smooth="yes"/>
      <point x="90" y="419"/>
      <point x="108" y="410"/>
      <point x="108" y="390" type="curve" smooth="yes"/>
      <point x="108" y="383"/>
      <point x="104" y="362"/>
      <point x="98" y="344" type="curve" smooth="yes"/>
      <point x="64" y="229" type="line" smooth="yes"/>
      <point x="52" y="188"/>
      <point x="45" y="146"/>
      <point x="45" y="115" type="curve" smooth="yes"/>
      <point x="45" y="41"/>
      <point x="100" y="-16"/>
      <point x="172" y="-16" type="curve" smooth="yes"/>
      <point x="242" y="-16"/>
      <point x="304" y="28"/>
      <point x="358" y="114" type="curve" smooth="yes"/>
      <point x="408" y="195"/>
      <point x="445" y="313"/>
      <point x="445" y="391" type="curve" smooth="yes"/>
      <point x="445" y="435"/>
      <point x="418" y="470"/>
      <point x="383" y="470" type="curve" smooth="yes"/>
      <point x="358" y="470"/>
      <point x="338" y="447"/>
      <point x="338" y="420" type="curve" smooth="yes"/>
      <point x="338" y="404"/>
      <point x="344" y="391"/>
      <point x="359" y="374" type="curve" smooth="yes"/>
      <point x="383" y="347"/>
      <point x="387" y="339"/>
      <point x="387" y="317" type="curve" smooth="yes"/>
      <point x="387" y="283"/>
      <point x="369" y="221"/>
      <point x="343" y="168" type="curve" smooth="yes"/>
      <point x="304" y="87"/>
      <point x="248" y="37"/>
      <point x="196" y="37" type="curve" smooth="yes"/>
      <point x="159" y="37"/>
      <point x="130" y="71"/>
      <point x="130" y="115" type="curve" smooth="yes"/>
      <point x="130" y="147"/>
      <point x="136" y="179"/>
      <point x="154" y="239" type="curve" smooth="yes"/>
    </contour>
  </outline>
</glyph>
<glyph name="w" format="1">
  <advance width="778"/>
  <unicode hex="0077"/>
  <outline>
    <contour>
      <point x="225" y="470" type="line"/>
      <point x="40" y="455" type="line"/>
      <point x="36" y="419" type="line"/>
      <point x="53" y="419" type="line" smooth="yes"/>
      <point x="94" y="419"/>
      <point x="109" y="410"/>
      <point x="109" y="387" type="curve" smooth="yes"/>
      <point x="109" y="378"/>
      <point x="106" y="360"/>
      <point x="101" y="344" type="curve" smooth="yes"/>
      <point x="49" y="167" type="line" smooth="yes"/>
      <point x="37" y="128"/>
      <point x="32" y="102"/>
      <point x="32" y="82" type="curve" smooth="yes"/>
      <point x="32" y="23"/>
      <point x="74" y="-15"/>
      <point x="139" y="-15" type="curve" smooth="yes"/>
      <point x="182" y="-15"/>
      <point x="224" y="3"/>
      <point x="257" y="37" type="curve" smooth="yes"/>
      <point x="282" y="62"/>
      <point x="297" y="80"/>
      <point x="333" y="134" type="curve"/>
      <point x="332" y="118"/>
      <point x="331" y="104"/>
      <point x="331" y="93" type="curve" smooth="yes"/>
      <point x="331" y="27"/>
      <point x="373" y="-15"/>
      <point x="439" y="-15" type="curve" smooth="yes"/>
      <point x="507" y="-15"/>
      <point x="560" y="21"/>
      <point x="613" y="102" type="curve" smooth="yes"/>
      <point x="667" y="186"/>
      <point x="708" y="309"/>
      <point x="708" y="391" type="curve" smooth="yes"/>
      <point x="708" y="435"/>
      <point x="681" y="470"/>
      <point x="646" y="470" type="curve" smooth="yes"/>
      <point x="620" y="470"/>
      <point x="600" y="448"/>
      <point x="600" y="420" type="curve" smooth="yes"/>
      <point x="600" y="403"/>
      <point x="605" y="392"/>
      <point x="621" y="374" type="curve" smooth="yes"/>
      <point x="645" y="347"/>
      <point x="649" y="339"/>
      <point x="649" y="318" type="curve" smooth="yes"/>
      <point x="649" y="280"/>
      <point x="630" y="216"/>
      <point x="604" y="166" type="curve" smooth="yes"/>
      <point x="559" y="82"/>
      <point x="512" y="38"/>
      <point x="465" y="38" type="curve" smooth="yes"/>
      <point x="431" y="38"/>
      <point x="410" y="65"/>
      <point x="410" y="109" type="curve" smooth="yes"/>
      <point x="410" y="145"/>
      <point x="417" y="183"/>
      <point x="433" y="239" type="curve" smooth="yes"/>
      <point x="498" y="455" type="line"/>
      <point x="411" y="455" type="line"/>
      <point x="361" y="288" type="line" smooth="yes"/>
      <point x="343" y="227"/>
      <point x="314" y="168"/>
      <point x="274" y="113" type="curve" smooth="yes"/>
      <point x="238" y="62"/>
      <point x="204" y="38"/>
      <point x="170" y="38" type="curve" smooth="yes"/>
      <point x="141" y="38"/>
      <point x="118" y="59"/>
      <point x="118" y="86" type="curve" smooth="yes"/>
      <point x="118" y="108"/>
      <point x="118" y="110"/>
      <point x="138" y="177" type="curve" smooth="yes"/>
    </contour>
  </outline>
</glyph>
<glyph name="z" format="1">
  <advance width="463"/>
  <unicode hex="007A"/>
  <outline>
    <contour>
      <point x="353" y="151" type="line"/>
      <point x="326" y="89"/>
      <point x="300" y="61"/>
      <point x="267" y="61" type="curve" smooth="yes"/>
      <point x="253" y="61"/>
      <point x="228" y="67"/>
      <point x="200" y="77" type="curve" smooth="yes"/>
      <point x="139" y="98"/>
      <point x="127" y="101"/>
      <point x="99" y="101" type="curve" smooth="yes"/>
      <point x="86" y="101"/>
      <point x="74" y="99"/>
      <point x="50" y="92" type="curve"/>
      <point x="73" y="121"/>
      <point x="92" y="135"/>
      <point x="171" y="181" type="curve" smooth="yes"/>
      <point x="248" y="225"/>
      <point x="289" y="257"/>
      <point x="338" y="313" type="curve" smooth="yes"/>
      <point x="385" y="366"/>
      <point x="417" y="421"/>
      <point x="417" y="447" type="curve" smooth="yes"/>
      <point x="417" y="460"/>
      <point x="407" y="470"/>
      <point x="393" y="470" type="curve" smooth="yes"/>
      <point x="382" y="470"/>
      <point x="374" y="462"/>
      <point x="369" y="445" type="curve" smooth="yes"/>
      <point x="363" y="424"/>
      <point x="357" y="419"/>
      <point x="343" y="419" type="curve" smooth="yes"/>
      <point x="326" y="419"/>
      <point x="301" y="427"/>
      <point x="271" y="442" type="curve" smooth="yes"/>
      <point x="226" y="464"/>
      <point x="209" y="470"/>
      <point x="187" y="470" type="curve" smooth="yes"/>
      <point x="123" y="470"/>
      <point x="70" y="425"/>
      <point x="22" y="331" type="curve"/>
      <point x="55" y="314" type="line"/>
      <point x="86" y="369"/>
      <point x="112" y="394"/>
      <point x="137" y="394" type="curve" smooth="yes"/>
      <point x="147" y="394"/>
      <point x="171" y="388"/>
      <point x="197" y="380" type="curve" smooth="yes"/>
      <point x="252" y="361"/>
      <point x="259" y="360"/>
      <point x="289" y="360" type="curve" smooth="yes"/>
      <point x="303" y="360"/>
      <point x="315" y="362"/>
      <point x="340" y="368" type="curve"/>
      <point x="315" y="342"/>
      <point x="304" y="332"/>
      <point x="266" y="308" type="curve" smooth="yes"/>
      <point x="119" y="217"/>
      <point x="96" y="199"/>
      <point x="39" y="137" type="curve" smooth="yes"/>
      <point x="-7" y="86"/>
      <point x="-33" y="39"/>
      <point x="-33" y="9" type="curve" smooth="yes"/>
      <point x="-33" y="-6"/>
      <point x="-24" y="-15"/>
      <point x="-9" y="-15" type="curve" smooth="yes"/>
      <point x="10" y="-15"/>
      <point x="21" y="2"/>
      <point x="21" y="31" type="curve" smooth="yes"/>
      <point x="21" y="47"/>
      <point x="22" y="48"/>
      <point x="30" y="48" type="curve" smooth="yes"/>
      <point x="42" y="48"/>
      <point x="42" y="48"/>
      <point x="107" y="17" type="curve" smooth="yes"/>
      <point x="155" y="-5"/>
      <point x="191" y="-15"/>
      <point x="226" y="-15" type="curve" smooth="yes"/>
      <point x="294" y="-15"/>
      <point x="357" y="45"/>
      <point x="388" y="139" type="curve"/>
    </contour>
  </outline>
</glyph>
<glyph name="braceleft" format="1">
  <advance width="333"/>
  <unicode hex="007B"/>
  <outline>
    <contour>
      <point x="56" y="293" type="line"/>
      <point x="89" y="282"/>
      <point x="105" y="261"/>
      <point x="105" y="231" type="curve" smooth="yes"/>
      <point x="105" y="212"/>
      <point x="104" y="206"/>
      <point x="92" y="162" type="curve" smooth="yes"/>
      <point x="69" y="74" type="line" smooth="yes"/>
      <point x="56" y="28"/>
      <point x="52" y="4"/>
      <point x="52" y="-21" type="curve" smooth="yes"/>
      <point x="52" y="-76"/>
      <point x="85" y="-108"/>
      <point x="140" y="-108" type="curve" smooth="yes"/>
      <point x="161" y="-108" type="line"/>
      <point x="169" y="-79" type="line"/>
      <point x="137" y="-77"/>
      <point x="119" y="-55"/>
      <point x="119" y="-20" type="curve" smooth="yes"/>
      <point x="119" y="0"/>
      <point x="124" y="28"/>
      <point x="134" y="64" type="curve" smooth="yes"/>
      <point x="163" y="175" type="line" smooth="yes"/>
      <point x="173" y="210"/>
      <point x="176" y="228"/>
      <point x="176" y="242" type="curve" smooth="yes"/>
      <point x="176" y="273"/>
      <point x="160" y="293"/>
      <point x="124" y="307" type="curve"/>
      <point x="184" y="323"/>
      <point x="210" y="354"/>
      <point x="232" y="432" type="curve" smooth="yes"/>
      <point x="267" y="560" type="line" smooth="yes"/>
      <point x="292" y="655"/>
      <point x="318" y="687"/>
      <point x="373" y="693" type="curve"/>
      <point x="381" y="722" type="line"/>
      <point x="371" y="722" type="line" smooth="yes"/>
      <point x="335" y="722"/>
      <point x="293" y="711"/>
      <point x="270" y="695" type="curve" smooth="yes"/>
      <point x="239" y="674"/>
      <point x="220" y="638"/>
      <point x="202" y="572" type="curve" smooth="yes"/>
      <point x="170" y="454" type="line" smooth="yes"/>
      <point x="150" y="367"/>
      <point x="128" y="340"/>
      <point x="63" y="321" type="curve"/>
    </contour>
  </outline>
</glyph>
<glyph name="braceright" format="1">
  <advance width="333"/>
  <unicode hex="007D"/>
  <outline>
    <contour>
      <point x="227" y="321" type="line"/>
      <point x="195" y="330"/>
      <point x="177" y="353"/>
      <point x="177" y="383" type="curve" smooth="yes"/>
      <point x="177" y="402"/>
      <point x="178" y="408"/>
      <point x="190" y="452" type="curve" smooth="yes"/>
      <point x="213" y="540" type="line" smooth="yes"/>
      <point x="225" y="585"/>
      <point x="231" y="617"/>
      <point x="231" y="639" type="curve" smooth="yes"/>
      <point x="231" y="689"/>
      <point x="195" y="722"/>
      <point x="142" y="722" type="curve" smooth="yes"/>
      <point x="121" y="722" type="line"/>
      <point x="113" y="693" type="line"/>
      <point x="144" y="691"/>
      <point x="163" y="669"/>
      <point x="163" y="635" type="curve" smooth="yes"/>
      <point x="163" y="615"/>
      <point x="158" y="586"/>
      <point x="148" y="550" type="curve" smooth="yes"/>
      <point x="118" y="439" type="line" smooth="yes"/>
      <point x="109" y="405"/>
      <point x="106" y="387"/>
      <point x="106" y="372" type="curve" smooth="yes"/>
      <point x="106" y="341"/>
      <point x="122" y="321"/>
      <point x="157" y="307" type="curve"/>
      <point x="98" y="291"/>
      <point x="71" y="260"/>
      <point x="50" y="182" type="curve" smooth="yes"/>
      <point x="15" y="54" type="line" smooth="yes"/>
      <point x="-10" y="-41"/>
      <point x="-36" y="-73"/>
      <point x="-90" y="-79" type="curve"/>
      <point x="-98" y="-108" type="line"/>
      <point x="-90" y="-108" type="line" smooth="yes"/>
      <point x="-53" y="-108"/>
      <point x="-11" y="-97"/>
      <point x="11" y="-81" type="curve" smooth="yes"/>
      <point x="42" y="-60"/>
      <point x="62" y="-24"/>
      <point x="80" y="42" type="curve" smooth="yes"/>
      <point x="111" y="160" type="line" smooth="yes"/>
      <point x="132" y="247"/>
      <point x="155" y="275"/>
      <point x="219" y="293" type="curve"/>
    </contour>
  </outline>
</glyph>
<glyph name="asciitilde" format="1">
  <advance width="606"/>
  <unicode hex="007E"/>
  <outline>
    <contour>
      <point x="94" y="182" type="line"/>
      <point x="121" y="223"/>
      <point x="152" y="247"/>
      <point x="180" y="247" type="curve" smooth="yes"/>
      <point x="200" y="247"/>
      <point x="202" y="246"/>
      <point x="260" y="219" type="curve" smooth="yes"/>
      <point x="306" y="196" type="line" smooth="yes"/>
      <point x="356" y="173"/>
      <point x="380" y="165"/>
      <point x="405" y="165" type="curve" smooth="yes"/>
      <point x="453" y="165"/>
      <point x="508" y="207"/>
      <point x="545" y="272" type="curve"/>
      <point x="492" y="310" type="line"/>
      <point x="465" y="269"/>
      <point x="434" y="245"/>
      <point x="406" y="245" type="curve" smooth="yes"/>
      <point x="386" y="245"/>
      <point x="379" y="247"/>
      <point x="326" y="273" type="curve" smooth="yes"/>
      <point x="280" y="295" type="line" smooth="yes"/>
      <point x="228" y="320"/>
      <point x="206" y="327"/>
      <point x="181" y="327" type="curve" smooth="yes"/>
      <point x="133" y="327"/>
      <point x="78" y="285"/>
      <point x="41" y="220" type="curve"/>
    </contour>
  </outline>
</glyph>
<glyph name="exclamdown" format="1">
  <advance width="333"/>
  <unicode hex="00A1"/>
  <outline>
    <contour>
      <point x="169" y="352" type="line"/>
      <point x="124" y="190"/>
      <point x="91" y="96"/>
      <point x="43" y="-9" type="curve" smooth="yes"/>
      <point x="-6" y="-113"/>
      <point x="-7" y="-116"/>
      <point x="-7" y="-145" type="curve" smooth="yes"/>
      <point x="-7" y="-179"/>
      <point x="17" y="-203"/>
      <point x="53" y="-203" type="curve" smooth="yes"/>
      <point x="93" y="-203"/>
      <point x="121" y="-162"/>
      <point x="126" y="-92" type="curve" smooth="yes"/>
      <point x="135" y="40"/>
      <point x="156" y="158"/>
      <point x="205" y="342" type="curve"/>
    </contour>
    <contour>
      <point x="219" y="549" type="curve" smooth="yes"/>
      <point x="184" y="549"/>
      <point x="156" y="522"/>
      <point x="156" y="487" type="curve" smooth="yes"/>
      <point x="156" y="453"/>
      <point x="184" y="425"/>
      <point x="218" y="425" type="curve" smooth="yes"/>
      <point x="252" y="425"/>
      <point x="280" y="453"/>
      <point x="280" y="487" type="curve" smooth="yes"/>
      <point x="280" y="521"/>
      <point x="252" y="549"/>
    </contour>
  </outline>
</glyph>
<glyph name="cent" format="1">
  <advance width="556"/>
  <unicode hex="00A2"/>
  <outline>
    <contour>
      <point x="222" y="-14" type="line"/>
      <point x="297" y="-18"/>
      <point x="370" y="27"/>
      <point x="428" y="113" type="curve"/>
      <point x="397" y="135" type="line"/>
      <point x="340" y="63"/>
      <point x="308" y="42"/>
      <point x="244" y="35" type="curve"/>
      <point x="361" y="298" type="line"/>
      <point x="370" y="291"/>
      <point x="378" y="289"/>
      <point x="391" y="289" type="curve" smooth="yes"/>
      <point x="429" y="289"/>
      <point x="457" y="320"/>
      <point x="457" y="363" type="curve" smooth="yes"/>
      <point x="457" y="392"/>
      <point x="446" y="415"/>
      <point x="422" y="436" type="curve"/>
      <point x="486" y="581" type="line"/>
      <point x="443" y="581" type="line"/>
      <point x="388" y="457" type="line"/>
      <point x="366" y="466"/>
      <point x="351" y="469"/>
      <point x="332" y="469" type="curve" smooth="yes"/>
      <point x="188" y="469"/>
      <point x="61" y="328"/>
      <point x="61" y="167" type="curve" smooth="yes"/>
      <point x="61" y="81"/>
      <point x="107" y="14"/>
      <point x="182" y="-8" type="curve"/>
      <point x="125" y="-135" type="line"/>
      <point x="168" y="-135" type="line"/>
    </contour>
    <contour>
      <point x="205" y="46" type="line"/>
      <point x="173" y="66"/>
      <point x="156" y="103"/>
      <point x="156" y="156" type="curve" smooth="yes"/>
      <point x="156" y="210"/>
      <point x="171" y="266"/>
      <point x="201" y="326" type="curve" smooth="yes"/>
      <point x="237" y="398"/>
      <point x="278" y="432"/>
      <point x="328" y="432" type="curve" smooth="yes"/>
      <point x="362" y="432"/>
      <point x="393" y="417"/>
      <point x="393" y="400" type="curve" smooth="yes"/>
      <point x="393" y="391"/>
      <point x="391" y="390"/>
      <point x="378" y="387" type="curve" smooth="yes"/>
      <point x="360" y="383"/>
      <point x="352" y="376"/>
      <point x="344" y="357" type="curve" smooth="yes"/>
    </contour>
  </outline>
</glyph>
<glyph name="sterling" format="1">
  <advance width="556"/>
  <unicode hex="00A3"/>
  <outline>
    <contour>
      <point x="410" y="368" type="line"/>
      <point x="274" y="368" type="line"/>
      <point x="273" y="388"/>
      <point x="273" y="404"/>
      <point x="273" y="414" type="curve" smooth="yes"/>
      <point x="273" y="469"/>
      <point x="278" y="523"/>
      <point x="286" y="553" type="curve" smooth="yes"/>
      <point x="304" y="623"/>
      <point x="351" y="666"/>
      <point x="410" y="666" type="curve" smooth="yes"/>
      <point x="446" y="666"/>
      <point x="470" y="652"/>
      <point x="470" y="630" type="curve" smooth="yes"/>
      <point x="470" y="620"/>
      <point x="468" y="618"/>
      <point x="448" y="603" type="curve" smooth="yes"/>
      <point x="427" y="588"/>
      <point x="418" y="571"/>
      <point x="418" y="550" type="curve" smooth="yes"/>
      <point x="418" y="519"/>
      <point x="441" y="497"/>
      <point x="474" y="497" type="curve" smooth="yes"/>
      <point x="516" y="497"/>
      <point x="545" y="533"/>
      <point x="545" y="585" type="curve" smooth="yes"/>
      <point x="545" y="654"/>
      <point x="484" y="704"/>
      <point x="400" y="704" type="curve" smooth="yes"/>
      <point x="329" y="704"/>
      <point x="262" y="669"/>
      <point x="220" y="610" type="curve" smooth="yes"/>
      <point x="187" y="563"/>
      <point x="170" y="501"/>
      <point x="170" y="424" type="curve" smooth="yes"/>
      <point x="170" y="410"/>
      <point x="170" y="403"/>
      <point x="172" y="368" type="curve"/>
      <point x="55" y="368" type="line"/>
      <point x="50" y="325" type="line"/>
      <point x="176" y="325" type="line"/>
      <point x="182" y="275"/>
      <point x="184" y="252"/>
      <point x="184" y="222" type="curve" smooth="yes"/>
      <point x="184" y="185"/>
      <point x="180" y="164"/>
      <point x="169" y="129" type="curve"/>
      <point x="133" y="143"/>
      <point x="104" y="150"/>
      <point x="79" y="150" type="curve" smooth="yes"/>
      <point x="30" y="150"/>
      <point x="-8" y="112"/>
      <point x="-8" y="65" type="curve" smooth="yes"/>
      <point x="-8" y="19"/>
      <point x="27" y="-15"/>
      <point x="76" y="-15" type="curve" smooth="yes"/>
      <point x="119" y="-15"/>
      <point x="145" y="0"/>
      <point x="186" y="45" type="curve"/>
      <point x="250" y="-2"/>
      <point x="283" y="-15"/>
      <point x="334" y="-15" type="curve" smooth="yes"/>
      <point x="421" y="-15"/>
      <point x="480" y="32"/>
      <point x="522" y="136" type="curve"/>
      <point x="487" y="150" type="line"/>
      <point x="450" y="93"/>
      <point x="409" y="69"/>
      <point x="350" y="69" type="curve" smooth="yes"/>
      <point x="309" y="69"/>
      <point x="270" y="80"/>
      <point x="222" y="105" type="curve"/>
      <point x="256" y="177"/>
      <point x="274" y="256"/>
      <point x="273" y="325" type="curve"/>
      <point x="405" y="325" type="line"/>
    </contour>
    <contour>
      <point x="149" y="75" type="curve"/>
      <point x="132" y="39"/>
      <point x="109" y="22"/>
      <point x="78" y="22" type="curve" smooth="yes"/>
      <point x="50" y="22"/>
      <point x="31" y="39"/>
      <point x="31" y="65" type="curve" smooth="yes"/>
      <point x="31" y="90"/>
      <point x="51" y="109"/>
      <point x="76" y="109" type="curve" smooth="yes"/>
      <point x="100" y="109"/>
      <point x="119" y="100"/>
    </contour>
  </outline>
</glyph>
<glyph name="currency" format="1">
  <advance width="556"/>
  <unicode hex="00A4"/>
  <outline>
    <contour>
      <point x="425" y="545" type="line"/>
      <point x="380" y="579"/>
      <point x="328" y="597"/>
      <point x="274" y="597" type="curve" smooth="yes"/>
      <point x="221" y="597"/>
      <point x="171" y="580"/>
      <point x="127" y="547" type="curve"/>
      <point x="77" y="598" type="line"/>
      <point x="25" y="547" type="line"/>
      <point x="76" y="496" type="line"/>
      <point x="44" y="455"/>
      <point x="26" y="401"/>
      <point x="26" y="349" type="curve" smooth="yes"/>
      <point x="26" y="295"/>
      <point x="44" y="243"/>
      <point x="78" y="198" type="curve"/>
      <point x="25" y="145" type="line"/>
      <point x="77" y="93" type="line"/>
      <point x="130" y="146" type="line"/>
      <point x="174" y="112"/>
      <point x="228" y="94"/>
      <point x="281" y="94" type="curve" smooth="yes"/>
      <point x="333" y="94"/>
      <point x="384" y="111"/>
      <point x="428" y="144" type="curve"/>
      <point x="479" y="93" type="line"/>
      <point x="530" y="145" type="line"/>
      <point x="479" y="195" type="line"/>
      <point x="512" y="239"/>
      <point x="529" y="289"/>
      <point x="529" y="342" type="curve" smooth="yes"/>
      <point x="529" y="397"/>
      <point x="511" y="450"/>
      <point x="477" y="494" type="curve"/>
      <point x="530" y="547" type="line"/>
      <point x="479" y="598" type="line"/>
    </contour>
    <contour>
      <point x="278" y="515" type="curve" smooth="yes"/>
      <point x="371" y="515"/>
      <point x="447" y="439"/>
      <point x="447" y="346" type="curve" smooth="yes"/>
      <point x="447" y="251"/>
      <point x="371" y="176"/>
      <point x="276" y="176" type="curve" smooth="yes"/>
      <point x="185" y="176"/>
      <point x="109" y="253"/>
      <point x="109" y="346" type="curve" smooth="yes"/>
      <point x="109" y="439"/>
      <point x="185" y="515"/>
    </contour>
  </outline>
</glyph>
<glyph name="yen" format="1">
  <advance width="556"/>
  <unicode hex="00A5"/>
  <outline>
    <contour>
      <point x="353" y="368" type="line"/>
      <point x="479" y="545" type="line" smooth="yes"/>
      <point x="541" y="631"/>
      <point x="557" y="644"/>
      <point x="618" y="657" type="curve"/>
      <point x="623" y="704" type="line"/>
      <point x="392" y="704" type="line"/>
      <point x="387" y="657" type="line"/>
      <point x="396" y="657" type="line" smooth="yes"/>
      <point x="436" y="657"/>
      <point x="461" y="642"/>
      <point x="461" y="619" type="curve" smooth="yes"/>
      <point x="461" y="604"/>
      <point x="456" y="593"/>
      <point x="435" y="564" type="curve" smooth="yes"/>
      <point x="307" y="379" type="line"/>
      <point x="231" y="594" type="line" smooth="yes"/>
      <point x="220" y="623"/>
      <point x="220" y="624"/>
      <point x="220" y="633" type="curve" smooth="yes"/>
      <point x="220" y="650"/>
      <point x="237" y="657"/>
      <point x="282" y="657" type="curve" smooth="yes"/>
      <point x="296" y="657" type="line"/>
      <point x="301" y="704" type="line"/>
      <point x="45" y="704" type="line"/>
      <point x="40" y="657" type="line"/>
      <point x="44" y="657" type="line" smooth="yes"/>
      <point x="82" y="657"/>
      <point x="108" y="635"/>
      <point x="124" y="588" type="curve" smooth="yes"/>
      <point x="204" y="368" type="line"/>
      <point x="78" y="368" type="line"/>
      <point x="73" y="325" type="line"/>
      <point x="219" y="325" type="line"/>
      <point x="220" y="323" type="line"/>
      <point x="199" y="245" type="line"/>
      <point x="45" y="245" type="line"/>
      <point x="40" y="202" type="line"/>
      <point x="188" y="202" type="line"/>
      <point x="166" y="123" type="line" smooth="yes"/>
      <point x="152" y="70"/>
      <point x="152" y="69"/>
      <point x="143" y="61" type="curve"/>
      <point x="133" y="51"/>
      <point x="108" y="47"/>
      <point x="60" y="47" type="curve" smooth="yes"/>
      <point x="47" y="47" type="line"/>
      <point x="42" y="0" type="line"/>
      <point x="359" y="0" type="line"/>
      <point x="364" y="47" type="line"/>
      <point x="337" y="47" type="line" smooth="yes"/>
      <point x="273" y="47"/>
      <point x="258" y="52"/>
      <point x="258" y="74" type="curve" smooth="yes"/>
      <point x="258" y="82"/>
      <point x="258" y="82"/>
      <point x="267" y="123" type="curve"/>
      <point x="289" y="202" type="line"/>
      <point x="441" y="202" type="line"/>
      <point x="446" y="245" type="line"/>
      <point x="300" y="245" type="line"/>
      <point x="321" y="323" type="line"/>
      <point x="322" y="325" type="line"/>
      <point x="468" y="325" type="line"/>
      <point x="473" y="368" type="line"/>
    </contour>
  </outline>
</glyph>
<glyph name="brokenbar" format="1">
  <advance width="606"/>
  <unicode hex="00A6"/>
  <outline>
    <contour>
      <point x="337" y="722" type="line"/>
      <point x="269" y="722" type="line"/>
      <point x="269" y="400" type="line"/>
      <point x="337" y="400" type="line"/>
    </contour>
    <contour>
      <point x="337" y="322" type="line"/>
      <point x="269" y="322" type="line"/>
      <point x="269" y="0" type="line"/>
      <point x="337" y="0" type="line"/>
    </contour>
  </outline>
</glyph>
<glyph name="section" format="1">
  <advance width="500"/>
  <unicode hex="00A7"/>
  <outline>
    <contour>
      <point x="325" y="463" type="line" smooth="yes"/>
      <point x="263" y="543"/>
      <point x="244" y="581"/>
      <point x="244" y="620" type="curve" smooth="yes"/>
      <point x="244" y="672"/>
      <point x="279" y="705"/>
      <point x="334" y="705" type="curve" smooth="yes"/>
      <point x="370" y="705"/>
      <point x="403" y="690"/>
      <point x="403" y="673" type="curve" smooth="yes"/>
      <point x="403" y="670"/>
      <point x="401" y="667"/>
      <point x="397" y="664" type="curve"/>
      <point x="372" y="643"/>
      <point x="366" y="633"/>
      <point x="366" y="611" type="curve" smooth="yes"/>
      <point x="366" y="580"/>
      <point x="391" y="556"/>
      <point x="423" y="556" type="curve" smooth="yes"/>
      <point x="457" y="556"/>
      <point x="480" y="583"/>
      <point x="480" y="620" type="curve" smooth="yes"/>
      <point x="480" y="687"/>
      <point x="416" y="737"/>
      <point x="329" y="737" type="curve" smooth="yes"/>
      <point x="228" y="737"/>
      <point x="163" y="681"/>
      <point x="163" y="593" type="curve" smooth="yes"/>
      <point x="163" y="548"/>
      <point x="176" y="515"/>
      <point x="218" y="454" type="curve"/>
      <point x="197" y="461"/>
      <point x="186" y="463"/>
      <point x="169" y="463" type="curve" smooth="yes"/>
      <point x="91" y="463"/>
      <point x="31" y="406"/>
      <point x="31" y="331" type="curve" smooth="yes"/>
      <point x="31" y="286"/>
      <point x="47" y="246"/>
      <point x="86" y="195" type="curve" smooth="yes"/>
      <point x="147" y="117" type="line" smooth="yes"/>
      <point x="205" y="40"/>
      <point x="220" y="10"/>
      <point x="220" y="-33" type="curve" smooth="yes"/>
      <point x="220" y="-84"/>
      <point x="187" y="-118"/>
      <point x="138" y="-118" type="curve" smooth="yes"/>
      <point x="104" y="-118"/>
      <point x="71" y="-102"/>
      <point x="71" y="-84" type="curve" smooth="yes"/>
      <point x="71" y="-79"/>
      <point x="72" y="-76"/>
      <point x="80" y="-69" type="curve" smooth="yes"/>
      <point x="96" y="-54"/>
      <point x="102" y="-41"/>
      <point x="102" y="-23" type="curve" smooth="yes"/>
      <point x="102" y="9"/>
      <point x="79" y="31"/>
      <point x="47" y="31" type="curve" smooth="yes"/>
      <point x="14" y="31"/>
      <point x="-11" y="5"/>
      <point x="-11" y="-32" type="curve" smooth="yes"/>
      <point x="-11" y="-99"/>
      <point x="55" y="-150"/>
      <point x="143" y="-150" type="curve" smooth="yes"/>
      <point x="236" y="-150"/>
      <point x="304" y="-90"/>
      <point x="304" y="-7" type="curve" smooth="yes"/>
      <point x="304" y="33"/>
      <point x="292" y="66"/>
      <point x="253" y="131" type="curve"/>
      <point x="274" y="126"/>
      <point x="285" y="124"/>
      <point x="301" y="124" type="curve" smooth="yes"/>
      <point x="377" y="124"/>
      <point x="436" y="182"/>
      <point x="436" y="258" type="curve" smooth="yes"/>
      <point x="436" y="299"/>
      <point x="419" y="340"/>
      <point x="382" y="388" type="curve" smooth="yes"/>
    </contour>
    <contour>
      <point x="134" y="290" type="line" smooth="yes"/>
      <point x="117" y="312"/>
      <point x="108" y="338"/>
      <point x="108" y="358" type="curve" smooth="yes"/>
      <point x="108" y="400"/>
      <point x="139" y="430"/>
      <point x="184" y="430" type="curve" smooth="yes"/>
      <point x="219" y="430"/>
      <point x="255" y="410"/>
      <point x="280" y="377" type="curve" smooth="yes"/>
      <point x="322" y="320" type="line" smooth="yes"/>
      <point x="347" y="288"/>
      <point x="360" y="256"/>
      <point x="360" y="230" type="curve" smooth="yes"/>
      <point x="360" y="190"/>
      <point x="322" y="157"/>
      <point x="277" y="157" type="curve" smooth="yes"/>
      <point x="239" y="157"/>
      <point x="221" y="170"/>
      <point x="182" y="223" type="curve" smooth="yes"/>
    </contour>
  </outline>
</glyph>
<glyph name="dieresis" format="1">
  <advance width="333"/>
  <unicode hex="00A8"/>
  <outline>
    <contour>
      <point x="108" y="644" type="curve" smooth="yes"/>
      <point x="81" y="644"/>
      <point x="59" y="622"/>
      <point x="59" y="595" type="curve" smooth="yes"/>
      <point x="59" y="568"/>
      <point x="81" y="546"/>
      <point x="108" y="546" type="curve" smooth="yes"/>
      <point x="135" y="546"/>
      <point x="157" y="568"/>
      <point x="157" y="595" type="curve" smooth="yes"/>
      <point x="157" y="622"/>
      <point x="135" y="644"/>
    </contour>
    <contour>
      <point x="310" y="644" type="curve" smooth="yes"/>
      <point x="283" y="644"/>
      <point x="261" y="622"/>
      <point x="261" y="595" type="curve" smooth="yes"/>
      <point x="261" y="568"/>
      <point x="283" y="546"/>
      <point x="310" y="546" type="curve" smooth="yes"/>
      <point x="337" y="546"/>
      <point x="359" y="568"/>
      <point x="359" y="595" type="curve" smooth="yes"/>
      <point x="359" y="622"/>
      <point x="337" y="644"/>
    </contour>
  </outline>
</glyph>
<glyph name="copyright" format="1">
  <advance width="747"/>
  <unicode hex="00A9"/>
  <outline>
    <contour>
      <point x="517" y="541" type="line"/>
      <point x="487" y="541" type="line"/>
      <point x="467" y="512" type="line"/>
      <point x="429" y="538"/>
      <point x="410" y="545"/>
      <point x="374" y="545" type="curve" smooth="yes"/>
      <point x="270" y="545"/>
      <point x="186" y="450"/>
      <point x="186" y="333" type="curve" smooth="yes"/>
      <point x="186" y="215"/>
      <point x="265" y="129"/>
      <point x="374" y="129" type="curve" smooth="yes"/>
      <point x="465" y="129"/>
      <point x="520" y="182"/>
      <point x="534" y="281" type="curve"/>
      <point x="496" y="287" type="line"/>
      <point x="482" y="206"/>
      <point x="445" y="167"/>
      <point x="380" y="167" type="curve" smooth="yes"/>
      <point x="306" y="167"/>
      <point x="270" y="220"/>
      <point x="270" y="330" type="curve" smooth="yes"/>
      <point x="270" y="446"/>
      <point x="306" y="507"/>
      <point x="374" y="507" type="curve" smooth="yes"/>
      <point x="431" y="507"/>
      <point x="467" y="466"/>
      <point x="491" y="372" type="curve"/>
      <point x="526" y="372" type="line"/>
    </contour>
    <contour>
      <point x="374" y="685" type="curve" smooth="yes"/>
      <point x="181" y="685"/>
      <point x="24" y="528"/>
      <point x="24" y="335" type="curve" smooth="yes"/>
      <point x="24" y="144"/>
      <point x="181" y="-15"/>
      <point x="370" y="-15" type="curve" smooth="yes"/>
      <point x="568" y="-15"/>
      <point x="724" y="140"/>
      <point x="724" y="336" type="curve" smooth="yes"/>
      <point x="724" y="528"/>
      <point x="567" y="685"/>
    </contour>
    <contour>
      <point x="374" y="642" type="curve" smooth="yes"/>
      <point x="542" y="642"/>
      <point x="678" y="504"/>
      <point x="678" y="335" type="curve" smooth="yes"/>
      <point x="678" y="164"/>
      <point x="542" y="28"/>
      <point x="370" y="28" type="curve" smooth="yes"/>
      <point x="207" y="28"/>
      <point x="70" y="168"/>
      <point x="70" y="335" type="curve" smooth="yes"/>
      <point x="70" y="504"/>
      <point x="206" y="642"/>
    </contour>
  </outline>
</glyph>
<glyph name="ordfeminine" format="1">
  <advance width="422"/>
  <unicode hex="00AA"/>
  <outline>
    <contour>
      <point x="83" y="370" type="line"/>
      <point x="83" y="330" type="line"/>
      <point x="366" y="330" type="line"/>
      <point x="366" y="370" type="line"/>
    </contour>
    <contour>
      <point x="340" y="722" type="line"/>
      <point x="322" y="668" type="line"/>
      <point x="317" y="706"/>
      <point x="285" y="731"/>
      <point x="241" y="731" type="curve" smooth="yes"/>
      <point x="160" y="731"/>
      <point x="83" y="637"/>
      <point x="83" y="539" type="curve" smooth="yes"/>
      <point x="83" y="481"/>
      <point x="121" y="442"/>
      <point x="179" y="442" type="curve" smooth="yes"/>
      <point x="220" y="442"/>
      <point x="245" y="457"/>
      <point x="278" y="500" type="curve"/>
      <point x="276" y="490"/>
      <point x="275" y="486"/>
      <point x="275" y="481" type="curve" smooth="yes"/>
      <point x="275" y="458"/>
      <point x="291" y="442"/>
      <point x="315" y="442" type="curve" smooth="yes"/>
      <point x="354" y="442"/>
      <point x="392" y="475"/>
      <point x="422" y="535" type="curve"/>
      <point x="403" y="545" type="line"/>
      <point x="373" y="495"/>
      <point x="354" y="475"/>
      <point x="338" y="475" type="curve" smooth="yes"/>
      <point x="330" y="475"/>
      <point x="324" y="482"/>
      <point x="324" y="490" type="curve" smooth="yes"/>
      <point x="324" y="496"/>
      <point x="326" y="506"/>
      <point x="331" y="522" type="curve" smooth="yes"/>
      <point x="396" y="722" type="line"/>
    </contour>
    <contour>
      <point x="254" y="698" type="curve" smooth="yes"/>
      <point x="284" y="698"/>
      <point x="303" y="678"/>
      <point x="303" y="645" type="curve" smooth="yes"/>
      <point x="303" y="611"/>
      <point x="289" y="562"/>
      <point x="270" y="526" type="curve" smooth="yes"/>
      <point x="250" y="489"/>
      <point x="226" y="472"/>
      <point x="194" y="472" type="curve" smooth="yes"/>
      <point x="162" y="472"/>
      <point x="142" y="494"/>
      <point x="142" y="531" type="curve" smooth="yes"/>
      <point x="142" y="583"/>
      <point x="167" y="645"/>
      <point x="202" y="677" type="curve" smooth="yes"/>
      <point x="216" y="691"/>
      <point x="234" y="698"/>
    </contour>
  </outline>
</glyph>
<glyph name="guillemotleft" format="1">
  <advance width="426"/>
  <unicode hex="00AB"/>
  <outline>
    <contour>
      <point x="263" y="233" type="line"/>
      <point x="341" y="317" type="line" smooth="yes"/>
      <point x="402" y="380"/>
      <point x="402" y="380"/>
      <point x="402" y="389" type="curve" smooth="yes"/>
      <point x="402" y="396"/>
      <point x="398" y="402"/>
      <point x="393" y="402" type="curve" smooth="yes"/>
      <point x="389" y="402"/>
      <point x="383" y="398"/>
      <point x="369" y="387" type="curve" smooth="yes"/>
      <point x="183" y="243" type="line"/>
      <point x="292" y="100" type="line" smooth="yes"/>
      <point x="300" y="89"/>
      <point x="305" y="85"/>
      <point x="310" y="85" type="curve" smooth="yes"/>
      <point x="319" y="85"/>
      <point x="326" y="92"/>
      <point x="326" y="102" type="curve" smooth="yes"/>
      <point x="326" y="107"/>
      <point x="325" y="110"/>
      <point x="324" y="114" type="curve"/>
    </contour>
    <contour>
      <point x="65" y="233" type="line"/>
      <point x="143" y="317" type="line" smooth="yes"/>
      <point x="204" y="380"/>
      <point x="204" y="380"/>
      <point x="204" y="389" type="curve" smooth="yes"/>
      <point x="204" y="396"/>
      <point x="200" y="402"/>
      <point x="195" y="402" type="curve" smooth="yes"/>
      <point x="191" y="402"/>
      <point x="185" y="398"/>
      <point x="171" y="387" type="curve" smooth="yes"/>
      <point x="159" y="377"/>
      <point x="142" y="364"/>
      <point x="123" y="349" type="curve" smooth="yes"/>
      <point x="62" y="302" type="line"/>
      <point x="-15" y="243" type="line"/>
      <point x="52" y="157" type="line"/>
      <point x="94" y="100" type="line" smooth="yes"/>
      <point x="102" y="89"/>
      <point x="107" y="85"/>
      <point x="112" y="85" type="curve" smooth="yes"/>
      <point x="121" y="85"/>
      <point x="128" y="92"/>
      <point x="128" y="102" type="curve" smooth="yes"/>
      <point x="128" y="107"/>
      <point x="127" y="110"/>
      <point x="126" y="114" type="curve"/>
    </contour>
  </outline>
</glyph>
<glyph name="registered" format="1">
  <advance width="747"/>
  <unicode hex="00AE"/>
  <outline>
    <contour>
      <point x="321" y="339" type="line"/>
      <point x="346" y="339" type="line" smooth="yes"/>
      <point x="394" y="339"/>
      <point x="414" y="318"/>
      <point x="421" y="262" type="curve" smooth="yes"/>
      <point x="424" y="235" type="line" smooth="yes"/>
      <point x="431" y="169"/>
      <point x="452" y="143"/>
      <point x="498" y="143" type="curve" smooth="yes"/>
      <point x="545" y="143"/>
      <point x="571" y="178"/>
      <point x="571" y="238" type="curve" smooth="yes"/>
      <point x="571" y="250" type="line"/>
      <point x="536" y="250" type="line"/>
      <point x="535" y="215"/>
      <point x="530" y="197"/>
      <point x="520" y="197" type="curve" smooth="yes"/>
      <point x="511" y="197"/>
      <point x="509" y="200"/>
      <point x="499" y="238" type="curve" smooth="yes"/>
      <point x="490" y="272" type="line" smooth="yes"/>
      <point x="479" y="317"/>
      <point x="466" y="335"/>
      <point x="435" y="351" type="curve"/>
      <point x="502" y="369"/>
      <point x="530" y="397"/>
      <point x="530" y="449" type="curve" smooth="yes"/>
      <point x="530" y="514"/>
      <point x="477" y="551"/>
      <point x="382" y="551" type="curve" smooth="yes"/>
      <point x="190" y="551" type="line"/>
      <point x="190" y="513" type="line"/>
      <point x="206" y="513" type="line" smooth="yes"/>
      <point x="231" y="513"/>
      <point x="243" y="512"/>
      <point x="246" y="508" type="curve"/>
      <point x="248" y="506"/>
      <point x="248" y="506"/>
      <point x="248" y="479" type="curve" smooth="yes"/>
      <point x="248" y="223" type="line" smooth="yes"/>
      <point x="248" y="197"/>
      <point x="248" y="196"/>
      <point x="246" y="194" type="curve" smooth="yes"/>
      <point x="243" y="191"/>
      <point x="230" y="189"/>
      <point x="206" y="189" type="curve" smooth="yes"/>
      <point x="190" y="189" type="line"/>
      <point x="190" y="151" type="line"/>
      <point x="379" y="151" type="line"/>
      <point x="379" y="189" type="line"/>
      <point x="363" y="189" type="line" smooth="yes"/>
      <point x="339" y="189"/>
      <point x="326" y="191"/>
      <point x="323" y="194" type="curve"/>
      <point x="321" y="197"/>
      <point x="321" y="197"/>
      <point x="321" y="223" type="curve" smooth="yes"/>
    </contour>
    <contour>
      <point x="321" y="377" type="line"/>
      <point x="321" y="489" type="line" smooth="yes"/>
      <point x="321" y="513"/>
      <point x="321" y="513"/>
      <point x="351" y="513" type="curve" smooth="yes"/>
      <point x="381" y="513" type="line" smooth="yes"/>
      <point x="431" y="513"/>
      <point x="451" y="495"/>
      <point x="451" y="448" type="curve" smooth="yes"/>
      <point x="451" y="400"/>
      <point x="426" y="377"/>
      <point x="373" y="377" type="curve" smooth="yes"/>
    </contour>
    <contour>
      <point x="373" y="685" type="curve" smooth="yes"/>
      <point x="180" y="685"/>
      <point x="23" y="528"/>
      <point x="23" y="335" type="curve" smooth="yes"/>
      <point x="23" y="144"/>
      <point x="180" y="-15"/>
      <point x="369" y="-15" type="curve" smooth="yes"/>
      <point x="567" y="-15"/>
      <point x="723" y="140"/>
      <point x="723" y="336" type="curve" smooth="yes"/>
      <point x="723" y="528"/>
      <point x="566" y="685"/>
    </contour>
    <contour>
      <point x="373" y="642" type="curve" smooth="yes"/>
      <point x="540" y="642"/>
      <point x="677" y="504"/>
      <point x="677" y="336" type="curve" smooth="yes"/>
      <point x="677" y="164"/>
      <point x="541" y="28"/>
      <point x="369" y="28" type="curve" smooth="yes"/>
      <point x="206" y="28"/>
      <point x="69" y="168"/>
      <point x="69" y="335" type="curve" smooth="yes"/>
      <point x="69" y="504"/>
      <point x="205" y="642"/>
    </contour>
  </outline>
</glyph>
<glyph name="macron" format="1">
  <advance width="333"/>
  <unicode hex="00AF"/>
  <outline>
    <contour>
      <point x="62" y="610" type="line"/>
      <point x="51" y="559" type="line"/>
      <point x="352" y="559" type="line"/>
      <point x="363" y="610" type="line"/>
    </contour>
  </outline>
</glyph>
<glyph name="plusminus" format="1">
  <advance width="606"/>
  <unicode hex="00B1"/>
  <outline>
    <contour>
      <point x="249" y="288" type="line"/>
      <point x="249" y="113" type="line"/>
      <point x="329" y="113" type="line"/>
      <point x="329" y="288" type="line"/>
      <point x="540" y="288" type="line"/>
      <point x="540" y="368" type="line"/>
      <point x="329" y="368" type="line"/>
      <point x="329" y="581" type="line"/>
      <point x="249" y="581" type="line"/>
      <point x="249" y="368" type="line"/>
      <point x="37" y="368" type="line"/>
      <point x="37" y="288" type="line"/>
    </contour>
    <contour>
      <point x="37" y="0" type="line"/>
      <point x="540" y="0" type="line"/>
      <point x="540" y="80" type="line"/>
      <point x="37" y="80" type="line"/>
    </contour>
  </outline>
</glyph>
<glyph name="acute" format="1">
  <advance width="333"/>
  <unicode hex="00B4"/>
  <outline>
    <contour>
      <point x="132" y="519" type="line"/>
      <point x="171" y="519" type="line"/>
      <point x="330" y="615" type="line" smooth="yes"/>
      <point x="345" y="625"/>
      <point x="355" y="640"/>
      <point x="355" y="654" type="curve" smooth="yes"/>
      <point x="355" y="673"/>
      <point x="339" y="689"/>
      <point x="320" y="689" type="curve" smooth="yes"/>
      <point x="305" y="689"/>
      <point x="294" y="682"/>
      <point x="270" y="659" type="curve" smooth="yes"/>
    </contour>
  </outline>
</glyph>
<glyph name="paragraph" format="1">
  <advance width="650"/>
  <unicode hex="00B6"/>
  <outline>
    <contour>
      <point x="279" y="324" type="line"/>
      <point x="187" y="-21" type="line" smooth="yes"/>
      <point x="169" y="-86"/>
      <point x="169" y="-86"/>
      <point x="161" y="-94" type="curve"/>
      <point x="152" y="-102"/>
      <point x="126" y="-108"/>
      <point x="96" y="-108" type="curve" smooth="yes"/>
      <point x="91" y="-108" type="line"/>
      <point x="88" y="-144" type="line"/>
      <point x="427" y="-144" type="line"/>
      <point x="430" y="-108" type="line"/>
      <point x="383" y="-105"/>
      <point x="373" y="-101"/>
      <point x="373" y="-86" type="curve" smooth="yes"/>
      <point x="373" y="-78"/>
      <point x="373" y="-78"/>
      <point x="388" y="-21" type="curve" smooth="yes"/>
      <point x="554" y="599" type="line" smooth="yes"/>
      <point x="558" y="612"/>
      <point x="561" y="625"/>
      <point x="564" y="638" type="curve"/>
      <point x="567" y="646" type="line"/>
      <point x="571" y="661"/>
      <point x="574" y="667"/>
      <point x="580" y="672" type="curve" smooth="yes"/>
      <point x="590" y="681"/>
      <point x="602" y="684"/>
      <point x="642" y="686" type="curve"/>
      <point x="645" y="722" type="line"/>
      <point x="391" y="722" type="line" smooth="yes"/>
      <point x="330" y="722"/>
      <point x="330" y="722"/>
      <point x="315" y="720" type="curve" smooth="yes"/>
      <point x="264" y="714"/>
      <point x="225" y="699"/>
      <point x="193" y="672" type="curve" smooth="yes"/>
      <point x="135" y="624"/>
      <point x="95" y="535"/>
      <point x="95" y="455" type="curve" smooth="yes"/>
      <point x="95" y="367"/>
      <point x="145" y="324"/>
      <point x="246" y="324" type="curve" smooth="yes"/>
    </contour>
    <contour>
      <point x="288" y="357" type="line"/>
      <point x="268" y="357" type="line" smooth="yes"/>
      <point x="237" y="357"/>
      <point x="219" y="379"/>
      <point x="219" y="416" type="curve" smooth="yes"/>
      <point x="219" y="432"/>
      <point x="223" y="458"/>
      <point x="229" y="481" type="curve" smooth="yes"/>
      <point x="251" y="563" type="line" smooth="yes"/>
      <point x="275" y="654"/>
      <point x="309" y="687"/>
      <point x="376" y="686" type="curve"/>
    </contour>
    <contour>
      <point x="512" y="686" type="line"/>
      <point x="300" y="-107" type="line"/>
      <point x="229" y="-107" type="line"/>
      <point x="441" y="686" type="line"/>
    </contour>
  </outline>
</glyph>
<glyph name="periodcentered" format="1">
  <advance width="278"/>
  <unicode hex="00B7"/>
  <outline>
    <contour>
      <point x="139" y="307" type="curve" smooth="yes"/>
      <point x="105" y="307"/>
      <point x="77" y="279"/>
      <point x="77" y="245" type="curve" smooth="yes"/>
      <point x="77" y="211"/>
      <point x="105" y="183"/>
      <point x="138" y="183" type="curve" smooth="yes"/>
      <point x="173" y="183"/>
      <point x="201" y="210"/>
      <point x="201" y="245" type="curve" smooth="yes"/>
      <point x="201" y="279"/>
      <point x="173" y="307"/>
    </contour>
  </outline>
</glyph>
<glyph name="cedilla" format="1">
  <advance width="333"/>
  <unicode hex="00B8"/>
  <outline>
    <contour>
      <point x="142" y="0" type="line"/>
      <point x="107" y="0" type="line"/>
      <point x="49" y="-99" type="line"/>
      <point x="58" y="-105" type="line"/>
      <point x="71" y="-101"/>
      <point x="81" y="-99"/>
      <point x="91" y="-99" type="curve" smooth="yes"/>
      <point x="120" y="-99"/>
      <point x="139" y="-114"/>
      <point x="139" y="-138" type="curve" smooth="yes"/>
      <point x="139" y="-162"/>
      <point x="117" y="-178"/>
      <point x="83" y="-178" type="curve" smooth="yes"/>
      <point x="64" y="-178"/>
      <point x="45" y="-174"/>
      <point x="21" y="-166" type="curve"/>
      <point x="3" y="-199" type="line"/>
      <point x="31" y="-211"/>
      <point x="59" y="-216"/>
      <point x="91" y="-216" type="curve" smooth="yes"/>
      <point x="166" y="-216"/>
      <point x="215" y="-181"/>
      <point x="215" y="-129" type="curve" smooth="yes"/>
      <point x="215" y="-89"/>
      <point x="182" y="-61"/>
      <point x="134" y="-61" type="curve" smooth="yes"/>
      <point x="125" y="-61"/>
      <point x="118" y="-62"/>
      <point x="104" y="-64" type="curve"/>
    </contour>
  </outline>
</glyph>
<glyph name="ordmasculine" format="1">
  <advance width="372"/>
  <unicode hex="00BA"/>
  <outline>
    <contour>
      <point x="83" y="369" type="line"/>
      <point x="83" y="329" type="line"/>
      <point x="367" y="329" type="line"/>
      <point x="367" y="369" type="line"/>
    </contour>
    <contour>
      <point x="257" y="731" type="curve" smooth="yes"/>
      <point x="165" y="731"/>
      <point x="83" y="648"/>
      <point x="83" y="555" type="curve" smooth="yes"/>
      <point x="83" y="484"/>
      <point x="125" y="442"/>
      <point x="196" y="442" type="curve" smooth="yes"/>
      <point x="246" y="442"/>
      <point x="284" y="458"/>
      <point x="317" y="491" type="curve" smooth="yes"/>
      <point x="351" y="525"/>
      <point x="372" y="574"/>
      <point x="372" y="619" type="curve" smooth="yes"/>
      <point x="372" y="680"/>
      <point x="320" y="731"/>
    </contour>
    <contour>
      <point x="254" y="708" type="curve" smooth="yes"/>
      <point x="289" y="708"/>
      <point x="310" y="682"/>
      <point x="310" y="638" type="curve" smooth="yes"/>
      <point x="310" y="608"/>
      <point x="302" y="571"/>
      <point x="287" y="539" type="curve" smooth="yes"/>
      <point x="265" y="488"/>
      <point x="238" y="465"/>
      <point x="200" y="465" type="curve" smooth="yes"/>
      <point x="162" y="465"/>
      <point x="142" y="487"/>
      <point x="142" y="528" type="curve" smooth="yes"/>
      <point x="142" y="577"/>
      <point x="164" y="644"/>
      <point x="191" y="676" type="curve" smooth="yes"/>
      <point x="209" y="697"/>
      <point x="230" y="708"/>
    </contour>
  </outline>
</glyph>
<glyph name="guillemotright" format="1">
  <advance width="426"/>
  <unicode hex="00BB"/>
  <outline>
    <contour>
      <point x="122" y="254" type="line"/>
      <point x="43" y="170" type="line" smooth="yes"/>
      <point x="-17" y="107"/>
      <point x="-17" y="107"/>
      <point x="-17" y="98" type="curve" smooth="yes"/>
      <point x="-17" y="91"/>
      <point x="-13" y="85"/>
      <point x="-8" y="85" type="curve" smooth="yes"/>
      <point x="-4" y="85"/>
      <point x="2" y="89"/>
      <point x="16" y="100" type="curve" smooth="yes"/>
      <point x="202" y="243" type="line"/>
      <point x="93" y="387" type="line" smooth="yes"/>
      <point x="85" y="398"/>
      <point x="80" y="402"/>
      <point x="75" y="402" type="curve" smooth="yes"/>
      <point x="66" y="402"/>
      <point x="59" y="395"/>
      <point x="59" y="385" type="curve" smooth="yes"/>
      <point x="59" y="380"/>
      <point x="60" y="376"/>
      <point x="61" y="373" type="curve"/>
    </contour>
    <contour>
      <point x="320" y="254" type="line"/>
      <point x="241" y="170" type="line" smooth="yes"/>
      <point x="181" y="107"/>
      <point x="181" y="107"/>
      <point x="181" y="98" type="curve" smooth="yes"/>
      <point x="181" y="91"/>
      <point x="185" y="85"/>
      <point x="190" y="85" type="curve" smooth="yes"/>
      <point x="194" y="85"/>
      <point x="200" y="89"/>
      <point x="214" y="100" type="curve" smooth="yes"/>
      <point x="400" y="243" type="line"/>
      <point x="392" y="254"/>
      <point x="369" y="283"/>
      <point x="333" y="330" type="curve" smooth="yes"/>
      <point x="291" y="387" type="line" smooth="yes"/>
      <point x="283" y="398"/>
      <point x="278" y="402"/>
      <point x="273" y="402" type="curve" smooth="yes"/>
      <point x="264" y="402"/>
      <point x="257" y="395"/>
      <point x="257" y="385" type="curve" smooth="yes"/>
      <point x="257" y="380"/>
      <point x="258" y="376"/>
      <point x="259" y="373" type="curve"/>
    </contour>
  </outline>
</glyph>
<glyph name="onequarter" format="1">
  <advance width="834"/>
  <unicode hex="00BC"/>
  <outline>
    <contour>
      <point x="606" y="708" type="line"/>
      <point x="223" y="0" type="line"/>
      <point x="277" y="0" type="line"/>
      <point x="660" y="708" type="line"/>
    </contour>
    <contour>
      <point x="833" y="424" type="line"/>
      <point x="793" y="424" type="line"/>
      <point x="498" y="139" type="line"/>
      <point x="498" y="109" type="line"/>
      <point x="675" y="109" type="line"/>
      <point x="665" y="77" type="line"/>
      <point x="661" y="61" type="line" smooth="yes"/>
      <point x="654" y="37"/>
      <point x="649" y="35"/>
      <point x="602" y="35" type="curve" smooth="yes"/>
      <point x="587" y="35" type="line"/>
      <point x="583" y="0" type="line"/>
      <point x="785" y="0" type="line"/>
      <point x="789" y="35" type="line"/>
      <point x="774" y="35" type="line" smooth="yes"/>
      <point x="735" y="35"/>
      <point x="727" y="37"/>
      <point x="727" y="48" type="curve" smooth="yes"/>
      <point x="727" y="52"/>
      <point x="727" y="52"/>
      <point x="733" y="75" type="curve" smooth="yes"/>
      <point x="743" y="109" type="line"/>
      <point x="815" y="109" type="line"/>
      <point x="825" y="148" type="line"/>
      <point x="754" y="148" type="line"/>
    </contour>
    <contour>
      <point x="686" y="148" type="line"/>
      <point x="555" y="148" type="line"/>
      <point x="735" y="321" type="line"/>
    </contour>
    <contour>
      <point x="299" y="712" type="line"/>
      <point x="275" y="712" type="line"/>
      <point x="241" y="687"/>
      <point x="173" y="667"/>
      <point x="127" y="667" type="curve"/>
      <point x="118" y="635" type="line"/>
      <point x="166" y="635" type="line" smooth="yes"/>
      <point x="203" y="635"/>
      <point x="206" y="634"/>
      <point x="206" y="627" type="curve" smooth="yes"/>
      <point x="206" y="623"/>
      <point x="205" y="619"/>
      <point x="204" y="614" type="curve"/>
      <point x="201" y="607"/>
      <point x="199" y="602"/>
      <point x="199" y="601" type="curve"/>
      <point x="131" y="364" type="line" smooth="yes"/>
      <point x="122" y="333"/>
      <point x="122" y="333"/>
      <point x="118" y="329" type="curve"/>
      <point x="112" y="324"/>
      <point x="97" y="322"/>
      <point x="68" y="322" type="curve" smooth="yes"/>
      <point x="37" y="322" type="line"/>
      <point x="33" y="288" type="line"/>
      <point x="273" y="288" type="line"/>
      <point x="278" y="322" type="line"/>
      <point x="240" y="322" type="line" smooth="yes"/>
      <point x="201" y="322"/>
      <point x="193" y="324"/>
      <point x="193" y="335" type="curve" smooth="yes"/>
      <point x="193" y="339"/>
      <point x="193" y="339"/>
      <point x="199" y="363" type="curve" smooth="yes"/>
    </contour>
  </outline>
</glyph>
<glyph name="onehalf" format="1">
  <advance width="834"/>
  <unicode hex="00BD"/>
  <outline>
    <contour>
      <point x="599" y="708" type="line"/>
      <point x="216" y="0" type="line"/>
      <point x="270" y="0" type="line"/>
      <point x="653" y="708" type="line"/>
    </contour>
    <contour>
      <point x="299" y="712" type="line"/>
      <point x="275" y="712" type="line"/>
      <point x="241" y="687"/>
      <point x="173" y="667"/>
      <point x="127" y="667" type="curve"/>
      <point x="118" y="635" type="line"/>
      <point x="166" y="635" type="line" smooth="yes"/>
      <point x="203" y="635"/>
      <point x="206" y="634"/>
      <point x="206" y="627" type="curve" smooth="yes"/>
      <point x="206" y="623"/>
      <point x="205" y="619"/>
      <point x="204" y="614" type="curve"/>
      <point x="201" y="607"/>
      <point x="199" y="602"/>
      <point x="199" y="601" type="curve"/>
      <point x="131" y="364" type="line" smooth="yes"/>
      <point x="122" y="333"/>
      <point x="122" y="333"/>
      <point x="118" y="329" type="curve"/>
      <point x="112" y="324"/>
      <point x="97" y="322"/>
      <point x="68" y="322" type="curve" smooth="yes"/>
      <point x="37" y="322" type="line"/>
      <point x="33" y="288" type="line"/>
      <point x="273" y="288" type="line"/>
      <point x="278" y="322" type="line"/>
      <point x="240" y="322" type="line" smooth="yes"/>
      <point x="201" y="322"/>
      <point x="193" y="324"/>
      <point x="193" y="335" type="curve" smooth="yes"/>
      <point x="193" y="339"/>
      <point x="193" y="339"/>
      <point x="199" y="363" type="curve" smooth="yes"/>
    </contour>
    <contour>
      <point x="771" y="0" type="line"/>
      <point x="822" y="119" type="line"/>
      <point x="793" y="130" type="line"/>
      <point x="775" y="100" type="line" smooth="yes"/>
      <point x="753" y="62"/>
      <point x="745" y="57"/>
      <point x="716" y="57" type="curve" smooth="yes"/>
      <point x="574" y="57" type="line"/>
      <point x="588" y="73"/>
      <point x="618" y="95"/>
      <point x="663" y="124" type="curve" smooth="yes"/>
      <point x="752" y="181"/>
      <point x="754" y="183"/>
      <point x="771" y="195" type="curve" smooth="yes"/>
      <point x="822" y="232"/>
      <point x="844" y="268"/>
      <point x="844" y="315" type="curve" smooth="yes"/>
      <point x="844" y="379"/>
      <point x="792" y="422"/>
      <point x="716" y="422" type="curve" smooth="yes"/>
      <point x="634" y="422"/>
      <point x="562" y="365"/>
      <point x="562" y="299" type="curve" smooth="yes"/>
      <point x="562" y="264"/>
      <point x="582" y="241"/>
      <point x="614" y="241" type="curve" smooth="yes"/>
      <point x="639" y="241"/>
      <point x="658" y="259"/>
      <point x="658" y="282" type="curve" smooth="yes"/>
      <point x="658" y="299"/>
      <point x="649" y="310"/>
      <point x="628" y="321" type="curve" smooth="yes"/>
      <point x="614" y="328"/>
      <point x="612" y="330"/>
      <point x="612" y="336" type="curve" smooth="yes"/>
      <point x="612" y="359"/>
      <point x="658" y="386"/>
      <point x="698" y="386" type="curve" smooth="yes"/>
      <point x="742" y="386"/>
      <point x="771" y="360"/>
      <point x="771" y="320" type="curve" smooth="yes"/>
      <point x="771" y="278"/>
      <point x="750" y="245"/>
      <point x="694" y="200" type="curve" smooth="yes"/>
      <point x="520" y="60"/>
      <point x="496" y="37"/>
      <point x="491" y="0" type="curve"/>
    </contour>
  </outline>
</glyph>
<glyph name="threequarters" format="1">
  <advance width="834"/>
  <unicode hex="00BE"/>
  <outline>
    <contour>
      <point x="618" y="708" type="line"/>
      <point x="235" y="0" type="line"/>
      <point x="289" y="0" type="line"/>
      <point x="672" y="708" type="line"/>
    </contour>
    <contour>
      <point x="833" y="424" type="line"/>
      <point x="793" y="424" type="line"/>
      <point x="498" y="139" type="line"/>
      <point x="498" y="109" type="line"/>
      <point x="675" y="109" type="line"/>
      <point x="665" y="77" type="line"/>
      <point x="661" y="61" type="line" smooth="yes"/>
      <point x="654" y="37"/>
      <point x="649" y="35"/>
      <point x="602" y="35" type="curve" smooth="yes"/>
      <point x="587" y="35" type="line"/>
      <point x="583" y="0" type="line"/>
      <point x="785" y="0" type="line"/>
      <point x="789" y="35" type="line"/>
      <point x="774" y="35" type="line" smooth="yes"/>
      <point x="735" y="35"/>
      <point x="727" y="37"/>
      <point x="727" y="48" type="curve" smooth="yes"/>
      <point x="727" y="52"/>
      <point x="727" y="52"/>
      <point x="733" y="75" type="curve" smooth="yes"/>
      <point x="743" y="109" type="line"/>
      <point x="815" y="109" type="line"/>
      <point x="825" y="148" type="line"/>
      <point x="754" y="148" type="line"/>
    </contour>
    <contour>
      <point x="686" y="148" type="line"/>
      <point x="555" y="148" type="line"/>
      <point x="735" y="321" type="line"/>
    </contour>
    <contour>
      <point x="231" y="506" type="curve"/>
      <point x="232" y="506"/>
      <point x="236" y="508"/>
      <point x="242" y="510" type="curve" smooth="yes"/>
      <point x="297" y="527"/>
      <point x="331" y="566"/>
      <point x="331" y="613" type="curve" smooth="yes"/>
      <point x="331" y="670"/>
      <point x="279" y="710"/>
      <point x="206" y="710" type="curve" smooth="yes"/>
      <point x="136" y="710"/>
      <point x="76" y="668"/>
      <point x="76" y="618" type="curve" smooth="yes"/>
      <point x="76" y="592"/>
      <point x="94" y="574"/>
      <point x="119" y="574" type="curve" smooth="yes"/>
      <point x="141" y="574"/>
      <point x="158" y="590"/>
      <point x="158" y="611" type="curve" smooth="yes"/>
      <point x="158" y="622"/>
      <point x="154" y="630"/>
      <point x="144" y="640" type="curve"/>
      <point x="138" y="645"/>
      <point x="136" y="648"/>
      <point x="136" y="651" type="curve" smooth="yes"/>
      <point x="136" y="663"/>
      <point x="167" y="677"/>
      <point x="195" y="677" type="curve" smooth="yes"/>
      <point x="237" y="677"/>
      <point x="261" y="656"/>
      <point x="261" y="621" type="curve" smooth="yes"/>
      <point x="261" y="571"/>
      <point x="221" y="523"/>
      <point x="179" y="523" type="curve" smooth="yes"/>
      <point x="178" y="523"/>
      <point x="172" y="523"/>
      <point x="165" y="524" type="curve"/>
      <point x="145" y="525"/>
      <point x="144" y="525"/>
      <point x="143" y="525" type="curve" smooth="yes"/>
      <point x="128" y="525"/>
      <point x="118" y="517"/>
      <point x="118" y="505" type="curve" smooth="yes"/>
      <point x="118" y="494"/>
      <point x="127" y="487"/>
      <point x="140" y="487" type="curve" smooth="yes"/>
      <point x="143" y="487"/>
      <point x="148" y="487"/>
      <point x="153" y="488" type="curve"/>
      <point x="162" y="489"/>
      <point x="171" y="490"/>
      <point x="176" y="490" type="curve" smooth="yes"/>
      <point x="206" y="490"/>
      <point x="226" y="467"/>
      <point x="226" y="432" type="curve" smooth="yes"/>
      <point x="226" y="360"/>
      <point x="183" y="311"/>
      <point x="118" y="311" type="curve" smooth="yes"/>
      <point x="84" y="311"/>
      <point x="54" y="326"/>
      <point x="54" y="343" type="curve" smooth="yes"/>
      <point x="54" y="347"/>
      <point x="56" y="349"/>
      <point x="65" y="353" type="curve" smooth="yes"/>
      <point x="84" y="361"/>
      <point x="93" y="372"/>
      <point x="93" y="390" type="curve" smooth="yes"/>
      <point x="93" y="411"/>
      <point x="73" y="429"/>
      <point x="49" y="429" type="curve" smooth="yes"/>
      <point x="20" y="429"/>
      <point x="1" y="407"/>
      <point x="1" y="375" type="curve" smooth="yes"/>
      <point x="1" y="316"/>
      <point x="49" y="279"/>
      <point x="127" y="279" type="curve" smooth="yes"/>
      <point x="226" y="279"/>
      <point x="301" y="340"/>
      <point x="301" y="421" type="curve" smooth="yes"/>
      <point x="301" y="462"/>
      <point x="276" y="492"/>
    </contour>
  </outline>
</glyph>
<glyph name="questiondown" format="1">
  <advance width="444"/>
  <unicode hex="00BF"/>
  <outline>
    <contour>
      <point x="134" y="223" type="line"/>
      <point x="142" y="248"/>
      <point x="145" y="256"/>
      <point x="152" y="266" type="curve" smooth="yes"/>
      <point x="165" y="284"/>
      <point x="188" y="296"/>
      <point x="212" y="296" type="curve" smooth="yes"/>
      <point x="240" y="296"/>
      <point x="257" y="277"/>
      <point x="257" y="247" type="curve" smooth="yes"/>
      <point x="257" y="215"/>
      <point x="238" y="190"/>
      <point x="190" y="159" type="curve" smooth="yes"/>
      <point x="117" y="112"/>
      <point x="117" y="112"/>
      <point x="90" y="88" type="curve" smooth="yes"/>
      <point x="32" y="39"/>
      <point x="7" y="-7"/>
      <point x="7" y="-64" type="curve" smooth="yes"/>
      <point x="7" y="-146"/>
      <point x="63" y="-203"/>
      <point x="143" y="-203" type="curve" smooth="yes"/>
      <point x="241" y="-203"/>
      <point x="311" y="-125"/>
      <point x="311" y="-17" type="curve" smooth="yes"/>
      <point x="311" y="-11"/>
      <point x="311" y="-4"/>
      <point x="310" y="7" type="curve"/>
      <point x="272" y="7" type="line"/>
      <point x="272" y="-44"/>
      <point x="268" y="-69"/>
      <point x="256" y="-93" type="curve" smooth="yes"/>
      <point x="233" y="-137"/>
      <point x="192" y="-163"/>
      <point x="145" y="-163" type="curve" smooth="yes"/>
      <point x="102" y="-163"/>
      <point x="70" y="-134"/>
      <point x="70" y="-97" type="curve" smooth="yes"/>
      <point x="70" y="-58"/>
      <point x="91" y="-28"/>
      <point x="148" y="16" type="curve" smooth="yes"/>
      <point x="265" y="105"/>
      <point x="307" y="163"/>
      <point x="307" y="234" type="curve" smooth="yes"/>
      <point x="307" y="294"/>
      <point x="269" y="334"/>
      <point x="213" y="334" type="curve" smooth="yes"/>
      <point x="156" y="334"/>
      <point x="110" y="292"/>
      <point x="98" y="229" type="curve"/>
    </contour>
    <contour>
      <point x="262" y="549" type="curve" smooth="yes"/>
      <point x="227" y="549"/>
      <point x="199" y="522"/>
      <point x="199" y="487" type="curve" smooth="yes"/>
      <point x="199" y="453"/>
      <point x="227" y="425"/>
      <point x="261" y="425" type="curve" smooth="yes"/>
      <point x="295" y="425"/>
      <point x="323" y="453"/>
      <point x="323" y="487" type="curve" smooth="yes"/>
      <point x="323" y="521"/>
      <point x="295" y="549"/>
    </contour>
  </outline>
</glyph>
<glyph name="Atilde" format="1">
  <advance width="704"/>
  <unicode hex="00C3"/>
  <outline>
    <contour>
      <point x="442" y="737" type="line"/>
      <point x="401" y="737" type="line"/>
      <point x="71" y="168" type="line" smooth="yes"/>
      <point x="18" y="80"/>
      <point x="-23" y="47"/>
      <point x="-77" y="47" type="curve"/>
      <point x="-82" y="0" type="line"/>
      <point x="187" y="0" type="line"/>
      <point x="193" y="47" type="line"/>
      <point x="169" y="47" type="line" smooth="yes"/>
      <point x="117" y="47"/>
      <point x="100" y="57"/>
      <point x="100" y="87" type="curve" smooth="yes"/>
      <point x="100" y="102"/>
      <point x="106" y="122"/>
      <point x="118" y="142" type="curve" smooth="yes"/>
      <point x="173" y="238" type="line"/>
      <point x="428" y="238" type="line"/>
      <point x="451" y="115" type="line" smooth="yes"/>
      <point x="453" y="103"/>
      <point x="455" y="90"/>
      <point x="455" y="83" type="curve" smooth="yes"/>
      <point x="455" y="54"/>
      <point x="440" y="47"/>
      <point x="383" y="47" type="curve" smooth="yes"/>
      <point x="367" y="47" type="line"/>
      <point x="362" y="0" type="line"/>
      <point x="663" y="0" type="line"/>
      <point x="668" y="47" type="line"/>
      <point x="643" y="47" type="line" smooth="yes"/>
      <point x="588" y="47"/>
      <point x="577" y="56"/>
      <point x="567" y="108" type="curve" smooth="yes"/>
    </contour>
    <contour>
      <point x="420" y="285" type="line"/>
      <point x="200" y="285" type="line"/>
      <point x="363" y="572" type="line"/>
    </contour>
    <contour>
      <point x="568" y="917" type="line"/>
      <point x="556" y="887"/>
      <point x="541" y="875"/>
      <point x="519" y="875" type="curve" smooth="yes"/>
      <point x="505" y="875"/>
      <point x="495" y="877"/>
      <point x="460" y="890" type="curve" smooth="yes"/>
      <point x="400" y="910"/>
      <point x="378" y="916"/>
      <point x="360" y="916" type="curve" smooth="yes"/>
      <point x="315" y="916"/>
      <point x="282" y="877"/>
      <point x="270" y="812" type="curve"/>
      <point x="300" y="812" type="line"/>
      <point x="309" y="842"/>
      <point x="323" y="856"/>
      <point x="345" y="856" type="curve" smooth="yes"/>
      <point x="359" y="856"/>
      <point x="375" y="852"/>
      <point x="419" y="836" type="curve" smooth="yes"/>
      <point x="472" y="816"/>
      <point x="483" y="813"/>
      <point x="505" y="813" type="curve" smooth="yes"/>
      <point x="549" y="813"/>
      <point x="592" y="861"/>
      <point x="598" y="917" type="curve"/>
    </contour>
  </outline>
</glyph>
<glyph name="Adieresis" format="1">
  <advance width="704"/>
  <unicode hex="00C4"/>
  <outline>
    <contour>
      <point x="442" y="737" type="line"/>
      <point x="401" y="737" type="line"/>
      <point x="71" y="168" type="line" smooth="yes"/>
      <point x="18" y="80"/>
      <point x="-23" y="47"/>
      <point x="-77" y="47" type="curve"/>
      <point x="-82" y="0" type="line"/>
      <point x="187" y="0" type="line"/>
      <point x="193" y="47" type="line"/>
      <point x="169" y="47" type="line" smooth="yes"/>
      <point x="117" y="47"/>
      <point x="100" y="57"/>
      <point x="100" y="87" type="curve" smooth="yes"/>
      <point x="100" y="102"/>
      <point x="106" y="122"/>
      <point x="118" y="142" type="curve" smooth="yes"/>
      <point x="173" y="238" type="line"/>
      <point x="428" y="238" type="line"/>
      <point x="451" y="115" type="line" smooth="yes"/>
      <point x="453" y="103"/>
      <point x="455" y="90"/>
      <point x="455" y="83" type="curve" smooth="yes"/>
      <point x="455" y="54"/>
      <point x="440" y="47"/>
      <point x="383" y="47" type="curve" smooth="yes"/>
      <point x="367" y="47" type="line"/>
      <point x="362" y="0" type="line"/>
      <point x="663" y="0" type="line"/>
      <point x="668" y="47" type="line"/>
      <point x="643" y="47" type="line" smooth="yes"/>
      <point x="588" y="47"/>
      <point x="577" y="56"/>
      <point x="567" y="108" type="curve" smooth="yes"/>
    </contour>
    <contour>
      <point x="420" y="285" type="line"/>
      <point x="200" y="285" type="line"/>
      <point x="363" y="572" type="line"/>
    </contour>
    <contour>
      <point x="320" y="910" type="curve" smooth="yes"/>
      <point x="293" y="910"/>
      <point x="271" y="888"/>
      <point x="271" y="861" type="curve" smooth="yes"/>
      <point x="271" y="834"/>
      <point x="293" y="812"/>
      <point x="319" y="812" type="curve" smooth="yes"/>
      <point x="347" y="812"/>
      <point x="369" y="834"/>
      <point x="369" y="861" type="curve" smooth="yes"/>
      <point x="369" y="888"/>
      <point x="347" y="910"/>
    </contour>
    <contour>
      <point x="522" y="910" type="curve" smooth="yes"/>
      <point x="495" y="910"/>
      <point x="473" y="888"/>
      <point x="473" y="861" type="curve" smooth="yes"/>
      <point x="473" y="834"/>
      <point x="495" y="812"/>
      <point x="521" y="812" type="curve" smooth="yes"/>
      <point x="549" y="812"/>
      <point x="571" y="834"/>
      <point x="571" y="861" type="curve" smooth="yes"/>
      <point x="571" y="888"/>
      <point x="549" y="910"/>
    </contour>
  </outline>
</glyph>
<glyph name="Aring" format="1">
  <advance width="704"/>
  <unicode hex="00C5"/>
  <outline>
    <contour>
      <point x="442" y="737" type="line"/>
      <point x="401" y="737" type="line"/>
      <point x="71" y="168" type="line" smooth="yes"/>
      <point x="18" y="80"/>
      <point x="-23" y="47"/>
      <point x="-77" y="47" type="curve"/>
      <point x="-82" y="0" type="line"/>
      <point x="187" y="0" type="line"/>
      <point x="193" y="47" type="line"/>
      <point x="169" y="47" type="line" smooth="yes"/>
      <point x="117" y="47"/>
      <point x="100" y="57"/>
      <point x="100" y="87" type="curve" smooth="yes"/>
      <point x="100" y="102"/>
      <point x="106" y="122"/>
      <point x="118" y="142" type="curve" smooth="yes"/>
      <point x="173" y="238" type="line"/>
      <point x="428" y="238" type="line"/>
      <point x="451" y="115" type="line" smooth="yes"/>
      <point x="453" y="103"/>
      <point x="455" y="90"/>
      <point x="455" y="83" type="curve" smooth="yes"/>
      <point x="455" y="54"/>
      <point x="440" y="47"/>
      <point x="383" y="47" type="curve" smooth="yes"/>
      <point x="367" y="47" type="line"/>
      <point x="362" y="0" type="line"/>
      <point x="663" y="0" type="line"/>
      <point x="668" y="47" type="line"/>
      <point x="643" y="47" type="line" smooth="yes"/>
      <point x="588" y="47"/>
      <point x="577" y="56"/>
      <point x="567" y="108" type="curve" smooth="yes"/>
    </contour>
    <contour>
      <point x="420" y="285" type="line"/>
      <point x="200" y="285" type="line"/>
      <point x="363" y="572" type="line"/>
    </contour>
    <contour>
      <point x="431" y="966" type="curve" smooth="yes"/>
      <point x="377" y="966"/>
      <point x="332" y="921"/>
      <point x="332" y="867" type="curve" smooth="yes"/>
      <point x="332" y="813"/>
      <point x="377" y="767"/>
      <point x="430" y="767" type="curve" smooth="yes"/>
      <point x="486" y="767"/>
      <point x="531" y="811"/>
      <point x="531" y="867" type="curve" smooth="yes"/>
      <point x="531" y="921"/>
      <point x="486" y="966"/>
    </contour>
    <contour>
      <point x="431" y="930" type="curve" smooth="yes"/>
      <point x="466" y="930"/>
      <point x="495" y="901"/>
      <point x="495" y="867" type="curve" smooth="yes"/>
      <point x="495" y="831"/>
      <point x="466" y="803"/>
      <point x="431" y="803" type="curve" smooth="yes"/>
      <point x="397" y="803"/>
      <point x="368" y="832"/>
      <point x="368" y="867" type="curve" smooth="yes"/>
      <point x="368" y="901"/>
      <point x="397" y="930"/>
    </contour>
  </outline>
</glyph>
<glyph name="AE" format="1">
  <advance width="870"/>
  <unicode hex="00C6"/>
  <outline>
    <contour>
      <point x="831" y="481" type="line"/>
      <point x="870" y="722" type="line"/>
      <point x="237" y="722" type="line"/>
      <point x="232" y="675" type="line"/>
      <point x="259" y="675" type="line" smooth="yes"/>
      <point x="318" y="675"/>
      <point x="339" y="664"/>
      <point x="339" y="633" type="curve" smooth="yes"/>
      <point x="339" y="614"/>
      <point x="329" y="592"/>
      <point x="302" y="553" type="curve" smooth="yes"/>
      <point x="-18" y="93" type="line" smooth="yes"/>
      <point x="-42" y="61"/>
      <point x="-62" y="47"/>
      <point x="-87" y="47" type="curve"/>
      <point x="-92" y="0" type="line"/>
      <point x="125" y="0" type="line"/>
      <point x="131" y="47" type="line"/>
      <point x="101" y="47"/>
      <point x="91" y="48"/>
      <point x="81" y="52" type="curve" smooth="yes"/>
      <point x="64" y="58"/>
      <point x="54" y="69"/>
      <point x="54" y="83" type="curve" smooth="yes"/>
      <point x="54" y="96"/>
      <point x="64" y="119"/>
      <point x="79" y="141" type="curve" smooth="yes"/>
      <point x="174" y="278" type="line"/>
      <point x="365" y="278" type="line"/>
      <point x="323" y="123" type="line" smooth="yes"/>
      <point x="309" y="69"/>
      <point x="309" y="69"/>
      <point x="300" y="61" type="curve"/>
      <point x="290" y="51"/>
      <point x="266" y="47"/>
      <point x="217" y="47" type="curve" smooth="yes"/>
      <point x="213" y="47" type="line"/>
      <point x="207" y="0" type="line"/>
      <point x="739" y="0" type="line"/>
      <point x="817" y="245" type="line"/>
      <point x="777" y="253" type="line"/>
      <point x="770" y="242"/>
      <point x="768" y="239"/>
      <point x="755" y="214" type="curve" smooth="yes"/>
      <point x="693" y="92"/>
      <point x="627" y="47"/>
      <point x="512" y="47" type="curve" smooth="yes"/>
      <point x="490" y="47" type="line" smooth="yes"/>
      <point x="446" y="47"/>
      <point x="426" y="57"/>
      <point x="426" y="78" type="curve" smooth="yes"/>
      <point x="426" y="87"/>
      <point x="428" y="101"/>
      <point x="433" y="114" type="curve"/>
      <point x="434" y="120"/>
      <point x="436" y="127"/>
      <point x="438" y="134" type="curve" smooth="yes"/>
      <point x="497" y="354" type="line"/>
      <point x="504" y="354" type="line" smooth="yes"/>
      <point x="564" y="354"/>
      <point x="594" y="324"/>
      <point x="594" y="264" type="curve" smooth="yes"/>
      <point x="594" y="241"/>
      <point x="592" y="223"/>
      <point x="585" y="194" type="curve"/>
      <point x="630" y="186" type="line"/>
      <point x="720" y="520" type="line"/>
      <point x="674" y="526" type="line"/>
      <point x="645" y="437"/>
      <point x="599" y="401"/>
      <point x="517" y="401" type="curve" smooth="yes"/>
      <point x="510" y="401" type="line"/>
      <point x="565" y="606" type="line" smooth="yes"/>
      <point x="581" y="667"/>
      <point x="590" y="675"/>
      <point x="642" y="675" type="curve" smooth="yes"/>
      <point x="669" y="675" type="line" smooth="yes"/>
      <point x="748" y="675"/>
      <point x="787" y="634"/>
      <point x="787" y="552" type="curve" smooth="yes"/>
      <point x="787" y="542"/>
      <point x="787" y="524"/>
      <point x="786" y="501" type="curve"/>
      <point x="786" y="481" type="line"/>
    </contour>
    <contour>
      <point x="377" y="325" type="line"/>
      <point x="205" y="325" type="line"/>
      <point x="436" y="654" type="line"/>
      <point x="446" y="670"/>
      <point x="451" y="674"/>
      <point x="457" y="674" type="curve" smooth="yes"/>
      <point x="461" y="674"/>
      <point x="466" y="668"/>
      <point x="466" y="663" type="curve" smooth="yes"/>
      <point x="466" y="660"/>
      <point x="466" y="660"/>
      <point x="460" y="635" type="curve" smooth="yes"/>
    </contour>
  </outline>
</glyph>
<glyph name="Ccedilla" format="1">
  <advance width="722"/>
  <unicode hex="00C7"/>
  <outline>
    <contour>
      <point x="321" y="-15" type="line"/>
      <point x="338" y="-15" type="line" smooth="yes"/>
      <point x="422" y="-15"/>
      <point x="499" y="17"/>
      <point x="554" y="75" type="curve" smooth="yes"/>
      <point x="585" y="107"/>
      <point x="608" y="144"/>
      <point x="634" y="205" type="curve"/>
      <point x="593" y="223" type="line"/>
      <point x="568" y="170"/>
      <point x="554" y="146"/>
      <point x="536" y="125" type="curve" smooth="yes"/>
      <point x="486" y="63"/>
      <point x="426" y="34"/>
      <point x="351" y="34" type="curve" smooth="yes"/>
      <point x="289" y="34"/>
      <point x="241" y="54"/>
      <point x="211" y="93" type="curve" smooth="yes"/>
      <point x="181" y="130"/>
      <point x="165" y="183"/>
      <point x="165" y="240" type="curve" smooth="yes"/>
      <point x="165" y="354"/>
      <point x="205" y="486"/>
      <point x="268" y="583" type="curve" smooth="yes"/>
      <point x="314" y="654"/>
      <point x="381" y="694"/>
      <point x="450" y="694" type="curve" smooth="yes"/>
      <point x="516" y="694"/>
      <point x="563" y="660"/>
      <point x="590" y="593" type="curve" smooth="yes"/>
      <point x="606" y="556"/>
      <point x="613" y="512"/>
      <point x="616" y="435" type="curve"/>
      <point x="657" y="435" type="line"/>
      <point x="713" y="715" type="line"/>
      <point x="677" y="715" type="line"/>
      <point x="617" y="657" type="line"/>
      <point x="569" y="714"/>
      <point x="518" y="737"/>
      <point x="442" y="737" type="curve" smooth="yes"/>
      <point x="332" y="737"/>
      <point x="232" y="685"/>
      <point x="152" y="585" type="curve" smooth="yes"/>
      <point x="78" y="495"/>
      <point x="40" y="391"/>
      <point x="40" y="280" type="curve" smooth="yes"/>
      <point x="40" y="118"/>
      <point x="131" y="10"/>
      <point x="287" y="-12" type="curve"/>
      <point x="237" y="-99" type="line"/>
      <point x="245" y="-105" type="line"/>
      <point x="260" y="-101"/>
      <point x="269" y="-99"/>
      <point x="279" y="-99" type="curve" smooth="yes"/>
      <point x="308" y="-99"/>
      <point x="327" y="-115"/>
      <point x="327" y="-138" type="curve" smooth="yes"/>
      <point x="327" y="-162"/>
      <point x="304" y="-178"/>
      <point x="271" y="-178" type="curve" smooth="yes"/>
      <point x="251" y="-178"/>
      <point x="233" y="-174"/>
      <point x="209" y="-166" type="curve"/>
      <point x="191" y="-199" type="line"/>
      <point x="219" y="-211"/>
      <point x="246" y="-216"/>
      <point x="279" y="-216" type="curve" smooth="yes"/>
      <point x="353" y="-216"/>
      <point x="403" y="-181"/>
      <point x="403" y="-129" type="curve" smooth="yes"/>
      <point x="403" y="-89"/>
      <point x="370" y="-61"/>
      <point x="321" y="-61" type="curve" smooth="yes"/>
      <point x="312" y="-61"/>
      <point x="306" y="-62"/>
      <point x="292" y="-64" type="curve"/>
    </contour>
  </outline>
</glyph>
<glyph name="Iacute" format="1">
  <advance width="407"/>
  <unicode hex="00CD"/>
  <outline>
    <contour>
      <point x="283" y="47" type="line"/>
      <point x="261" y="47" type="line" smooth="yes"/>
      <point x="195" y="47"/>
      <point x="181" y="52"/>
      <point x="181" y="75" type="curve" smooth="yes"/>
      <point x="181" y="84"/>
      <point x="182" y="89"/>
      <point x="191" y="123" type="curve" smooth="yes"/>
      <point x="319" y="599" type="line" smooth="yes"/>
      <point x="333" y="651"/>
      <point x="333" y="652"/>
      <point x="342" y="661" type="curve" smooth="yes"/>
      <point x="354" y="672"/>
      <point x="368" y="674"/>
      <point x="426" y="675" type="curve"/>
      <point x="431" y="722" type="line"/>
      <point x="121" y="722" type="line"/>
      <point x="115" y="675" type="line"/>
      <point x="137" y="675" type="line" smooth="yes"/>
      <point x="203" y="675"/>
      <point x="217" y="670"/>
      <point x="217" y="648" type="curve" smooth="yes"/>
      <point x="217" y="640"/>
      <point x="214" y="626"/>
      <point x="207" y="599" type="curve" smooth="yes"/>
      <point x="79" y="123" type="line" smooth="yes"/>
      <point x="66" y="73"/>
      <point x="65" y="70"/>
      <point x="56" y="61" type="curve" smooth="yes"/>
      <point x="44" y="50"/>
      <point x="31" y="48"/>
      <point x="-28" y="47" type="curve"/>
      <point x="-33" y="0" type="line"/>
      <point x="277" y="0" type="line"/>
    </contour>
    <contour>
      <point x="185" y="774" type="line"/>
      <point x="224" y="774" type="line"/>
      <point x="383" y="874" type="line" smooth="yes"/>
      <point x="398" y="884"/>
      <point x="408" y="898"/>
      <point x="408" y="913" type="curve" smooth="yes"/>
      <point x="408" y="931"/>
      <point x="392" y="947"/>
      <point x="373" y="947" type="curve" smooth="yes"/>
      <point x="358" y="947"/>
      <point x="344" y="939"/>
      <point x="323" y="917" type="curve" smooth="yes"/>
    </contour>
  </outline>
</glyph>
<glyph name="Eth" format="1">
  <advance width="778"/>
  <unicode hex="00D0"/>
  <outline>
    <contour>
      <point x="138" y="354" type="line"/>
      <point x="78" y="123" type="line" smooth="yes"/>
      <point x="64" y="69"/>
      <point x="63" y="69"/>
      <point x="55" y="61" type="curve" smooth="yes"/>
      <point x="44" y="51"/>
      <point x="21" y="47"/>
      <point x="-28" y="47" type="curve" smooth="yes"/>
      <point x="-33" y="47" type="line"/>
      <point x="-38" y="0" type="line"/>
      <point x="271" y="0" type="line" smooth="yes"/>
      <point x="404" y="0"/>
      <point x="492" y="23"/>
      <point x="560" y="77" type="curve" smooth="yes"/>
      <point x="667" y="162"/>
      <point x="735" y="301"/>
      <point x="735" y="435" type="curve" smooth="yes"/>
      <point x="735" y="537"/>
      <point x="698" y="620"/>
      <point x="631" y="670" type="curve" smooth="yes"/>
      <point x="581" y="708"/>
      <point x="518" y="722"/>
      <point x="406" y="722" type="curve" smooth="yes"/>
      <point x="116" y="722" type="line"/>
      <point x="110" y="675" type="line"/>
      <point x="136" y="675" type="line" smooth="yes"/>
      <point x="201" y="675"/>
      <point x="215" y="670"/>
      <point x="215" y="648" type="curve" smooth="yes"/>
      <point x="215" y="640"/>
      <point x="211" y="617"/>
      <point x="206" y="599" type="curve" smooth="yes"/>
      <point x="151" y="401" type="line"/>
      <point x="48" y="401" type="line"/>
      <point x="36" y="354" type="line"/>
    </contour>
    <contour>
      <point x="250" y="354" type="line"/>
      <point x="449" y="354" type="line"/>
      <point x="461" y="401" type="line"/>
      <point x="263" y="401" type="line"/>
      <point x="320" y="610" type="line" smooth="yes"/>
      <point x="330" y="645"/>
      <point x="333" y="653"/>
      <point x="340" y="660" type="curve" smooth="yes"/>
      <point x="351" y="671"/>
      <point x="364" y="675"/>
      <point x="396" y="675" type="curve" smooth="yes"/>
      <point x="426" y="675" type="line" smooth="yes"/>
      <point x="486" y="675"/>
      <point x="537" y="659"/>
      <point x="565" y="631" type="curve" smooth="yes"/>
      <point x="595" y="602"/>
      <point x="613" y="544"/>
      <point x="613" y="480" type="curve" smooth="yes"/>
      <point x="613" y="348"/>
      <point x="545" y="177"/>
      <point x="464" y="104" type="curve" smooth="yes"/>
      <point x="420" y="65"/>
      <point x="355" y="47"/>
      <point x="259" y="47" type="curve" smooth="yes"/>
      <point x="227" y="47" type="line" smooth="yes"/>
      <point x="197" y="47"/>
      <point x="181" y="57"/>
      <point x="181" y="75" type="curve" smooth="yes"/>
      <point x="181" y="84"/>
      <point x="183" y="97"/>
      <point x="187" y="110" type="curve" smooth="yes"/>
    </contour>
  </outline>
</glyph>
<glyph name="Ntilde" format="1">
  <advance width="815"/>
  <unicode hex="00D1"/>
  <outline>
    <contour>
      <point x="315" y="722" type="line"/>
      <point x="104" y="722" type="line"/>
      <point x="99" y="675" type="line"/>
      <point x="151" y="675" type="line" smooth="yes"/>
      <point x="199" y="675"/>
      <point x="208" y="670"/>
      <point x="216" y="643" type="curve"/>
      <point x="102" y="217" type="line" smooth="yes"/>
      <point x="63" y="71"/>
      <point x="44" y="49"/>
      <point x="-43" y="47" type="curve"/>
      <point x="-48" y="0" type="line"/>
      <point x="228" y="0" type="line"/>
      <point x="234" y="47" type="line"/>
      <point x="223" y="47" type="line" smooth="yes"/>
      <point x="162" y="47"/>
      <point x="133" y="65"/>
      <point x="133" y="102" type="curve" smooth="yes"/>
      <point x="133" y="124"/>
      <point x="134" y="128"/>
      <point x="157" y="217" type="curve" smooth="yes"/>
      <point x="256" y="587" type="line"/>
      <point x="534" y="-14" type="line"/>
      <point x="573" y="-14" type="line"/>
      <point x="712" y="505" type="line" smooth="yes"/>
      <point x="750" y="649"/>
      <point x="770" y="672"/>
      <point x="854" y="675" type="curve"/>
      <point x="859" y="722" type="line"/>
      <point x="597" y="722" type="line"/>
      <point x="591" y="675" type="line"/>
      <point x="652" y="675"/>
      <point x="681" y="657"/>
      <point x="681" y="620" type="curve" smooth="yes"/>
      <point x="681" y="598"/>
      <point x="680" y="594"/>
      <point x="658" y="505" type="curve" smooth="yes"/>
      <point x="568" y="170" type="line"/>
    </contour>
    <contour>
      <point x="647" y="917" type="line"/>
      <point x="635" y="887"/>
      <point x="620" y="875"/>
      <point x="598" y="875" type="curve" smooth="yes"/>
      <point x="584" y="875"/>
      <point x="574" y="877"/>
      <point x="539" y="890" type="curve" smooth="yes"/>
      <point x="479" y="910"/>
      <point x="457" y="916"/>
      <point x="439" y="916" type="curve" smooth="yes"/>
      <point x="394" y="916"/>
      <point x="361" y="877"/>
      <point x="349" y="812" type="curve"/>
      <point x="379" y="812" type="line"/>
      <point x="388" y="842"/>
      <point x="402" y="856"/>
      <point x="424" y="856" type="curve" smooth="yes"/>
      <point x="438" y="856"/>
      <point x="454" y="852"/>
      <point x="498" y="836" type="curve" smooth="yes"/>
      <point x="551" y="816"/>
      <point x="562" y="813"/>
      <point x="584" y="813" type="curve" smooth="yes"/>
      <point x="628" y="813"/>
      <point x="671" y="861"/>
      <point x="677" y="917" type="curve"/>
    </contour>
  </outline>
</glyph>
<glyph name="Otilde" format="1">
  <advance width="778"/>
  <unicode hex="00D5"/>
  <outline>
    <contour>
      <point x="457" y="737" type="curve" smooth="yes"/>
      <point x="349" y="737"/>
      <point x="253" y="692"/>
      <point x="169" y="602" type="curve" smooth="yes"/>
      <point x="86" y="514"/>
      <point x="40" y="397"/>
      <point x="40" y="275" type="curve" smooth="yes"/>
      <point x="40" y="98"/>
      <point x="146" y="-15"/>
      <point x="312" y="-15" type="curve" smooth="yes"/>
      <point x="417" y="-15"/>
      <point x="510" y="25"/>
      <point x="590" y="104" type="curve" smooth="yes"/>
      <point x="682" y="196"/>
      <point x="735" y="322"/>
      <point x="735" y="450" type="curve" smooth="yes"/>
      <point x="735" y="537"/>
      <point x="709" y="605"/>
      <point x="655" y="658" type="curve" smooth="yes"/>
      <point x="604" y="708"/>
      <point x="533" y="737"/>
    </contour>
    <contour>
      <point x="460" y="694" type="curve" smooth="yes"/>
      <point x="512" y="694"/>
      <point x="563" y="670"/>
      <point x="584" y="634" type="curve" smooth="yes"/>
      <point x="603" y="603"/>
      <point x="618" y="543"/>
      <point x="618" y="496" type="curve" smooth="yes"/>
      <point x="618" y="393"/>
      <point x="572" y="244"/>
      <point x="510" y="144" type="curve" smooth="yes"/>
      <point x="465" y="71"/>
      <point x="392" y="28"/>
      <point x="314" y="28" type="curve" smooth="yes"/>
      <point x="218" y="28"/>
      <point x="158" y="97"/>
      <point x="158" y="207" type="curve" smooth="yes"/>
      <point x="158" y="328"/>
      <point x="216" y="510"/>
      <point x="281" y="594" type="curve" smooth="yes"/>
      <point x="334" y="662"/>
      <point x="391" y="694"/>
    </contour>
    <contour>
      <point x="649" y="917" type="line"/>
      <point x="637" y="887"/>
      <point x="622" y="875"/>
      <point x="600" y="875" type="curve" smooth="yes"/>
      <point x="586" y="875"/>
      <point x="576" y="877"/>
      <point x="541" y="890" type="curve" smooth="yes"/>
      <point x="481" y="910"/>
      <point x="459" y="916"/>
      <point x="441" y="916" type="curve" smooth="yes"/>
      <point x="396" y="916"/>
      <point x="363" y="877"/>
      <point x="351" y="812" type="curve"/>
      <point x="381" y="812" type="line"/>
      <point x="390" y="842"/>
      <point x="404" y="856"/>
      <point x="426" y="856" type="curve" smooth="yes"/>
      <point x="440" y="856"/>
      <point x="456" y="852"/>
      <point x="500" y="836" type="curve" smooth="yes"/>
      <point x="553" y="816"/>
      <point x="564" y="813"/>
      <point x="586" y="813" type="curve" smooth="yes"/>
      <point x="630" y="813"/>
      <point x="673" y="861"/>
      <point x="679" y="917" type="curve"/>
    </contour>
  </outline>
</glyph>
<glyph name="Odieresis" format="1">
  <advance width="778"/>
  <unicode hex="00D6"/>
  <outline>
    <contour>
      <point x="457" y="737" type="curve" smooth="yes"/>
      <point x="349" y="737"/>
      <point x="253" y="692"/>
      <point x="169" y="602" type="curve" smooth="yes"/>
      <point x="86" y="514"/>
      <point x="40" y="397"/>
      <point x="40" y="275" type="curve" smooth="yes"/>
      <point x="40" y="98"/>
      <point x="146" y="-15"/>
      <point x="312" y="-15" type="curve" smooth="yes"/>
      <point x="417" y="-15"/>
      <point x="510" y="25"/>
      <point x="590" y="104" type="curve" smooth="yes"/>
      <point x="682" y="196"/>
      <point x="735" y="322"/>
      <point x="735" y="450" type="curve" smooth="yes"/>
      <point x="735" y="537"/>
      <point x="709" y="605"/>
      <point x="655" y="658" type="curve" smooth="yes"/>
      <point x="604" y="708"/>
      <point x="533" y="737"/>
    </contour>
    <contour>
      <point x="460" y="694" type="curve" smooth="yes"/>
      <point x="512" y="694"/>
      <point x="563" y="670"/>
      <point x="584" y="634" type="curve" smooth="yes"/>
      <point x="603" y="603"/>
      <point x="618" y="543"/>
      <point x="618" y="496" type="curve" smooth="yes"/>
      <point x="618" y="393"/>
      <point x="572" y="244"/>
      <point x="510" y="144" type="curve" smooth="yes"/>
      <point x="465" y="71"/>
      <point x="392" y="28"/>
      <point x="314" y="28" type="curve" smooth="yes"/>
      <point x="218" y="28"/>
      <point x="158" y="97"/>
      <point x="158" y="207" type="curve" smooth="yes"/>
      <point x="158" y="328"/>
      <point x="216" y="510"/>
      <point x="281" y="594" type="curve" smooth="yes"/>
      <point x="334" y="662"/>
      <point x="391" y="694"/>
    </contour>
    <contour>
      <point x="404" y="910" type="curve" smooth="yes"/>
      <point x="377" y="910"/>
      <point x="355" y="888"/>
      <point x="355" y="861" type="curve" smooth="yes"/>
      <point x="355" y="834"/>
      <point x="377" y="812"/>
      <point x="403" y="812" type="curve" smooth="yes"/>
      <point x="431" y="812"/>
      <point x="453" y="834"/>
      <point x="453" y="861" type="curve" smooth="yes"/>
      <point x="453" y="888"/>
      <point x="431" y="910"/>
    </contour>
    <contour>
      <point x="606" y="910" type="curve" smooth="yes"/>
      <point x="579" y="910"/>
      <point x="557" y="888"/>
      <point x="557" y="861" type="curve" smooth="yes"/>
      <point x="557" y="834"/>
      <point x="579" y="812"/>
      <point x="605" y="812" type="curve" smooth="yes"/>
      <point x="633" y="812"/>
      <point x="655" y="834"/>
      <point x="655" y="861" type="curve" smooth="yes"/>
      <point x="655" y="888"/>
      <point x="633" y="910"/>
    </contour>
  </outline>
</glyph>
<glyph name="multiply" format="1">
  <advance width="606"/>
  <unicode hex="00D7"/>
  <outline>
    <contour>
      <point x="288" y="196" type="line"/>
      <point x="483" y="1" type="line"/>
      <point x="540" y="57" type="line"/>
      <point x="345" y="253" type="line"/>
      <point x="540" y="448" type="line"/>
      <point x="483" y="504" type="line"/>
      <point x="288" y="309" type="line"/>
      <point x="93" y="504" type="line"/>
      <point x="37" y="447" type="line"/>
      <point x="231" y="253" type="line"/>
      <point x="37" y="58" type="line"/>
      <point x="93" y="1" type="line"/>
    </contour>
  </outline>
</glyph>
<glyph name="Oslash" format="1">
  <advance width="778"/>
  <unicode hex="00D8"/>
  <outline>
    <contour>
      <point x="624" y="684" type="line"/>
      <point x="576" y="719"/>
      <point x="517" y="737"/>
      <point x="453" y="737" type="curve" smooth="yes"/>
      <point x="234" y="737"/>
      <point x="40" y="521"/>
      <point x="40" y="276" type="curve" smooth="yes"/>
      <point x="40" y="185"/>
      <point x="67" y="109"/>
      <point x="119" y="58" type="curve"/>
      <point x="1" y="-87" type="line"/>
      <point x="59" y="-87" type="line"/>
      <point x="153" y="29" type="line"/>
      <point x="197" y="0"/>
      <point x="250" y="-15"/>
      <point x="313" y="-15" type="curve" smooth="yes"/>
      <point x="417" y="-15"/>
      <point x="510" y="25"/>
      <point x="590" y="104" type="curve" smooth="yes"/>
      <point x="682" y="196"/>
      <point x="735" y="322"/>
      <point x="735" y="451" type="curve" smooth="yes"/>
      <point x="735" y="535"/>
      <point x="710" y="601"/>
      <point x="658" y="655" type="curve"/>
      <point x="735" y="750" type="line"/>
      <point x="677" y="750" type="line"/>
    </contour>
    <contour>
      <point x="172" y="125" type="line"/>
      <point x="163" y="149"/>
      <point x="158" y="182"/>
      <point x="158" y="209" type="curve" smooth="yes"/>
      <point x="158" y="328"/>
      <point x="216" y="509"/>
      <point x="281" y="594" type="curve" smooth="yes"/>
      <point x="332" y="660"/>
      <point x="391" y="693"/>
      <point x="457" y="693" type="curve" smooth="yes"/>
      <point x="513" y="693"/>
      <point x="559" y="672"/>
      <point x="584" y="634" type="curve"/>
    </contour>
    <contour>
      <point x="604" y="588" type="line"/>
      <point x="611" y="565"/>
      <point x="615" y="538"/>
      <point x="615" y="509" type="curve" smooth="yes"/>
      <point x="615" y="385"/>
      <point x="574" y="245"/>
      <point x="510" y="144" type="curve" smooth="yes"/>
      <point x="463" y="72"/>
      <point x="391" y="29"/>
      <point x="315" y="29" type="curve" smooth="yes"/>
      <point x="263" y="29"/>
      <point x="222" y="47"/>
      <point x="195" y="82" type="curve"/>
    </contour>
  </outline>
</glyph>
